STARTFONT 2.1
FONT -Efont-Fixed-Medium-I-Normal--10-100-75-75-C-100-ISO10646-1
SIZE 10 75 75
FONTBOUNDINGBOX 13 10 -1 -2
STARTPROPERTIES 18
COPYRIGHT "(c) Copyright 2000-2003 /efont/ The Electronic Font Open Laboratory."
FOUNDRY "Efont"
FAMILY_NAME "Fixed"
WEIGHT_NAME "Medium"
SLANT "I"
SETWIDTH_NAME "Normal"
ADD_STYLE_NAME ""
PIXEL_SIZE 10
POINT_SIZE 100
RESOLUTION_X 75
RESOLUTION_Y 75
AVERAGE_WIDTH 100
CHARSET_REGISTRY "ISO10646"
CHARSET_ENCODING "1"
_MULE_BASELINE_OFFSET -3
FONT_ASCENT 8
FONT_DESCENT 2
DEFAULT_CHAR 12288
ENDPROPERTIES
CHARS 21526
STARTCHAR U+00A0
ENCODING 160
SWIDTH 1000 0
DWIDTH 10 0
BBX 13 10 -1 -2
BITMAP 
0000
0000
0000
0000
0000
0000
0000
0000
0000
9480
ENDCHAR
STARTCHAR U+00A1
ENCODING 161
SWIDTH 1000 0
DWIDTH 10 0
BBX 13 10 -1 -2
BITMAP 
0000
00C0
0080
0100
0100
0100
0300
0300
0300
0600
ENDCHAR
STARTCHAR U+00A2
ENCODING 162
SWIDTH 1000 0
DWIDTH 10 0
BBX 13 10 -1 -2
BITMAP 
0000
0000
0000
0380
0480
0D00
1A00
1C00
0F00
1000
ENDCHAR
STARTCHAR U+00A3
ENCODING 163
SWIDTH 1000 0
DWIDTH 10 0
BBX 13 10 -1 -2
BITMAP 
0000
00E0
0130
0200
0600
0F80
0400
3C00
2AC0
3100
ENDCHAR
STARTCHAR U+00A4
ENCODING 164
SWIDTH 1000 0
DWIDTH 10 0
BBX 13 10 -1 -2
BITMAP 
0000
0000
0490
0420
0040
0840
0080
0F80
1040
0000
ENDCHAR
STARTCHAR U+00A5
ENCODING 165
SWIDTH 1000 0
DWIDTH 10 0
BBX 13 10 -1 -2
BITMAP 
0000
0E38
0220
0FE0
0280
0100
1FC0
0200
0700
0000
ENDCHAR
STARTCHAR U+00A6
ENCODING 166
SWIDTH 1000 0
DWIDTH 10 0
BBX 13 10 -1 -2
BITMAP 
0000
0000
0080
0100
0100
0000
0200
0200
0200
0000
ENDCHAR
STARTCHAR U+00A7
ENCODING 167
SWIDTH 1000 0
DWIDTH 10 0
BBX 13 10 -1 -2
BITMAP 
0000
01C0
02E0
0700
0480
0440
0580
0380
0D00
0E00
ENDCHAR
STARTCHAR U+00A8
ENCODING 168
SWIDTH 1000 0
DWIDTH 10 0
BBX 13 10 -1 -2
BITMAP 
0000
0360
0140
0000
0000
0000
0000
0000
0000
0000
ENDCHAR
STARTCHAR U+00A9
ENCODING 169
SWIDTH 1000 0
DWIDTH 10 0
BBX 13 10 -1 -2
BITMAP 
0000
03E0
04B0
0870
1450
1C10
24A0
2320
1000
0F00
ENDCHAR
STARTCHAR U+00AA
ENCODING 170
SWIDTH 1000 0
DWIDTH 10 0
BBX 13 10 -1 -2
BITMAP 
0000
01C0
01E0
00C0
03C0
0000
0000
0000
0000
0000
ENDCHAR
STARTCHAR U+00AB
ENCODING 171
SWIDTH 1000 0
DWIDTH 10 0
BBX 13 10 -1 -2
BITMAP 
0000
0000
0000
0000
00A0
01C0
0680
0240
0000
0000
ENDCHAR
STARTCHAR U+00AC
ENCODING 172
SWIDTH 1000 0
DWIDTH 10 0
BBX 13 10 -1 -2
BITMAP 
0000
0000
0000
0000
0FE0
0020
0040
0000
0000
0000
ENDCHAR
STARTCHAR U+00AD
ENCODING 173
SWIDTH 1000 0
DWIDTH 10 0
BBX 13 10 -1 -2
BITMAP 
0000
0000
0000
0000
0000
0F00
0000
0000
0000
9480
ENDCHAR
STARTCHAR U+00AE
ENCODING 174
SWIDTH 1000 0
DWIDTH 10 0
BBX 13 10 -1 -2
BITMAP 
0000
03E0
0790
0E10
1650
1710
2CA0
3CE0
18C0
1F00
ENDCHAR
STARTCHAR U+00AF
ENCODING 175
SWIDTH 1000 0
DWIDTH 10 0
BBX 13 10 -1 -2
BITMAP 
0000
0000
01C0
0000
0000
0000
0000
0000
0000
0000
ENDCHAR
STARTCHAR U+00B0
ENCODING 176
SWIDTH 1000 0
DWIDTH 10 0
BBX 13 10 -1 -2
BITMAP 
0000
0400
0A00
0C00
0000
0000
0000
0000
0000
0000
ENDCHAR
STARTCHAR U+00B1
ENCODING 177
SWIDTH 1000 0
DWIDTH 10 0
BBX 13 10 -1 -2
BITMAP 
0000
0000
0080
0100
0FE0
0100
0200
0000
1FC0
0000
ENDCHAR
STARTCHAR U+00B2
ENCODING 178
SWIDTH 1000 0
DWIDTH 10 0
BBX 13 10 -1 -2
BITMAP 
0000
01C0
01C0
0200
0780
0000
0000
0000
0000
0000
ENDCHAR
STARTCHAR U+00B3
ENCODING 179
SWIDTH 1000 0
DWIDTH 10 0
BBX 13 10 -1 -2
BITMAP 
0000
01C0
01C0
0080
0780
0000
0000
0000
0000
0000
ENDCHAR
STARTCHAR U+00B4
ENCODING 180
SWIDTH 1000 0
DWIDTH 10 0
BBX 13 10 -1 -2
BITMAP 
0000
0080
0000
0000
0000
0000
0000
0000
0000
0000
ENDCHAR
STARTCHAR U+00B6
ENCODING 182
SWIDTH 1000 0
DWIDTH 10 0
BBX 13 10 -1 -2
BITMAP 
0000
01E0
03A0
0F40
0F40
0740
0280
0280
0280
0500
ENDCHAR
STARTCHAR U+00B7
ENCODING 183
SWIDTH 1000 0
DWIDTH 10 0
BBX 13 10 -1 -2
BITMAP 
0000
0000
0000
0100
0380
0100
0000
0000
0000
0000
ENDCHAR
STARTCHAR U+00B8
ENCODING 184
SWIDTH 1000 0
DWIDTH 10 0
BBX 13 10 -1 -2
BITMAP 
0000
0000
0000
0000
0000
0000
0000
0200
0000
0600
ENDCHAR
STARTCHAR U+00B9
ENCODING 185
SWIDTH 1000 0
DWIDTH 10 0
BBX 13 10 -1 -2
BITMAP 
0000
0080
0380
0300
0780
0000
0000
0000
0000
0000
ENDCHAR
STARTCHAR U+00BA
ENCODING 186
SWIDTH 1000 0
DWIDTH 10 0
BBX 13 10 -1 -2
BITMAP 
0000
0180
06A0
0AC0
0100
0000
0000
0000
0000
0000
ENDCHAR
STARTCHAR U+00BB
ENCODING 187
SWIDTH 1000 0
DWIDTH 10 0
BBX 13 10 -1 -2
BITMAP 
0000
0000
0000
0000
0200
0240
02C0
0080
0000
0000
ENDCHAR
STARTCHAR U+00BC
ENCODING 188
SWIDTH 1000 0
DWIDTH 10 0
BBX 13 10 -1 -2
BITMAP 
0000
0200
0600
0440
0480
0300
0480
0980
13C0
0100
ENDCHAR
STARTCHAR U+00BD
ENCODING 189
SWIDTH 1000 0
DWIDTH 10 0
BBX 13 10 -1 -2
BITMAP 
0000
0200
0600
0440
0480
0300
0480
08C0
1100
0380
ENDCHAR
STARTCHAR U+00BE
ENCODING 190
SWIDTH 1000 0
DWIDTH 10 0
BBX 13 10 -1 -2
BITMAP 
0000
0600
0600
0240
0C80
0300
0480
0980
13C0
0100
ENDCHAR
STARTCHAR U+00BF
ENCODING 191
SWIDTH 1000 0
DWIDTH 10 0
BBX 13 10 -1 -2
BITMAP 
0000
0180
0000
0100
0100
0300
0400
1880
0900
0600
ENDCHAR
STARTCHAR U+00C0
ENCODING 192
SWIDTH 1000 0
DWIDTH 10 0
BBX 13 10 -1 -2
BITMAP 
0000
0100
0080
0180
0280
04C0
0F80
1080
38C0
0000
ENDCHAR
STARTCHAR U+00C1
ENCODING 193
SWIDTH 1000 0
DWIDTH 10 0
BBX 13 10 -1 -2
BITMAP 
0000
0000
0000
0300
0280
04C0
0F80
1080
38C0
0000
ENDCHAR
STARTCHAR U+00C2
ENCODING 194
SWIDTH 1000 0
DWIDTH 10 0
BBX 13 10 -1 -2
BITMAP 
0000
0080
0140
0380
0280
04C0
0F80
1080
38C0
0000
ENDCHAR
STARTCHAR U+00C3
ENCODING 195
SWIDTH 1000 0
DWIDTH 10 0
BBX 13 10 -1 -2
BITMAP 
0000
0300
0080
0100
0280
04C0
0F80
1080
38C0
0000
ENDCHAR
STARTCHAR U+00C4
ENCODING 196
SWIDTH 1000 0
DWIDTH 10 0
BBX 13 10 -1 -2
BITMAP 
0000
0360
0180
0300
0280
04C0
0F80
1080
38C0
0000
ENDCHAR
STARTCHAR U+00C5
ENCODING 197
SWIDTH 1000 0
DWIDTH 10 0
BBX 13 10 -1 -2
BITMAP 
0000
0180
0240
0380
0280
04C0
0F80
1080
38C0
0000
ENDCHAR
STARTCHAR U+00C6
ENCODING 198
SWIDTH 1000 0
DWIDTH 10 0
BBX 13 10 -1 -2
BITMAP 
0000
01F0
0188
0700
03C0
1300
1E00
2620
27C0
0000
ENDCHAR
STARTCHAR U+00C7
ENCODING 199
SWIDTH 1000 0
DWIDTH 10 0
BBX 13 10 -1 -2
BITMAP 
0000
01E0
0220
0440
0800
0800
0880
0780
0600
1800
ENDCHAR
STARTCHAR U+00C8
ENCODING 200
SWIDTH 1000 0
DWIDTH 10 0
BBX 13 10 -1 -2
BITMAP 
0000
0100
07C0
0C20
0C80
0F80
1800
1840
1F80
0000
ENDCHAR
STARTCHAR U+00C9
ENCODING 201
SWIDTH 1000 0
DWIDTH 10 0
BBX 13 10 -1 -2
BITMAP 
0000
0080
07C0
0C20
0C80
0F80
1800
1840
1F80
0000
ENDCHAR
STARTCHAR U+00CA
ENCODING 202
SWIDTH 1000 0
DWIDTH 10 0
BBX 13 10 -1 -2
BITMAP 
0000
0180
07C0
0C20
0C80
0F80
1800
1840
1F80
0000
ENDCHAR
STARTCHAR U+00CB
ENCODING 203
SWIDTH 1000 0
DWIDTH 10 0
BBX 13 10 -1 -2
BITMAP 
0000
0360
07E0
0C20
0C80
0F80
1800
1840
1F80
0000
ENDCHAR
STARTCHAR U+00CC
ENCODING 204
SWIDTH 1000 0
DWIDTH 10 0
BBX 13 10 -1 -2
BITMAP 
0000
0100
0180
0300
0300
0300
0600
0600
0600
0000
ENDCHAR
STARTCHAR U+00CD
ENCODING 205
SWIDTH 1000 0
DWIDTH 10 0
BBX 13 10 -1 -2
BITMAP 
0000
0080
0180
0300
0300
0300
0600
0600
0600
0000
ENDCHAR
STARTCHAR U+00CE
ENCODING 206
SWIDTH 1000 0
DWIDTH 10 0
BBX 13 10 -1 -2
BITMAP 
0000
0080
0140
0780
0300
0300
0600
0600
0600
0000
ENDCHAR
STARTCHAR U+00CF
ENCODING 207
SWIDTH 1000 0
DWIDTH 10 0
BBX 13 10 -1 -2
BITMAP 
0000
0360
0180
0280
0300
0300
0600
0600
0600
0000
ENDCHAR
STARTCHAR U+00D0
ENCODING 208
SWIDTH 1000 0
DWIDTH 10 0
BBX 13 10 -1 -2
BITMAP 
0000
07C0
0640
0C60
0C60
0E60
18C0
1880
1F00
0000
ENDCHAR
STARTCHAR U+00D1
ENCODING 209
SWIDTH 1000 0
DWIDTH 10 0
BBX 13 10 -1 -2
BITMAP 
0000
01A0
0670
0E60
0B40
0BC0
1380
1180
1880
0000
ENDCHAR
STARTCHAR U+00D2
ENCODING 210
SWIDTH 1000 0
DWIDTH 10 0
BBX 13 10 -1 -2
BITMAP 
0000
0100
0080
0440
0860
0860
10C0
18C0
0700
0000
ENDCHAR
STARTCHAR U+00D3
ENCODING 211
SWIDTH 1000 0
DWIDTH 10 0
BBX 13 10 -1 -2
BITMAP 
0000
0000
0080
0440
0860
0860
10C0
18C0
0700
0000
ENDCHAR
STARTCHAR U+00D4
ENCODING 212
SWIDTH 1000 0
DWIDTH 10 0
BBX 13 10 -1 -2
BITMAP 
0000
0080
0140
0380
0440
0860
10C0
18C0
0700
0000
ENDCHAR
STARTCHAR U+00D5
ENCODING 213
SWIDTH 1000 0
DWIDTH 10 0
BBX 13 10 -1 -2
BITMAP 
0000
0300
0080
0440
0860
0860
10C0
18C0
0700
0000
ENDCHAR
STARTCHAR U+00D6
ENCODING 214
SWIDTH 1000 0
DWIDTH 10 0
BBX 13 10 -1 -2
BITMAP 
0000
0360
03C0
0440
0860
0860
10C0
18C0
0700
0000
ENDCHAR
STARTCHAR U+00D7
ENCODING 215
SWIDTH 1000 0
DWIDTH 10 0
BBX 13 10 -1 -2
BITMAP 
0000
0000
0000
0440
0280
0300
0500
0880
0000
0000
ENDCHAR
STARTCHAR U+00D8
ENCODING 216
SWIDTH 1000 0
DWIDTH 10 0
BBX 13 10 -1 -2
BITMAP 
0000
01D0
0220
04E0
0960
0A60
1CC0
1880
1700
0000
ENDCHAR
STARTCHAR U+00D9
ENCODING 217
SWIDTH 1000 0
DWIDTH 10 0
BBX 13 10 -1 -2
BITMAP 
0000
0100
06F0
0C60
0C40
0C40
1880
0C80
0700
0000
ENDCHAR
STARTCHAR U+00DA
ENCODING 218
SWIDTH 1000 0
DWIDTH 10 0
BBX 13 10 -1 -2
BITMAP 
0000
0000
0730
0C60
0C40
0C40
1880
0C80
0700
0000
ENDCHAR
STARTCHAR U+00DB
ENCODING 219
SWIDTH 1000 0
DWIDTH 10 0
BBX 13 10 -1 -2
BITMAP 
0000
0080
0770
0C60
0C40
0C40
1880
0C80
0700
0000
ENDCHAR
STARTCHAR U+00DC
ENCODING 220
SWIDTH 1000 0
DWIDTH 10 0
BBX 13 10 -1 -2
BITMAP 
0000
0360
0770
0C60
0C40
0C40
1880
0C80
0700
0000
ENDCHAR
STARTCHAR U+00DD
ENCODING 221
SWIDTH 1000 0
DWIDTH 10 0
BBX 13 10 -1 -2
BITMAP 
0000
0000
0730
0C60
0640
0780
0600
0600
0600
0000
ENDCHAR
STARTCHAR U+00DE
ENCODING 222
SWIDTH 1000 0
DWIDTH 10 0
BBX 13 10 -1 -2
BITMAP 
0000
0700
07C0
0CC0
0C60
0C80
1F00
1800
1C00
0000
ENDCHAR
STARTCHAR U+00DF
ENCODING 223
SWIDTH 1000 0
DWIDTH 10 0
BBX 13 10 -1 -2
BITMAP 
0000
0180
0240
0C40
0D00
0C80
1880
1880
1900
0000
ENDCHAR
STARTCHAR U+00E0
ENCODING 224
SWIDTH 1000 0
DWIDTH 10 0
BBX 13 10 -1 -2
BITMAP 
0000
0000
0000
0000
0780
00C0
0F80
1980
0F80
0000
ENDCHAR
STARTCHAR U+00E1
ENCODING 225
SWIDTH 1000 0
DWIDTH 10 0
BBX 13 10 -1 -2
BITMAP 
0000
0000
0180
0200
0780
00C0
0F80
1980
0F80
0000
ENDCHAR
STARTCHAR U+00E2
ENCODING 226
SWIDTH 1000 0
DWIDTH 10 0
BBX 13 10 -1 -2
BITMAP 
0000
0000
0080
0000
0780
00C0
0F80
1980
0F80
0000
ENDCHAR
STARTCHAR U+00E3
ENCODING 227
SWIDTH 1000 0
DWIDTH 10 0
BBX 13 10 -1 -2
BITMAP 
0000
0000
03C0
0000
0780
00C0
0F80
1980
0F80
0000
ENDCHAR
STARTCHAR U+00E4
ENCODING 228
SWIDTH 1000 0
DWIDTH 10 0
BBX 13 10 -1 -2
BITMAP 
0000
0000
0360
0000
0780
00C0
0F80
1980
0F80
0000
ENDCHAR
STARTCHAR U+00E5
ENCODING 229
SWIDTH 1000 0
DWIDTH 10 0
BBX 13 10 -1 -2
BITMAP 
0000
0000
0180
0300
0780
00C0
0F80
1980
0F80
0000
ENDCHAR
STARTCHAR U+00E6
ENCODING 230
SWIDTH 1000 0
DWIDTH 10 0
BBX 13 10 -1 -2
BITMAP 
0000
0000
0000
0000
0EC0
03A0
3FE0
3700
3DC0
0000
ENDCHAR
STARTCHAR U+00E7
ENCODING 231
SWIDTH 1000 0
DWIDTH 10 0
BBX 13 10 -1 -2
BITMAP 
0000
0000
0000
0000
0780
0C00
1800
0F00
0600
1800
ENDCHAR
STARTCHAR U+00E8
ENCODING 232
SWIDTH 1000 0
DWIDTH 10 0
BBX 13 10 -1 -2
BITMAP 
0000
0000
0000
0000
0780
0C40
1F80
1800
0F80
0000
ENDCHAR
STARTCHAR U+00E9
ENCODING 233
SWIDTH 1000 0
DWIDTH 10 0
BBX 13 10 -1 -2
BITMAP 
0000
0000
0180
0200
0780
0C40
1F80
1800
0F80
0000
ENDCHAR
STARTCHAR U+00EA
ENCODING 234
SWIDTH 1000 0
DWIDTH 10 0
BBX 13 10 -1 -2
BITMAP 
0000
0000
0080
0000
07C0
0C40
1F80
1800
0F80
0000
ENDCHAR
STARTCHAR U+00EB
ENCODING 235
SWIDTH 1000 0
DWIDTH 10 0
BBX 13 10 -1 -2
BITMAP 
0000
0000
0360
0000
0780
0C40
1F80
1800
0F80
0000
ENDCHAR
STARTCHAR U+00EC
ENCODING 236
SWIDTH 1000 0
DWIDTH 10 0
BBX 13 10 -1 -2
BITMAP 
0000
0000
0100
0100
0700
0300
0600
0600
0600
0000
ENDCHAR
STARTCHAR U+00ED
ENCODING 237
SWIDTH 1000 0
DWIDTH 10 0
BBX 13 10 -1 -2
BITMAP 
0000
0000
0000
0000
0700
0300
0600
0600
0600
0000
ENDCHAR
STARTCHAR U+00EE
ENCODING 238
SWIDTH 1000 0
DWIDTH 10 0
BBX 13 10 -1 -2
BITMAP 
0000
0000
0100
0000
0700
0300
0600
0600
0600
0000
ENDCHAR
STARTCHAR U+00EF
ENCODING 239
SWIDTH 1000 0
DWIDTH 10 0
BBX 13 10 -1 -2
BITMAP 
0000
0000
06C0
0000
0700
0300
0600
0600
0600
0000
ENDCHAR
STARTCHAR U+00F0
ENCODING 240
SWIDTH 1000 0
DWIDTH 10 0
BBX 13 10 -1 -2
BITMAP 
0000
0120
0180
0040
0340
04C0
1880
1880
0B80
0400
ENDCHAR
STARTCHAR U+00F1
ENCODING 241
SWIDTH 1000 0
DWIDTH 10 0
BBX 13 10 -1 -2
BITMAP 
0000
0000
03C0
0000
0500
0680
0C80
0C80
0CC0
0000
ENDCHAR
STARTCHAR U+00F2
ENCODING 242
SWIDTH 1000 0
DWIDTH 10 0
BBX 13 10 -1 -2
BITMAP 
0000
0000
0000
0000
0700
0C80
1880
1880
0F80
0000
ENDCHAR
STARTCHAR U+00F3
ENCODING 243
SWIDTH 1000 0
DWIDTH 10 0
BBX 13 10 -1 -2
BITMAP 
0000
0000
0180
0200
0700
0C80
1880
1880
0F80
0000
ENDCHAR
STARTCHAR U+00F4
ENCODING 244
SWIDTH 1000 0
DWIDTH 10 0
BBX 13 10 -1 -2
BITMAP 
0000
0000
0080
0000
07C0
0C40
1880
1880
0F80
0000
ENDCHAR
STARTCHAR U+00F5
ENCODING 245
SWIDTH 1000 0
DWIDTH 10 0
BBX 13 10 -1 -2
BITMAP 
0000
0000
03C0
0000
0700
0C80
1880
1880
0F80
0000
ENDCHAR
STARTCHAR U+00F6
ENCODING 246
SWIDTH 1000 0
DWIDTH 10 0
BBX 13 10 -1 -2
BITMAP 
0000
0000
0360
0000
0700
0C80
1880
1880
0F80
0000
ENDCHAR
STARTCHAR U+00F7
ENCODING 247
SWIDTH 1000 0
DWIDTH 10 0
BBX 13 10 -1 -2
BITMAP 
0000
0000
0000
0100
0000
0FE0
0000
0200
0000
0000
ENDCHAR
STARTCHAR U+00F8
ENCODING 248
SWIDTH 1000 0
DWIDTH 10 0
BBX 13 10 -1 -2
BITMAP 
0000
0000
0000
0000
07C0
0DC0
1A80
1C80
0F80
0000
ENDCHAR
STARTCHAR U+00F9
ENCODING 249
SWIDTH 1000 0
DWIDTH 10 0
BBX 13 10 -1 -2
BITMAP 
0000
0000
0000
0000
06C0
0640
0C80
0C80
07C0
0000
ENDCHAR
STARTCHAR U+00FA
ENCODING 250
SWIDTH 1000 0
DWIDTH 10 0
BBX 13 10 -1 -2
BITMAP 
0000
0000
0080
0100
06C0
0640
0C80
0C80
07C0
0000
ENDCHAR
STARTCHAR U+00FB
ENCODING 251
SWIDTH 1000 0
DWIDTH 10 0
BBX 13 10 -1 -2
BITMAP 
0000
0000
0080
0000
06C0
0640
0C80
0C80
07C0
0000
ENDCHAR
STARTCHAR U+00FC
ENCODING 252
SWIDTH 1000 0
DWIDTH 10 0
BBX 13 10 -1 -2
BITMAP 
0000
0000
0360
0000
06C0
0640
0C80
0C80
07C0
0000
ENDCHAR
STARTCHAR U+00FD
ENCODING 253
SWIDTH 1000 0
DWIDTH 10 0
BBX 13 10 -1 -2
BITMAP 
0000
0000
00C0
0100
0660
0640
0780
0300
0C00
3800
ENDCHAR
STARTCHAR U+00FE
ENCODING 254
SWIDTH 1000 0
DWIDTH 10 0
BBX 13 10 -1 -2
BITMAP 
0000
0300
0300
0600
0700
0680
0C80
0F80
0C00
1C00
ENDCHAR
STARTCHAR U+00FF
ENCODING 255
SWIDTH 1000 0
DWIDTH 10 0
BBX 13 10 -1 -2
BITMAP 
0000
0000
0360
0000
0660
0640
0780
0300
0C00
3800
ENDCHAR
STARTCHAR U+0100
ENCODING 256
SWIDTH 1000 0
DWIDTH 10 0
BBX 13 10 -1 -2
BITMAP 
0000
01C0
0080
0180
0280
04C0
0F80
1080
38C0
0000
ENDCHAR
STARTCHAR U+0101
ENCODING 257
SWIDTH 1000 0
DWIDTH 10 0
BBX 13 10 -1 -2
BITMAP 
0000
0000
0180
0000
0780
00C0
0F80
1980
0F80
0000
ENDCHAR
STARTCHAR U+0102
ENCODING 258
SWIDTH 1000 0
DWIDTH 10 0
BBX 13 10 -1 -2
BITMAP 
0000
0000
0000
0300
0280
04C0
0F80
1080
38C0
0000
ENDCHAR
STARTCHAR U+0103
ENCODING 259
SWIDTH 1000 0
DWIDTH 10 0
BBX 13 10 -1 -2
BITMAP 
0000
0000
0180
0000
0780
00C0
0F80
1980
0F80
0000
ENDCHAR
STARTCHAR U+0104
ENCODING 260
SWIDTH 1000 0
DWIDTH 10 0
BBX 13 10 -1 -2
BITMAP 
0000
0080
0080
0380
0480
07C0
1980
38C0
00C0
00C0
ENDCHAR
STARTCHAR U+0105
ENCODING 261
SWIDTH 1000 0
DWIDTH 10 0
BBX 13 10 -1 -2
BITMAP 
0000
0000
0000
0000
0780
00C0
0F80
1980
0F80
0180
ENDCHAR
STARTCHAR U+0106
ENCODING 262
SWIDTH 1000 0
DWIDTH 10 0
BBX 13 10 -1 -2
BITMAP 
0000
0080
0180
0040
0440
0800
1800
0880
0700
0000
ENDCHAR
STARTCHAR U+0107
ENCODING 263
SWIDTH 1000 0
DWIDTH 10 0
BBX 13 10 -1 -2
BITMAP 
0000
0000
0180
0200
0780
0C00
1800
1800
0F00
0000
ENDCHAR
STARTCHAR U+0108
ENCODING 264
SWIDTH 1000 0
DWIDTH 10 0
BBX 13 10 -1 -2
BITMAP 
0000
0080
0140
03C0
0440
0800
1800
0880
0700
0000
ENDCHAR
STARTCHAR U+0109
ENCODING 265
SWIDTH 1000 0
DWIDTH 10 0
BBX 13 10 -1 -2
BITMAP 
0000
0000
0080
0000
07C0
0C00
1800
1800
0F00
0000
ENDCHAR
STARTCHAR U+010C
ENCODING 268
SWIDTH 1000 0
DWIDTH 10 0
BBX 13 10 -1 -2
BITMAP 
0000
0000
0180
0040
0440
0800
1800
0880
0700
0000
ENDCHAR
STARTCHAR U+010D
ENCODING 269
SWIDTH 1000 0
DWIDTH 10 0
BBX 13 10 -1 -2
BITMAP 
0000
0000
01C0
0100
0780
0C00
1800
1800
0F00
0000
ENDCHAR
STARTCHAR U+010E
ENCODING 270
SWIDTH 1000 0
DWIDTH 10 0
BBX 13 10 -1 -2
BITMAP 
0000
0000
07C0
0C00
0C40
0C60
18C0
1880
1F00
0000
ENDCHAR
STARTCHAR U+010F
ENCODING 271
SWIDTH 1000 0
DWIDTH 10 0
BBX 13 10 -1 -2
BITMAP 
0000
0000
01C0
00C0
07C0
0CC0
1980
1980
0F80
0000
ENDCHAR
STARTCHAR U+0111
ENCODING 273
SWIDTH 1000 0
DWIDTH 10 0
BBX 13 10 -1 -2
BITMAP 
0000
00E0
01E0
00C0
07C0
0CC0
1980
1980
0F80
0000
ENDCHAR
STARTCHAR U+0112
ENCODING 274
SWIDTH 1000 0
DWIDTH 10 0
BBX 13 10 -1 -2
BITMAP 
0000
01C0
07E0
0C20
0C80
0F80
1800
1840
1F80
0000
ENDCHAR
STARTCHAR U+0113
ENCODING 275
SWIDTH 1000 0
DWIDTH 10 0
BBX 13 10 -1 -2
BITMAP 
0000
0000
01C0
0000
0780
0C40
1F80
1800
0F80
0000
ENDCHAR
STARTCHAR U+0118
ENCODING 280
SWIDTH 1000 0
DWIDTH 10 0
BBX 13 10 -1 -2
BITMAP 
0000
07E0
0600
0C00
0F80
0C80
1840
1F80
0180
0180
ENDCHAR
STARTCHAR U+0119
ENCODING 281
SWIDTH 1000 0
DWIDTH 10 0
BBX 13 10 -1 -2
BITMAP 
0000
0000
0000
0000
0780
0C40
1F80
1800
0F80
0180
ENDCHAR
STARTCHAR U+011A
ENCODING 282
SWIDTH 1000 0
DWIDTH 10 0
BBX 13 10 -1 -2
BITMAP 
0000
0000
07C0
0C20
0C80
0F80
1800
1840
1F80
0000
ENDCHAR
STARTCHAR U+011B
ENCODING 283
SWIDTH 1000 0
DWIDTH 10 0
BBX 13 10 -1 -2
BITMAP 
0000
0000
01C0
0100
0780
0C40
1F80
1800
0F80
0000
ENDCHAR
STARTCHAR U+011C
ENCODING 284
SWIDTH 1000 0
DWIDTH 10 0
BBX 13 10 -1 -2
BITMAP 
0000
0080
0140
03C0
0440
0800
19C0
0880
0780
0000
ENDCHAR
STARTCHAR U+011D
ENCODING 285
SWIDTH 1000 0
DWIDTH 10 0
BBX 13 10 -1 -2
BITMAP 
0000
0000
0080
0040
07C0
0C80
0800
0F00
1980
1F00
ENDCHAR
STARTCHAR U+0124
ENCODING 292
SWIDTH 1000 0
DWIDTH 10 0
BBX 13 10 -1 -2
BITMAP 
0000
0080
0770
0C60
0C40
0FC0
1880
1880
18C0
0000
ENDCHAR
STARTCHAR U+0125
ENCODING 293
SWIDTH 1000 0
DWIDTH 10 0
BBX 13 10 -1 -2
BITMAP 
0000
0340
0320
0600
0700
0680
0C80
0C80
0CC0
0000
ENDCHAR
STARTCHAR U+0126
ENCODING 294
SWIDTH 1000 0
DWIDTH 10 0
BBX 13 10 -1 -2
BITMAP 
0220
07F8
0220
07C0
0440
0440
0880
0000
0000
0000
ENDCHAR
STARTCHAR U+0127
ENCODING 295
SWIDTH 1000 0
DWIDTH 10 0
BBX 13 10 -1 -2
BITMAP 
0000
0300
0380
0600
0700
0680
0C80
0C80
0CC0
0000
ENDCHAR
STARTCHAR U+012A
ENCODING 298
SWIDTH 1000 0
DWIDTH 10 0
BBX 13 10 -1 -2
BITMAP 
0000
0180
0180
0300
0300
0300
0600
0600
0600
0000
ENDCHAR
STARTCHAR U+012B
ENCODING 299
SWIDTH 1000 0
DWIDTH 10 0
BBX 13 10 -1 -2
BITMAP 
0000
0000
0180
0000
0700
0300
0600
0600
0600
0000
ENDCHAR
STARTCHAR U+0131
ENCODING 305
SWIDTH 1000 0
DWIDTH 10 0
BBX 13 10 -1 -2
BITMAP 
0000
0000
0000
0080
0080
0080
0100
0000
0000
0000
ENDCHAR
STARTCHAR U+0132
ENCODING 306
SWIDTH 1000 0
DWIDTH 10 0
BBX 13 10 -1 -2
BITMAP 
0210
0210
0210
0420
0420
04A0
08C0
0080
0000
0000
ENDCHAR
STARTCHAR U+0133
ENCODING 307
SWIDTH 1000 0
DWIDTH 10 0
BBX 13 10 -1 -2
BITMAP 
0100
0000
0000
0240
0240
0240
0480
0180
0000
0000
ENDCHAR
STARTCHAR U+0134
ENCODING 308
SWIDTH 1000 0
DWIDTH 10 0
BBX 13 10 -1 -2
BITMAP 
0000
0080
01A0
00C0
00C0
00C0
0180
1900
0E00
0000
ENDCHAR
STARTCHAR U+0135
ENCODING 309
SWIDTH 1000 0
DWIDTH 10 0
BBX 13 10 -1 -2
BITMAP 
0000
0000
0080
0000
0380
0180
0300
0300
0400
3800
ENDCHAR
STARTCHAR U+0138
ENCODING 312
SWIDTH 1000 0
DWIDTH 10 0
BBX 13 10 -1 -2
BITMAP 
0100
0100
0160
0280
0300
0280
0480
0000
0000
0000
ENDCHAR
STARTCHAR U+0139
ENCODING 313
SWIDTH 1000 0
DWIDTH 10 0
BBX 13 10 -1 -2
BITMAP 
0000
0000
0780
0C00
0C00
0C00
1800
1840
1F80
0000
ENDCHAR
STARTCHAR U+013A
ENCODING 314
SWIDTH 1000 0
DWIDTH 10 0
BBX 13 10 -1 -2
BITMAP 
0000
0080
0100
0300
0300
0300
0600
0600
0600
0000
ENDCHAR
STARTCHAR U+013D
ENCODING 317
SWIDTH 1000 0
DWIDTH 10 0
BBX 13 10 -1 -2
BITMAP 
0000
0720
06C0
0C00
0C00
0C00
1800
1840
1F80
0000
ENDCHAR
STARTCHAR U+013E
ENCODING 318
SWIDTH 1000 0
DWIDTH 10 0
BBX 13 10 -1 -2
BITMAP 
0000
0000
0180
0300
0300
0300
0600
0600
0600
0000
ENDCHAR
STARTCHAR U+013F
ENCODING 319
SWIDTH 1000 0
DWIDTH 10 0
BBX 13 10 -1 -2
BITMAP 
0100
0100
0100
0240
0200
0200
0200
0180
0000
0000
ENDCHAR
STARTCHAR U+0140
ENCODING 320
SWIDTH 1000 0
DWIDTH 10 0
BBX 13 10 -1 -2
BITMAP 
0100
0100
0100
0240
0200
0200
0400
0000
0000
0000
ENDCHAR
STARTCHAR U+0141
ENCODING 321
SWIDTH 1000 0
DWIDTH 10 0
BBX 13 10 -1 -2
BITMAP 
0000
0600
0600
0D00
0E00
0C00
1800
1840
1F80
0000
ENDCHAR
STARTCHAR U+0142
ENCODING 322
SWIDTH 1000 0
DWIDTH 10 0
BBX 13 10 -1 -2
BITMAP 
0000
0180
0180
0300
0380
0700
0600
0600
0600
0000
ENDCHAR
STARTCHAR U+0143
ENCODING 323
SWIDTH 1000 0
DWIDTH 10 0
BBX 13 10 -1 -2
BITMAP 
0000
0040
0770
0E40
0B40
0BC0
1380
1180
1880
0000
ENDCHAR
STARTCHAR U+0144
ENCODING 324
SWIDTH 1000 0
DWIDTH 10 0
BBX 13 10 -1 -2
BITMAP 
0000
0000
0180
0200
0500
0680
0C80
0C80
0CC0
0000
ENDCHAR
STARTCHAR U+0147
ENCODING 327
SWIDTH 1000 0
DWIDTH 10 0
BBX 13 10 -1 -2
BITMAP 
0000
0320
07B0
0E40
0B40
0BC0
1380
1180
1880
0000
ENDCHAR
STARTCHAR U+0148
ENCODING 328
SWIDTH 1000 0
DWIDTH 10 0
BBX 13 10 -1 -2
BITMAP 
0000
0000
01C0
0100
0580
0680
0C80
0C80
0CC0
0000
ENDCHAR
STARTCHAR U+0149
ENCODING 329
SWIDTH 1000 0
DWIDTH 10 0
BBX 13 10 -1 -2
BITMAP 
0000
0400
0480
0100
0240
0240
0480
0000
0000
0000
ENDCHAR
STARTCHAR U+014A
ENCODING 330
SWIDTH 1000 0
DWIDTH 10 0
BBX 13 10 -1 -2
BITMAP 
0100
0100
01C0
0340
0240
0240
0400
0000
0000
0000
ENDCHAR
STARTCHAR U+014B
ENCODING 331
SWIDTH 1000 0
DWIDTH 10 0
BBX 13 10 -1 -2
BITMAP 
0000
0000
0000
0000
0500
0680
0C80
0C80
0D00
0600
ENDCHAR
STARTCHAR U+014C
ENCODING 332
SWIDTH 1000 0
DWIDTH 10 0
BBX 13 10 -1 -2
BITMAP 
0000
01C0
0080
0440
0860
0860
10C0
18C0
0700
0000
ENDCHAR
STARTCHAR U+014D
ENCODING 333
SWIDTH 1000 0
DWIDTH 10 0
BBX 13 10 -1 -2
BITMAP 
0000
0000
01C0
0000
0300
0480
1880
0880
0700
0000
ENDCHAR
STARTCHAR U+0150
ENCODING 336
SWIDTH 1000 0
DWIDTH 10 0
BBX 13 10 -1 -2
BITMAP 
0000
0100
0380
0440
0860
0860
10C0
18C0
0700
0000
ENDCHAR
STARTCHAR U+0151
ENCODING 337
SWIDTH 1000 0
DWIDTH 10 0
BBX 13 10 -1 -2
BITMAP 
0000
0000
01C0
0100
0380
0480
1880
0880
0700
0000
ENDCHAR
STARTCHAR U+0152
ENCODING 338
SWIDTH 1000 0
DWIDTH 10 0
BBX 13 10 -1 -2
BITMAP 
0000
06E0
0780
1B00
1BC0
1B00
3600
1640
1B80
0000
ENDCHAR
STARTCHAR U+0153
ENCODING 339
SWIDTH 1000 0
DWIDTH 10 0
BBX 13 10 -1 -2
BITMAP 
0000
0000
0000
0000
0EC0
1B60
37C0
3600
3D80
0000
ENDCHAR
STARTCHAR U+0154
ENCODING 340
SWIDTH 1000 0
DWIDTH 10 0
BBX 13 10 -1 -2
BITMAP 
0000
0000
07E0
0C60
0C60
0FC0
1980
1880
1CC0
0000
ENDCHAR
STARTCHAR U+0155
ENCODING 341
SWIDTH 1000 0
DWIDTH 10 0
BBX 13 10 -1 -2
BITMAP 
0000
0000
0180
0200
05C0
0640
0C00
0C00
0E00
0000
ENDCHAR
STARTCHAR U+0158
ENCODING 344
SWIDTH 1000 0
DWIDTH 10 0
BBX 13 10 -1 -2
BITMAP 
0000
0000
07E0
0C60
0C60
0FC0
1980
1880
1CC0
0000
ENDCHAR
STARTCHAR U+0159
ENCODING 345
SWIDTH 1000 0
DWIDTH 10 0
BBX 13 10 -1 -2
BITMAP 
0000
0000
01C0
0100
05C0
0640
0C00
0C00
0E00
0000
ENDCHAR
STARTCHAR U+015A
ENCODING 346
SWIDTH 1000 0
DWIDTH 10 0
BBX 13 10 -1 -2
BITMAP 
0000
0080
0100
00C0
0440
0700
0780
1980
1F00
0000
ENDCHAR
STARTCHAR U+015B
ENCODING 347
SWIDTH 1000 0
DWIDTH 10 0
BBX 13 10 -1 -2
BITMAP 
0000
0000
0180
0200
07C0
0440
0600
0B80
1F80
0000
ENDCHAR
STARTCHAR U+015C
ENCODING 348
SWIDTH 1000 0
DWIDTH 10 0
BBX 13 10 -1 -2
BITMAP 
0000
0080
0180
02C0
0440
0700
0780
1980
1F00
0000
ENDCHAR
STARTCHAR U+015D
ENCODING 349
SWIDTH 1000 0
DWIDTH 10 0
BBX 13 10 -1 -2
BITMAP 
0000
0000
0080
0000
07C0
0440
0600
0B80
1F80
0000
ENDCHAR
STARTCHAR U+015E
ENCODING 350
SWIDTH 1000 0
DWIDTH 10 0
BBX 13 10 -1 -2
BITMAP 
0000
01E0
0260
0E00
0780
0180
1880
1F00
0600
1800
ENDCHAR
STARTCHAR U+015F
ENCODING 351
SWIDTH 1000 0
DWIDTH 10 0
BBX 13 10 -1 -2
BITMAP 
0000
0000
0000
03C0
0440
0700
0380
1F80
0300
0C00
ENDCHAR
STARTCHAR U+0160
ENCODING 352
SWIDTH 1000 0
DWIDTH 10 0
BBX 13 10 -1 -2
BITMAP 
0000
0000
01C0
00C0
0440
0700
0780
1980
1F00
0000
ENDCHAR
STARTCHAR U+0161
ENCODING 353
SWIDTH 1000 0
DWIDTH 10 0
BBX 13 10 -1 -2
BITMAP 
0000
0000
01C0
0100
07C0
0440
0600
0B80
1F80
0000
ENDCHAR
STARTCHAR U+0162
ENCODING 354
SWIDTH 1000 0
DWIDTH 10 0
BBX 13 10 -1 -2
BITMAP 
0000
07E0
0990
0300
0300
0300
0600
0600
0800
1000
ENDCHAR
STARTCHAR U+0163
ENCODING 355
SWIDTH 1000 0
DWIDTH 10 0
BBX 13 10 -1 -2
BITMAP 
0000
0000
0080
0300
0780
0300
0600
0380
0400
1800
ENDCHAR
STARTCHAR U+0164
ENCODING 356
SWIDTH 1000 0
DWIDTH 10 0
BBX 13 10 -1 -2
BITMAP 
0000
0000
07E0
0B40
1320
0300
0600
0600
0600
0000
ENDCHAR
STARTCHAR U+0165
ENCODING 357
SWIDTH 1000 0
DWIDTH 10 0
BBX 13 10 -1 -2
BITMAP 
0000
0000
0080
0300
0780
0300
0600
0600
0380
0000
ENDCHAR
STARTCHAR U+0166
ENCODING 358
SWIDTH 1000 0
DWIDTH 10 0
BBX 13 10 -1 -2
BITMAP 
03F0
0040
0040
03C0
0080
0080
0100
0000
0000
0000
ENDCHAR
STARTCHAR U+0167
ENCODING 359
SWIDTH 1000 0
DWIDTH 10 0
BBX 13 10 -1 -2
BITMAP 
0080
00C0
0180
0380
0100
0100
0200
0000
0000
0000
ENDCHAR
STARTCHAR U+016A
ENCODING 362
SWIDTH 1000 0
DWIDTH 10 0
BBX 13 10 -1 -2
BITMAP 
0000
01C0
0750
0C60
0C40
0C40
1880
0C80
0700
0000
ENDCHAR
STARTCHAR U+016B
ENCODING 363
SWIDTH 1000 0
DWIDTH 10 0
BBX 13 10 -1 -2
BITMAP 
0000
0000
01C0
0000
06C0
0640
0C80
0C80
07C0
0000
ENDCHAR
STARTCHAR U+016C
ENCODING 364
SWIDTH 1000 0
DWIDTH 10 0
BBX 13 10 -1 -2
BITMAP 
0000
0000
0730
0C60
0C40
0C40
1880
0C80
0700
0000
ENDCHAR
STARTCHAR U+016D
ENCODING 365
SWIDTH 1000 0
DWIDTH 10 0
BBX 13 10 -1 -2
BITMAP 
0000
0000
0180
0000
06C0
0640
0C80
0C80
07C0
0000
ENDCHAR
STARTCHAR U+016E
ENCODING 366
SWIDTH 1000 0
DWIDTH 10 0
BBX 13 10 -1 -2
BITMAP 
0000
00C0
0730
0CE0
0C40
0C40
1880
0C80
0700
0000
ENDCHAR
STARTCHAR U+016F
ENCODING 367
SWIDTH 1000 0
DWIDTH 10 0
BBX 13 10 -1 -2
BITMAP 
0000
0000
01C0
0100
06C0
0640
0C80
0C80
07C0
0000
ENDCHAR
STARTCHAR U+0170
ENCODING 368
SWIDTH 1000 0
DWIDTH 10 0
BBX 13 10 -1 -2
BITMAP 
0000
0100
0770
0C60
0C40
0C40
1880
0C80
0700
0000
ENDCHAR
STARTCHAR U+0171
ENCODING 369
SWIDTH 1000 0
DWIDTH 10 0
BBX 13 10 -1 -2
BITMAP 
0000
0000
01C0
0100
0EC0
0640
0C80
0C80
07C0
0000
ENDCHAR
STARTCHAR U+0179
ENCODING 377
SWIDTH 1000 0
DWIDTH 10 0
BBX 13 10 -1 -2
BITMAP 
0000
0000
03E0
04C0
0980
0300
0400
0840
1F80
0000
ENDCHAR
STARTCHAR U+017A
ENCODING 378
SWIDTH 1000 0
DWIDTH 10 0
BBX 13 10 -1 -2
BITMAP 
0000
0000
0180
0200
07C0
0180
0200
0400
0F80
0000
ENDCHAR
STARTCHAR U+017B
ENCODING 379
SWIDTH 1000 0
DWIDTH 10 0
BBX 13 10 -1 -2
BITMAP 
0000
0180
03E0
04C0
0980
0300
0400
0840
1F80
0000
ENDCHAR
STARTCHAR U+017C
ENCODING 380
SWIDTH 1000 0
DWIDTH 10 0
BBX 13 10 -1 -2
BITMAP 
0000
0000
0180
0000
07C0
0180
0200
0400
0F80
0000
ENDCHAR
STARTCHAR U+017D
ENCODING 381
SWIDTH 1000 0
DWIDTH 10 0
BBX 13 10 -1 -2
BITMAP 
0000
0000
03E0
04C0
0980
0300
0400
0840
1F80
0000
ENDCHAR
STARTCHAR U+017E
ENCODING 382
SWIDTH 1000 0
DWIDTH 10 0
BBX 13 10 -1 -2
BITMAP 
0000
0000
01C0
0100
07C0
0180
0200
0400
0F80
0000
ENDCHAR
STARTCHAR U+0193
ENCODING 403
SWIDTH 1000 0
DWIDTH 10 0
BBX 13 10 -1 -2
BITMAP 
0000
01D0
0220
0400
0800
08E0
1880
0880
0780
0000
ENDCHAR
STARTCHAR U+01C2
ENCODING 450
SWIDTH 1000 0
DWIDTH 10 0
BBX 13 10 -1 -2
BITMAP 
0000
0000
0080
0380
0100
0100
0700
0200
0200
0000
ENDCHAR
STARTCHAR U+01CD
ENCODING 461
SWIDTH 1000 0
DWIDTH 10 0
BBX 13 10 -1 -2
BITMAP 
0000
0000
01C0
0280
0480
07C0
0980
1080
38C0
0000
ENDCHAR
STARTCHAR U+01CE
ENCODING 462
SWIDTH 1000 0
DWIDTH 10 0
BBX 13 10 -1 -2
BITMAP 
0000
0000
01C0
0100
0780
00C0
0F80
1980
0F80
0000
ENDCHAR
STARTCHAR U+01D0
ENCODING 464
SWIDTH 1000 0
DWIDTH 10 0
BBX 13 10 -1 -2
BITMAP 
0000
0000
0380
0200
0700
0300
0600
0600
0600
0000
ENDCHAR
STARTCHAR U+01D1
ENCODING 465
SWIDTH 1000 0
DWIDTH 10 0
BBX 13 10 -1 -2
BITMAP 
0000
0000
0080
0300
0440
0860
10C0
18C0
0700
0000
ENDCHAR
STARTCHAR U+01D2
ENCODING 466
SWIDTH 1000 0
DWIDTH 10 0
BBX 13 10 -1 -2
BITMAP 
0000
0000
01C0
0100
0780
0C80
1880
1880
0F80
0000
ENDCHAR
STARTCHAR U+01D4
ENCODING 468
SWIDTH 1000 0
DWIDTH 10 0
BBX 13 10 -1 -2
BITMAP 
0000
0000
01C0
0100
06C0
0640
0C80
0C80
07C0
0000
ENDCHAR
STARTCHAR U+01D6
ENCODING 470
SWIDTH 1000 0
DWIDTH 10 0
BBX 13 10 -1 -2
BITMAP 
0000
01C0
0140
06C0
0000
06C0
0C80
0C80
07C0
0000
ENDCHAR
STARTCHAR U+01D8
ENCODING 472
SWIDTH 1000 0
DWIDTH 10 0
BBX 13 10 -1 -2
BITMAP 
0000
0000
01C0
06C0
0000
06C0
0C80
0C80
07C0
0000
ENDCHAR
STARTCHAR U+01DA
ENCODING 474
SWIDTH 1000 0
DWIDTH 10 0
BBX 13 10 -1 -2
BITMAP 
0000
0000
01C0
06C0
0000
06C0
0C80
0C80
07C0
0000
ENDCHAR
STARTCHAR U+01DC
ENCODING 476
SWIDTH 1000 0
DWIDTH 10 0
BBX 13 10 -1 -2
BITMAP 
0000
0100
01C0
06C0
0000
06C0
0C80
0C80
07C0
0000
ENDCHAR
STARTCHAR U+01F8
ENCODING 504
SWIDTH 1000 0
DWIDTH 10 0
BBX 13 10 -1 -2
BITMAP 
0000
0100
07F0
0E40
0B40
0BC0
1380
1180
1880
0000
ENDCHAR
STARTCHAR U+01F9
ENCODING 505
SWIDTH 1000 0
DWIDTH 10 0
BBX 13 10 -1 -2
BITMAP 
0000
0000
0000
0000
0500
0680
0C80
0C80
0CC0
0000
ENDCHAR
STARTCHAR U+01FD
ENCODING 509
SWIDTH 1000 0
DWIDTH 10 0
BBX 13 10 -1 -2
BITMAP 
0000
0000
0000
0000
0EC0
03A0
3FE0
3700
3DC0
0000
ENDCHAR
STARTCHAR U+0250
ENCODING 592
SWIDTH 1000 0
DWIDTH 10 0
BBX 13 10 -1 -2
BITMAP 
0000
0000
0000
0000
0580
0640
0D80
0F00
0700
0000
ENDCHAR
STARTCHAR U+0251
ENCODING 593
SWIDTH 1000 0
DWIDTH 10 0
BBX 13 10 -1 -2
BITMAP 
0000
0000
0000
0000
0700
0D40
1980
1980
0F80
0000
ENDCHAR
STARTCHAR U+0252
ENCODING 594
SWIDTH 1000 0
DWIDTH 10 0
BBX 13 10 -1 -2
BITMAP 
0000
0000
0000
0000
0B80
0CC0
1980
1980
1F00
0000
ENDCHAR
STARTCHAR U+0253
ENCODING 595
SWIDTH 1000 0
DWIDTH 10 0
BBX 13 10 -1 -2
BITMAP 
0000
00E0
0100
0600
0700
0680
0C80
0C80
0F80
0000
ENDCHAR
STARTCHAR U+0254
ENCODING 596
SWIDTH 1000 0
DWIDTH 10 0
BBX 13 10 -1 -2
BITMAP 
0000
0000
0000
0000
0780
00C0
0180
0180
1F00
0000
ENDCHAR
STARTCHAR U+0255
ENCODING 597
SWIDTH 1000 0
DWIDTH 10 0
BBX 13 10 -1 -2
BITMAP 
0000
0000
0000
0000
0780
0C00
1800
1F00
0F00
1000
ENDCHAR
STARTCHAR U+0256
ENCODING 598
SWIDTH 1000 0
DWIDTH 10 0
BBX 13 10 -1 -2
BITMAP 
0000
00E0
0060
00C0
07C0
0CC0
1980
1980
0F80
0180
ENDCHAR
STARTCHAR U+0257
ENCODING 599
SWIDTH 1000 0
DWIDTH 10 0
BBX 13 10 -1 -2
BITMAP 
0000
0070
0060
00C0
07C0
0CC0
1980
1980
0F80
0000
ENDCHAR
STARTCHAR U+0258
ENCODING 600
SWIDTH 1000 0
DWIDTH 10 0
BBX 13 10 -1 -2
BITMAP 
0000
0000
0000
0000
0780
0C40
0F80
0080
0F80
0000
ENDCHAR
STARTCHAR U+0259
ENCODING 601
SWIDTH 1000 0
DWIDTH 10 0
BBX 13 10 -1 -2
BITMAP 
0000
0000
0000
0000
0780
0040
0180
1F80
0F80
0000
ENDCHAR
STARTCHAR U+025A
ENCODING 602
SWIDTH 1000 0
DWIDTH 10 0
BBX 13 10 -1 -2
BITMAP 
0000
0000
0000
0000
07A0
00E0
0780
1980
0F00
0000
ENDCHAR
STARTCHAR U+025C
ENCODING 604
SWIDTH 1000 0
DWIDTH 10 0
BBX 13 10 -1 -2
BITMAP 
0000
0000
0000
0000
0780
0040
0380
0080
0F80
0000
ENDCHAR
STARTCHAR U+025E
ENCODING 606
SWIDTH 1000 0
DWIDTH 10 0
BBX 13 10 -1 -2
BITMAP 
0000
0000
0000
0000
0780
0840
1380
1080
0F80
0000
ENDCHAR
STARTCHAR U+025F
ENCODING 607
SWIDTH 1000 0
DWIDTH 10 0
BBX 13 10 -1 -2
BITMAP 
0000
0000
0000
0000
0780
0180
0300
0700
0600
3800
ENDCHAR
STARTCHAR U+0260
ENCODING 608
SWIDTH 1000 0
DWIDTH 10 0
BBX 13 10 -1 -2
BITMAP 
0000
0000
0000
0010
07C0
0C40
0480
0380
0180
1E00
ENDCHAR
STARTCHAR U+0261
ENCODING 609
SWIDTH 1000 0
DWIDTH 10 0
BBX 13 10 -1 -2
BITMAP 
0000
0000
0000
0000
0700
0C80
0480
0380
0180
1E00
ENDCHAR
STARTCHAR U+0264
ENCODING 612
SWIDTH 1000 0
DWIDTH 10 0
BBX 13 10 -1 -2
BITMAP 
0000
0000
0000
0CC0
0840
0480
0000
0600
0600
0000
ENDCHAR
STARTCHAR U+0265
ENCODING 613
SWIDTH 1000 0
DWIDTH 10 0
BBX 13 10 -1 -2
BITMAP 
0000
0330
0320
0640
0640
03C0
0080
0080
00C0
0000
ENDCHAR
STARTCHAR U+0266
ENCODING 614
SWIDTH 1000 0
DWIDTH 10 0
BBX 13 10 -1 -2
BITMAP 
0000
00E0
0100
0600
0700
0680
0C80
0C80
0CC0
0000
ENDCHAR
STARTCHAR U+0267
ENCODING 615
SWIDTH 1000 0
DWIDTH 10 0
BBX 13 10 -1 -2
BITMAP 
0000
00E0
0100
0600
0700
0680
0C80
0C80
0C80
0300
ENDCHAR
STARTCHAR U+0268
ENCODING 616
SWIDTH 1000 0
DWIDTH 10 0
BBX 13 10 -1 -2
BITMAP 
0000
0080
0080
0000
0700
0300
0F00
0600
0600
0000
ENDCHAR
STARTCHAR U+026C
ENCODING 620
SWIDTH 1000 0
DWIDTH 10 0
BBX 13 10 -1 -2
BITMAP 
0000
0180
0180
0300
0300
0300
0780
0600
0600
0000
ENDCHAR
STARTCHAR U+026D
ENCODING 621
SWIDTH 1000 0
DWIDTH 10 0
BBX 13 10 -1 -2
BITMAP 
0000
0180
0180
0300
0300
0300
0600
0600
0600
0700
ENDCHAR
STARTCHAR U+026E
ENCODING 622
SWIDTH 1000 0
DWIDTH 10 0
BBX 13 10 -1 -2
BITMAP 
0000
0600
0600
0C00
0FC0
0C80
1B00
1B80
1C80
1F00
ENDCHAR
STARTCHAR U+026F
ENCODING 623
SWIDTH 1000 0
DWIDTH 10 0
BBX 13 10 -1 -2
BITMAP 
0000
0000
0000
0000
0DB0
0DE0
1BC0
1BC0
0DE0
0000
ENDCHAR
STARTCHAR U+0270
ENCODING 624
SWIDTH 1000 0
DWIDTH 10 0
BBX 13 10 -1 -2
BITMAP 
0000
0000
0000
0000
0DB0
0DE0
1BC0
1BC0
0DC0
01C0
ENDCHAR
STARTCHAR U+0271
ENCODING 625
SWIDTH 1000 0
DWIDTH 10 0
BBX 13 10 -1 -2
BITMAP 
0000
0000
0000
0000
0B40
0DE0
1BC0
1BC0
1BC0
0100
ENDCHAR
STARTCHAR U+0272
ENCODING 626
SWIDTH 1000 0
DWIDTH 10 0
BBX 13 10 -1 -2
BITMAP 
0000
0000
0000
0000
0500
0680
0C80
0C80
0CC0
3000
ENDCHAR
STARTCHAR U+0273
ENCODING 627
SWIDTH 1000 0
DWIDTH 10 0
BBX 13 10 -1 -2
BITMAP 
0000
0000
0000
0000
0B80
0CC0
1980
1980
1980
0180
ENDCHAR
STARTCHAR U+0275
ENCODING 629
SWIDTH 1000 0
DWIDTH 10 0
BBX 13 10 -1 -2
BITMAP 
0000
0000
0000
0000
0780
0C40
1F80
1880
0F80
0000
ENDCHAR
STARTCHAR U+0279
ENCODING 633
SWIDTH 1000 0
DWIDTH 10 0
BBX 13 10 -1 -2
BITMAP 
0000
0000
0000
0000
0380
0180
0300
1300
1D00
0000
ENDCHAR
STARTCHAR U+027A
ENCODING 634
SWIDTH 1000 0
DWIDTH 10 0
BBX 13 10 -1 -2
BITMAP 
0000
01C0
00C0
0180
0180
0180
0300
1300
1D00
0000
ENDCHAR
STARTCHAR U+027B
ENCODING 635
SWIDTH 1000 0
DWIDTH 10 0
BBX 13 10 -1 -2
BITMAP 
0000
0000
0000
0000
0380
0180
0300
1300
1D00
0100
ENDCHAR
STARTCHAR U+027D
ENCODING 637
SWIDTH 1000 0
DWIDTH 10 0
BBX 13 10 -1 -2
BITMAP 
0000
0000
0000
0000
05C0
0640
0C00
0C00
0C00
0E00
ENDCHAR
STARTCHAR U+027E
ENCODING 638
SWIDTH 1000 0
DWIDTH 10 0
BBX 13 10 -1 -2
BITMAP 
0000
0000
0000
0000
0180
0380
0680
0600
0600
0000
ENDCHAR
STARTCHAR U+0281
ENCODING 641
SWIDTH 1000 0
DWIDTH 10 0
BBX 13 10 -1 -2
BITMAP 
0000
0000
0000
0640
06C0
07C0
0C80
0C80
0B80
0000
ENDCHAR
STARTCHAR U+0282
ENCODING 642
SWIDTH 1000 0
DWIDTH 10 0
BBX 13 10 -1 -2
BITMAP 
0000
0000
0000
03C0
0440
0700
0380
1F80
1800
1800
ENDCHAR
STARTCHAR U+0283
ENCODING 643
SWIDTH 1000 0
DWIDTH 10 0
BBX 13 10 -1 -2
BITMAP 
0000
00E0
01A0
0300
0300
0300
0600
0600
1600
3800
ENDCHAR
STARTCHAR U+0284
ENCODING 644
SWIDTH 1000 0
DWIDTH 10 0
BBX 13 10 -1 -2
BITMAP 
0000
0000
0000
00C0
0140
0300
0600
0600
0600
3800
ENDCHAR
STARTCHAR U+0288
ENCODING 648
SWIDTH 1000 0
DWIDTH 10 0
BBX 13 10 -1 -2
BITMAP 
0000
0000
0080
0300
0780
0300
0600
0600
0600
0700
ENDCHAR
STARTCHAR U+0289
ENCODING 649
SWIDTH 1000 0
DWIDTH 10 0
BBX 13 10 -1 -2
BITMAP 
0000
0000
0000
0000
06C0
0640
1FC0
0C80
07C0
0000
ENDCHAR
STARTCHAR U+028A
ENCODING 650
SWIDTH 1000 0
DWIDTH 10 0
BBX 13 10 -1 -2
BITMAP 
0000
0000
0000
0000
06C0
02C0
0480
1880
0F80
0000
ENDCHAR
STARTCHAR U+028B
ENCODING 651
SWIDTH 1000 0
DWIDTH 10 0
BBX 13 10 -1 -2
BITMAP 
0000
0000
0000
0000
06C0
0640
0C80
0C80
0700
0000
ENDCHAR
STARTCHAR U+028C
ENCODING 652
SWIDTH 1000 0
DWIDTH 10 0
BBX 13 10 -1 -2
BITMAP 
0000
0000
0000
0000
0200
0300
0700
0B00
1980
0000
ENDCHAR
STARTCHAR U+028D
ENCODING 653
SWIDTH 1000 0
DWIDTH 10 0
BBX 13 10 -1 -2
BITMAP 
0000
0000
0000
0000
0480
06C0
1D80
1EC0
36E0
0000
ENDCHAR
STARTCHAR U+028E
ENCODING 654
SWIDTH 1000 0
DWIDTH 10 0
BBX 13 10 -1 -2
BITMAP 
0000
0000
0030
00E0
0180
01C0
0380
0580
0CC0
0000
ENDCHAR
STARTCHAR U+0290
ENCODING 656
SWIDTH 1000 0
DWIDTH 10 0
BBX 13 10 -1 -2
BITMAP 
0000
0000
0000
0000
07C0
0180
0200
0400
0F80
0180
ENDCHAR
STARTCHAR U+0291
ENCODING 657
SWIDTH 1000 0
DWIDTH 10 0
BBX 13 10 -1 -2
BITMAP 
0000
0000
0000
0000
07C0
0080
0300
0780
0F80
0400
ENDCHAR
STARTCHAR U+0292
ENCODING 658
SWIDTH 1000 0
DWIDTH 10 0
BBX 13 10 -1 -2
BITMAP 
0000
0000
0000
0000
0780
0180
0600
1300
1180
3E00
ENDCHAR
STARTCHAR U+0294
ENCODING 660
SWIDTH 1000 0
DWIDTH 10 0
BBX 13 10 -1 -2
BITMAP 
0000
03C0
0440
0840
00C0
0380
0600
0600
0600
0000
ENDCHAR
STARTCHAR U+0295
ENCODING 661
SWIDTH 1000 0
DWIDTH 10 0
BBX 13 10 -1 -2
BITMAP 
0000
0380
0640
0840
0C00
0700
0600
0600
0600
0000
ENDCHAR
STARTCHAR U+0298
ENCODING 664
SWIDTH 1000 0
DWIDTH 10 0
BBX 13 10 -1 -2
BITMAP 
0000
0000
0080
0000
0040
0940
0A80
0880
0700
0000
ENDCHAR
STARTCHAR U+029D
ENCODING 669
SWIDTH 1000 0
DWIDTH 10 0
BBX 13 10 -1 -2
BITMAP 
0000
0080
0080
0000
0380
0180
0300
0F00
1E00
1800
ENDCHAR
STARTCHAR U+02A1
ENCODING 673
SWIDTH 1000 0
DWIDTH 10 0
BBX 13 10 -1 -2
BITMAP 
0000
03C0
0440
0840
00C0
0380
0600
0F00
0600
0000
ENDCHAR
STARTCHAR U+02A2
ENCODING 674
SWIDTH 1000 0
DWIDTH 10 0
BBX 13 10 -1 -2
BITMAP 
0000
0380
0640
0840
0C00
0700
0600
0F00
0600
0000
ENDCHAR
STARTCHAR U+02C7
ENCODING 711
SWIDTH 1000 0
DWIDTH 10 0
BBX 13 10 -1 -2
BITMAP 
0000
0000
0080
0000
0000
0000
0000
0000
0000
0000
ENDCHAR
STARTCHAR U+02C8
ENCODING 712
SWIDTH 1000 0
DWIDTH 10 0
BBX 13 10 -1 -2
BITMAP 
0000
0080
0080
0100
0000
0000
0000
0000
0000
0000
ENDCHAR
STARTCHAR U+02C9
ENCODING 713
SWIDTH 1000 0
DWIDTH 10 0
BBX 13 10 -1 -2
BITMAP 
0000
0000
0FF0
0000
0000
0000
0000
0000
0000
0000
ENDCHAR
STARTCHAR U+02CA
ENCODING 714
SWIDTH 1000 0
DWIDTH 10 0
BBX 13 10 -1 -2
BITMAP 
0000
0000
0000
0000
0100
0600
0800
0000
0000
0000
ENDCHAR
STARTCHAR U+02CB
ENCODING 715
SWIDTH 1000 0
DWIDTH 10 0
BBX 13 10 -1 -2
BITMAP 
0000
0000
0000
0600
0300
0100
0100
0000
0000
0000
ENDCHAR
STARTCHAR U+02CC
ENCODING 716
SWIDTH 1000 0
DWIDTH 10 0
BBX 13 10 -1 -2
BITMAP 
0000
0000
0000
0000
0000
0000
0000
0200
0200
0400
ENDCHAR
STARTCHAR U+02D0
ENCODING 720
SWIDTH 1000 0
DWIDTH 10 0
BBX 13 10 -1 -2
BITMAP 
0000
0000
0000
0380
0380
0100
0000
0200
0700
0000
ENDCHAR
STARTCHAR U+02D1
ENCODING 721
SWIDTH 1000 0
DWIDTH 10 0
BBX 13 10 -1 -2
BITMAP 
0000
0000
0000
0380
0380
0100
0000
0000
0000
0000
ENDCHAR
STARTCHAR U+02D8
ENCODING 728
SWIDTH 1000 0
DWIDTH 10 0
BBX 13 10 -1 -2
BITMAP 
0000
0220
01E0
0000
0000
0000
0000
0000
0000
0000
ENDCHAR
STARTCHAR U+02D9
ENCODING 729
SWIDTH 1000 0
DWIDTH 10 0
BBX 13 10 -1 -2
BITMAP 
0000
0180
0000
0000
0000
0000
0000
0000
0000
0000
ENDCHAR
STARTCHAR U+02DA
ENCODING 730
SWIDTH 1000 0
DWIDTH 10 0
BBX 13 10 -1 -2
BITMAP 
00C0
0120
00C0
0000
0000
0000
0000
0000
0000
0000
ENDCHAR
STARTCHAR U+02DB
ENCODING 731
SWIDTH 1000 0
DWIDTH 10 0
BBX 13 10 -1 -2
BITMAP 
0000
0000
0000
0000
0000
0000
0000
0100
0100
0100
ENDCHAR
STARTCHAR U+02DD
ENCODING 733
SWIDTH 1000 0
DWIDTH 10 0
BBX 13 10 -1 -2
BITMAP 
0000
0080
0180
0000
0000
0000
0000
0000
0000
0000
ENDCHAR
STARTCHAR U+02DE
ENCODING 734
SWIDTH 1000 0
DWIDTH 10 0
BBX 13 10 -1 -2
BITMAP 
0000
0000
0000
0000
0380
00C0
0180
0000
0000
0000
ENDCHAR
STARTCHAR U+02E5
ENCODING 741
SWIDTH 1000 0
DWIDTH 10 0
BBX 13 10 -1 -2
BITMAP 
1F80
0080
0080
0100
0100
0100
0200
0200
0200
0400
ENDCHAR
STARTCHAR U+02E6
ENCODING 742
SWIDTH 1000 0
DWIDTH 10 0
BBX 13 10 -1 -2
BITMAP 
0080
0080
1F80
0100
0100
0100
0200
0200
0200
0400
ENDCHAR
STARTCHAR U+02E7
ENCODING 743
SWIDTH 1000 0
DWIDTH 10 0
BBX 13 10 -1 -2
BITMAP 
0080
0080
0080
0100
0100
3F00
0200
0200
0200
0400
ENDCHAR
STARTCHAR U+02E8
ENCODING 744
SWIDTH 1000 0
DWIDTH 10 0
BBX 13 10 -1 -2
BITMAP 
0080
0080
0080
0100
0100
0100
0200
7E00
0200
0400
ENDCHAR
STARTCHAR U+02E9
ENCODING 745
SWIDTH 1000 0
DWIDTH 10 0
BBX 13 10 -1 -2
BITMAP 
0080
0080
0080
0100
0100
0100
0200
0200
0200
FC00
ENDCHAR
STARTCHAR U+0300
ENCODING 768
SWIDTH 1000 0
DWIDTH 10 0
BBX 13 10 -1 -2
BITMAP 
0000
0100
0080
0000
0000
0000
0000
0000
0000
0000
ENDCHAR
STARTCHAR U+0301
ENCODING 769
SWIDTH 1000 0
DWIDTH 10 0
BBX 13 10 -1 -2
BITMAP 
0000
0000
0000
0000
0000
0000
0000
0000
0000
0000
ENDCHAR
STARTCHAR U+0302
ENCODING 770
SWIDTH 1000 0
DWIDTH 10 0
BBX 13 10 -1 -2
BITMAP 
0000
0080
0140
0000
0000
0000
0000
0000
0000
0000
ENDCHAR
STARTCHAR U+0303
ENCODING 771
SWIDTH 1000 0
DWIDTH 10 0
BBX 13 10 -1 -2
BITMAP 
0000
0300
0080
0000
0000
0000
0000
0000
0000
0000
ENDCHAR
STARTCHAR U+0304
ENCODING 772
SWIDTH 1000 0
DWIDTH 10 0
BBX 13 10 -1 -2
BITMAP 
0000
0180
0000
0000
0000
0000
0000
0000
0000
0000
ENDCHAR
STARTCHAR U+0306
ENCODING 774
SWIDTH 1000 0
DWIDTH 10 0
BBX 13 10 -1 -2
BITMAP 
0000
0220
01C0
0000
0000
0000
0000
0000
0000
0000
ENDCHAR
STARTCHAR U+0308
ENCODING 776
SWIDTH 1000 0
DWIDTH 10 0
BBX 13 10 -1 -2
BITMAP 
0000
0360
0140
0000
0000
0000
0000
0000
0000
0000
ENDCHAR
STARTCHAR U+030B
ENCODING 779
SWIDTH 1000 0
DWIDTH 10 0
BBX 13 10 -1 -2
BITMAP 
0000
0100
0280
0000
0000
0000
0000
0000
0000
0000
ENDCHAR
STARTCHAR U+030C
ENCODING 780
SWIDTH 1000 0
DWIDTH 10 0
BBX 13 10 -1 -2
BITMAP 
0000
0000
0080
0000
0000
0000
0000
0000
0000
0000
ENDCHAR
STARTCHAR U+030F
ENCODING 783
SWIDTH 1000 0
DWIDTH 10 0
BBX 13 10 -1 -2
BITMAP 
0000
0080
0140
0000
0000
0000
0000
0000
0000
0000
ENDCHAR
STARTCHAR U+0318
ENCODING 792
SWIDTH 1000 0
DWIDTH 10 0
BBX 13 10 -1 -2
BITMAP 
0000
0000
0000
0000
0000
0000
0200
0600
0200
0400
ENDCHAR
STARTCHAR U+0319
ENCODING 793
SWIDTH 1000 0
DWIDTH 10 0
BBX 13 10 -1 -2
BITMAP 
0000
0000
0000
0000
0000
0000
0200
0300
0200
0400
ENDCHAR
STARTCHAR U+031A
ENCODING 794
SWIDTH 1000 0
DWIDTH 10 0
BBX 13 10 -1 -2
BITMAP 
0000
0060
0020
0000
0000
0000
0000
0000
0000
0000
ENDCHAR
STARTCHAR U+031C
ENCODING 796
SWIDTH 1000 0
DWIDTH 10 0
BBX 13 10 -1 -2
BITMAP 
0000
0000
0000
0000
0000
0000
0000
0200
0400
0200
ENDCHAR
STARTCHAR U+031D
ENCODING 797
SWIDTH 1000 0
DWIDTH 10 0
BBX 13 10 -1 -2
BITMAP 
0000
0000
0000
0000
0000
0000
0200
0700
0000
0000
ENDCHAR
STARTCHAR U+031E
ENCODING 798
SWIDTH 1000 0
DWIDTH 10 0
BBX 13 10 -1 -2
BITMAP 
0000
0000
0000
0000
0000
0000
0000
0700
0200
0400
ENDCHAR
STARTCHAR U+031F
ENCODING 799
SWIDTH 1000 0
DWIDTH 10 0
BBX 13 10 -1 -2
BITMAP 
0000
0000
0000
0000
0000
0000
0000
0000
0700
0400
ENDCHAR
STARTCHAR U+0320
ENCODING 800
SWIDTH 1000 0
DWIDTH 10 0
BBX 13 10 -1 -2
BITMAP 
0000
0000
0000
0000
0000
0000
0000
0000
0700
0000
ENDCHAR
STARTCHAR U+0324
ENCODING 804
SWIDTH 1000 0
DWIDTH 10 0
BBX 13 10 -1 -2
BITMAP 
0000
0000
0000
0000
0000
0000
0000
0000
0500
1B00
ENDCHAR
STARTCHAR U+0325
ENCODING 805
SWIDTH 1000 0
DWIDTH 10 0
BBX 13 10 -1 -2
BITMAP 
0000
0000
0000
0000
0000
0000
0000
0600
0B00
0400
ENDCHAR
STARTCHAR U+0329
ENCODING 809
SWIDTH 1000 0
DWIDTH 10 0
BBX 13 10 -1 -2
BITMAP 
0000
0000
0000
0000
0000
0000
0000
0000
0200
0400
ENDCHAR
STARTCHAR U+032A
ENCODING 810
SWIDTH 1000 0
DWIDTH 10 0
BBX 13 10 -1 -2
BITMAP 
0000
0000
0000
0000
0000
0000
0000
0700
0900
1100
ENDCHAR
STARTCHAR U+032C
ENCODING 812
SWIDTH 1000 0
DWIDTH 10 0
BBX 13 10 -1 -2
BITMAP 
0000
0000
0000
0000
0000
0000
0000
0000
0980
0600
ENDCHAR
STARTCHAR U+032F
ENCODING 815
SWIDTH 1000 0
DWIDTH 10 0
BBX 13 10 -1 -2
BITMAP 
0000
0000
0000
0000
0000
0000
0000
0200
0000
1100
ENDCHAR
STARTCHAR U+0330
ENCODING 816
SWIDTH 1000 0
DWIDTH 10 0
BBX 13 10 -1 -2
BITMAP 
0000
0000
0000
0000
0000
0000
0000
0000
0400
0200
ENDCHAR
STARTCHAR U+0334
ENCODING 820
SWIDTH 1000 0
DWIDTH 10 0
BBX 13 10 -1 -2
BITMAP 
0000
0000
0000
0000
0000
0400
0200
0000
0000
0000
ENDCHAR
STARTCHAR U+0339
ENCODING 825
SWIDTH 1000 0
DWIDTH 10 0
BBX 13 10 -1 -2
BITMAP 
0000
0000
0000
0000
0000
0000
0000
0200
0000
0600
ENDCHAR
STARTCHAR U+033A
ENCODING 826
SWIDTH 1000 0
DWIDTH 10 0
BBX 13 10 -1 -2
BITMAP 
0000
0000
0000
0000
0000
0000
0000
0000
0880
1F00
ENDCHAR
STARTCHAR U+033B
ENCODING 827
SWIDTH 1000 0
DWIDTH 10 0
BBX 13 10 -1 -2
BITMAP 
0000
0000
0000
0000
0000
0000
0000
0F80
0880
1F00
ENDCHAR
STARTCHAR U+033C
ENCODING 828
SWIDTH 1000 0
DWIDTH 10 0
BBX 13 10 -1 -2
BITMAP 
0000
0000
0000
0000
0000
0000
0000
0000
0500
0700
ENDCHAR
STARTCHAR U+033D
ENCODING 829
SWIDTH 1000 0
DWIDTH 10 0
BBX 13 10 -1 -2
BITMAP 
0000
0140
01C0
0000
0000
0000
0000
0000
0000
0000
ENDCHAR
STARTCHAR U+0361
ENCODING 865
SWIDTH 1000 0
DWIDTH 10 0
BBX 13 10 -1 -2
BITMAP 
0000
03E0
0410
0000
0000
0000
0000
0000
0000
0000
ENDCHAR
STARTCHAR U+0391
ENCODING 913
SWIDTH 1000 0
DWIDTH 10 0
BBX 13 10 -1 -2
BITMAP 
0000
0080
0080
0380
0480
07C0
0980
1080
38C0
0000
ENDCHAR
STARTCHAR U+0392
ENCODING 914
SWIDTH 1000 0
DWIDTH 10 0
BBX 13 10 -1 -2
BITMAP 
0000
0780
0640
0C40
0FC0
0C40
18C0
18C0
1F80
0000
ENDCHAR
STARTCHAR U+0393
ENCODING 915
SWIDTH 1000 0
DWIDTH 10 0
BBX 13 10 -1 -2
BITMAP 
0000
03E0
0310
0600
0600
0600
0C00
0C00
0E00
0000
ENDCHAR
STARTCHAR U+0394
ENCODING 916
SWIDTH 1000 0
DWIDTH 10 0
BBX 13 10 -1 -2
BITMAP 
0000
0080
0080
0380
0480
04C0
0980
1080
1FC0
0000
ENDCHAR
STARTCHAR U+0395
ENCODING 917
SWIDTH 1000 0
DWIDTH 10 0
BBX 13 10 -1 -2
BITMAP 
0000
07E0
0610
0C00
0FC0
0C00
1800
1840
1F80
0000
ENDCHAR
STARTCHAR U+0396
ENCODING 918
SWIDTH 1000 0
DWIDTH 10 0
BBX 13 10 -1 -2
BITMAP 
0000
07E0
0460
0180
0180
0300
0400
0840
1F80
0000
ENDCHAR
STARTCHAR U+0397
ENCODING 919
SWIDTH 1000 0
DWIDTH 10 0
BBX 13 10 -1 -2
BITMAP 
0000
0630
0620
0C40
0FC0
0C40
1880
1880
18C0
0000
ENDCHAR
STARTCHAR U+0398
ENCODING 920
SWIDTH 1000 0
DWIDTH 10 0
BBX 13 10 -1 -2
BITMAP 
0000
01C0
0240
0660
0BE0
0AE0
0CC0
0880
0700
0000
ENDCHAR
STARTCHAR U+0399
ENCODING 921
SWIDTH 1000 0
DWIDTH 10 0
BBX 13 10 -1 -2
BITMAP 
0000
0180
0180
0300
0300
0300
0600
0600
0600
0000
ENDCHAR
STARTCHAR U+039A
ENCODING 922
SWIDTH 1000 0
DWIDTH 10 0
BBX 13 10 -1 -2
BITMAP 
0000
0CE0
04C0
0900
0B80
0F80
1980
1180
31C0
0000
ENDCHAR
STARTCHAR U+039B
ENCODING 923
SWIDTH 1000 0
DWIDTH 10 0
BBX 13 10 -1 -2
BITMAP 
0000
0080
0080
0380
0480
04C0
0980
1080
18C0
0000
ENDCHAR
STARTCHAR U+039C
ENCODING 924
SWIDTH 1000 0
DWIDTH 10 0
BBX 13 10 -1 -2
BITMAP 
0000
0C30
0420
0CC0
0CC0
0D40
1680
1480
30C0
0000
ENDCHAR
STARTCHAR U+039D
ENCODING 925
SWIDTH 1000 0
DWIDTH 10 0
BBX 13 10 -1 -2
BITMAP 
0000
0630
0720
0F40
0B40
09C0
1380
1180
1880
0000
ENDCHAR
STARTCHAR U+039E
ENCODING 926
SWIDTH 1000 0
DWIDTH 10 0
BBX 13 10 -1 -2
BITMAP 
0000
07F0
07E0
0000
0780
0780
0000
1FC0
1F80
0000
ENDCHAR
STARTCHAR U+039F
ENCODING 927
SWIDTH 1000 0
DWIDTH 10 0
BBX 13 10 -1 -2
BITMAP 
0000
01C0
0240
0460
0860
0860
18C0
0880
0700
0000
ENDCHAR
STARTCHAR U+03A0
ENCODING 928
SWIDTH 1000 0
DWIDTH 10 0
BBX 13 10 -1 -2
BITMAP 
0000
07F0
0620
0C40
0C40
0C40
1880
1880
1DC0
0000
ENDCHAR
STARTCHAR U+03A1
ENCODING 929
SWIDTH 1000 0
DWIDTH 10 0
BBX 13 10 -1 -2
BITMAP 
0000
07E0
0630
0C60
0C40
0F80
1800
1800
1C00
0000
ENDCHAR
STARTCHAR U+03A3
ENCODING 931
SWIDTH 1000 0
DWIDTH 10 0
BBX 13 10 -1 -2
BITMAP 
0000
07E0
0310
0300
0180
0180
0600
0C40
1F80
0000
ENDCHAR
STARTCHAR U+03A4
ENCODING 932
SWIDTH 1000 0
DWIDTH 10 0
BBX 13 10 -1 -2
BITMAP 
0000
07E0
0990
0300
0300
0300
0600
0600
0600
0000
ENDCHAR
STARTCHAR U+03A5
ENCODING 933
SWIDTH 1000 0
DWIDTH 10 0
BBX 13 10 -1 -2
BITMAP 
0000
0660
0FE0
1320
0300
0300
0600
0600
0600
0000
ENDCHAR
STARTCHAR U+03A6
ENCODING 934
SWIDTH 1000 0
DWIDTH 10 0
BBX 13 10 -1 -2
BITMAP 
0000
03C0
07C0
0B40
1B60
1BA0
0E80
0F00
0F00
0000
ENDCHAR
STARTCHAR U+03A7
ENCODING 935
SWIDTH 1000 0
DWIDTH 10 0
BBX 13 10 -1 -2
BITMAP 
0000
0630
0340
0740
0380
0580
0580
0980
18C0
0000
ENDCHAR
STARTCHAR U+03A8
ENCODING 936
SWIDTH 1000 0
DWIDTH 10 0
BBX 13 10 -1 -2
BITMAP 
0000
03C0
0990
1B20
0B40
0B40
0600
0600
0F00
0000
ENDCHAR
STARTCHAR U+03A9
ENCODING 937
SWIDTH 1000 0
DWIDTH 10 0
BBX 13 10 -1 -2
BITMAP 
0000
01C0
0240
0460
0860
0860
0880
0500
1DC0
0000
ENDCHAR
STARTCHAR U+03B1
ENCODING 945
SWIDTH 1000 0
DWIDTH 10 0
BBX 13 10 -1 -2
BITMAP 
0000
0000
0000
0000
0380
0440
0800
1300
0C80
0000
ENDCHAR
STARTCHAR U+03B2
ENCODING 946
SWIDTH 1000 0
DWIDTH 10 0
BBX 13 10 -1 -2
BITMAP 
0000
0060
0020
0240
05C0
0440
0880
1C80
1380
2000
ENDCHAR
STARTCHAR U+03B3
ENCODING 947
SWIDTH 1000 0
DWIDTH 10 0
BBX 13 10 -1 -2
BITMAP 
0000
0000
0000
0000
0640
0380
0200
0600
0400
0000
ENDCHAR
STARTCHAR U+03B4
ENCODING 948
SWIDTH 1000 0
DWIDTH 10 0
BBX 13 10 -1 -2
BITMAP 
0000
01C0
0140
0140
0380
0480
0880
1100
0E00
0000
ENDCHAR
STARTCHAR U+03B5
ENCODING 949
SWIDTH 1000 0
DWIDTH 10 0
BBX 13 10 -1 -2
BITMAP 
0000
0000
0000
0000
0380
0400
0600
1800
0F00
0000
ENDCHAR
STARTCHAR U+03B6
ENCODING 950
SWIDTH 1000 0
DWIDTH 10 0
BBX 13 10 -1 -2
BITMAP 
0000
0260
03C0
0200
0400
0800
0000
0600
0300
0C00
ENDCHAR
STARTCHAR U+03B7
ENCODING 951
SWIDTH 1000 0
DWIDTH 10 0
BBX 13 10 -1 -2
BITMAP 
0000
0000
0000
0000
0480
0580
0480
0880
0880
0100
ENDCHAR
STARTCHAR U+03B8
ENCODING 952
SWIDTH 1000 0
DWIDTH 10 0
BBX 13 10 -1 -2
BITMAP 
0000
0060
0020
0040
07C0
0840
1000
1200
0C00
0000
ENDCHAR
STARTCHAR U+03B9
ENCODING 953
SWIDTH 1000 0
DWIDTH 10 0
BBX 13 10 -1 -2
BITMAP 
0000
0000
0000
0000
0200
0400
0800
1200
0C00
0000
ENDCHAR
STARTCHAR U+03BA
ENCODING 954
SWIDTH 1000 0
DWIDTH 10 0
BBX 13 10 -1 -2
BITMAP 
0000
0000
0000
0000
0480
0B00
0C00
1200
1180
0000
ENDCHAR
STARTCHAR U+03BB
ENCODING 955
SWIDTH 1000 0
DWIDTH 10 0
BBX 13 10 -1 -2
BITMAP 
0000
0100
0080
0080
0180
0280
0500
0900
1080
0000
ENDCHAR
STARTCHAR U+03BC
ENCODING 956
SWIDTH 1000 0
DWIDTH 10 0
BBX 13 10 -1 -2
BITMAP 
0000
0000
0000
0000
0400
0400
0900
1300
1C80
2000
ENDCHAR
STARTCHAR U+03BD
ENCODING 957
SWIDTH 1000 0
DWIDTH 10 0
BBX 13 10 -1 -2
BITMAP 
0000
0000
0000
0000
0000
0440
0800
0E00
1800
0000
ENDCHAR
STARTCHAR U+03BE
ENCODING 958
SWIDTH 1000 0
DWIDTH 10 0
BBX 13 10 -1 -2
BITMAP 
0000
0180
01C0
0000
0600
0980
0000
0400
0000
1C00
ENDCHAR
STARTCHAR U+03BF
ENCODING 959
SWIDTH 1000 0
DWIDTH 10 0
BBX 13 10 -1 -2
BITMAP 
0000
0000
0000
0000
0300
0480
0880
1100
0E00
0000
ENDCHAR
STARTCHAR U+03C0
ENCODING 960
SWIDTH 1000 0
DWIDTH 10 0
BBX 13 10 -1 -2
BITMAP 
0000
0000
0000
0200
03C0
0480
0500
0900
1080
0000
ENDCHAR
STARTCHAR U+03C1
ENCODING 961
SWIDTH 1000 0
DWIDTH 10 0
BBX 13 10 -1 -2
BITMAP 
0000
0000
0000
0000
0100
0280
0480
0C80
1300
2000
ENDCHAR
STARTCHAR U+03C2
ENCODING 962
SWIDTH 1000 0
DWIDTH 10 0
BBX 13 10 -1 -2
BITMAP 
0000
0000
0000
0380
0440
0840
0080
0400
0600
1800
ENDCHAR
STARTCHAR U+03C3
ENCODING 963
SWIDTH 1000 0
DWIDTH 10 0
BBX 13 10 -1 -2
BITMAP 
0000
0000
0000
00C0
0380
0480
0880
1100
0E00
0000
ENDCHAR
STARTCHAR U+03C4
ENCODING 964
SWIDTH 1000 0
DWIDTH 10 0
BBX 13 10 -1 -2
BITMAP 
0000
0000
0000
0200
01C0
0200
0400
0900
0600
0000
ENDCHAR
STARTCHAR U+03C5
ENCODING 965
SWIDTH 1000 0
DWIDTH 10 0
BBX 13 10 -1 -2
BITMAP 
0000
0000
0000
0000
0400
0440
0880
1100
0E00
0000
ENDCHAR
STARTCHAR U+03C6
ENCODING 966
SWIDTH 1000 0
DWIDTH 10 0
BBX 13 10 -1 -2
BITMAP 
0000
0000
0000
0080
0380
0D80
1280
0F00
0400
0800
ENDCHAR
STARTCHAR U+03C7
ENCODING 967
SWIDTH 1000 0
DWIDTH 10 0
BBX 13 10 -1 -2
BITMAP 
0000
0000
0000
0000
0400
0200
0200
0600
0200
2200
ENDCHAR
STARTCHAR U+03C8
ENCODING 968
SWIDTH 1000 0
DWIDTH 10 0
BBX 13 10 -1 -2
BITMAP 
0000
0000
0020
0040
0C80
0980
1280
0F00
0400
0800
ENDCHAR
STARTCHAR U+03C9
ENCODING 969
SWIDTH 1000 0
DWIDTH 10 0
BBX 13 10 -1 -2
BITMAP 
0000
0000
0000
0000
0400
0920
1240
1240
1980
0000
ENDCHAR
STARTCHAR U+0401
ENCODING 1025
SWIDTH 1000 0
DWIDTH 10 0
BBX 13 10 -1 -2
BITMAP 
0000
0660
07E0
0C20
0C00
0FC0
1800
1840
1F80
0000
ENDCHAR
STARTCHAR U+0410
ENCODING 1040
SWIDTH 1000 0
DWIDTH 10 0
BBX 13 10 -1 -2
BITMAP 
0000
0080
0080
0380
0480
07C0
0980
1080
38C0
0000
ENDCHAR
STARTCHAR U+0411
ENCODING 1041
SWIDTH 1000 0
DWIDTH 10 0
BBX 13 10 -1 -2
BITMAP 
0000
07E0
0610
0C00
0F80
0C80
18C0
18C0
1F80
0000
ENDCHAR
STARTCHAR U+0412
ENCODING 1042
SWIDTH 1000 0
DWIDTH 10 0
BBX 13 10 -1 -2
BITMAP 
0000
0780
0640
0C40
0FC0
0C40
18C0
18C0
1F80
0000
ENDCHAR
STARTCHAR U+0413
ENCODING 1043
SWIDTH 1000 0
DWIDTH 10 0
BBX 13 10 -1 -2
BITMAP 
0000
03E0
0310
0600
0600
0600
0C00
0C00
0E00
0000
ENDCHAR
STARTCHAR U+0414
ENCODING 1044
SWIDTH 1000 0
DWIDTH 10 0
BBX 13 10 -1 -2
BITMAP 
0000
01F0
0120
0240
0240
0440
0480
0880
1F80
2080
ENDCHAR
STARTCHAR U+0415
ENCODING 1045
SWIDTH 1000 0
DWIDTH 10 0
BBX 13 10 -1 -2
BITMAP 
0000
07E0
0610
0C00
0FC0
0C00
1800
1840
1F80
0000
ENDCHAR
STARTCHAR U+0416
ENCODING 1046
SWIDTH 1000 0
DWIDTH 10 0
BBX 13 10 -1 -2
BITMAP 
0000
0DB0
05C0
0740
0780
0780
0E80
1680
36C0
0000
ENDCHAR
STARTCHAR U+0417
ENCODING 1047
SWIDTH 1000 0
DWIDTH 10 0
BBX 13 10 -1 -2
BITMAP 
0000
01C0
0640
0040
0300
0080
0080
1180
0E00
0000
ENDCHAR
STARTCHAR U+0418
ENCODING 1048
SWIDTH 1000 0
DWIDTH 10 0
BBX 13 10 -1 -2
BITMAP 
0000
0630
0660
0CC0
0D40
0E40
1A80
1C80
18C0
0000
ENDCHAR
STARTCHAR U+0419
ENCODING 1049
SWIDTH 1000 0
DWIDTH 10 0
BBX 13 10 -1 -2
BITMAP 
0000
0360
0770
0C60
0CC0
0D40
1A80
1C80
18C0
0000
ENDCHAR
STARTCHAR U+041A
ENCODING 1050
SWIDTH 1000 0
DWIDTH 10 0
BBX 13 10 -1 -2
BITMAP 
0000
0C30
04F0
0900
0B80
0F80
1980
1180
31C0
0000
ENDCHAR
STARTCHAR U+041B
ENCODING 1051
SWIDTH 1000 0
DWIDTH 10 0
BBX 13 10 -1 -2
BITMAP 
0000
01F0
0120
0240
0240
0240
0480
3880
30C0
0000
ENDCHAR
STARTCHAR U+041C
ENCODING 1052
SWIDTH 1000 0
DWIDTH 10 0
BBX 13 10 -1 -2
BITMAP 
0000
0660
0660
0EC0
0FC0
0B40
1680
1080
30C0
0000
ENDCHAR
STARTCHAR U+041D
ENCODING 1053
SWIDTH 1000 0
DWIDTH 10 0
BBX 13 10 -1 -2
BITMAP 
0000
0630
0620
0C40
0FC0
0C40
1880
1880
18C0
0000
ENDCHAR
STARTCHAR U+041E
ENCODING 1054
SWIDTH 1000 0
DWIDTH 10 0
BBX 13 10 -1 -2
BITMAP 
0000
01C0
0240
0460
0860
0860
18C0
0880
0700
0000
ENDCHAR
STARTCHAR U+041F
ENCODING 1055
SWIDTH 1000 0
DWIDTH 10 0
BBX 13 10 -1 -2
BITMAP 
0000
07F0
0620
0C40
0C40
0C40
1880
1880
1DC0
0000
ENDCHAR
STARTCHAR U+0420
ENCODING 1056
SWIDTH 1000 0
DWIDTH 10 0
BBX 13 10 -1 -2
BITMAP 
0000
07E0
0630
0C60
0C40
0F80
1800
1800
1C00
0000
ENDCHAR
STARTCHAR U+0421
ENCODING 1057
SWIDTH 1000 0
DWIDTH 10 0
BBX 13 10 -1 -2
BITMAP 
0000
01E0
0220
0440
0800
0800
1800
0880
0700
0000
ENDCHAR
STARTCHAR U+0422
ENCODING 1058
SWIDTH 1000 0
DWIDTH 10 0
BBX 13 10 -1 -2
BITMAP 
0000
07E0
0990
0300
0300
0300
0600
0600
0600
0000
ENDCHAR
STARTCHAR U+0423
ENCODING 1059
SWIDTH 1000 0
DWIDTH 10 0
BBX 13 10 -1 -2
BITMAP 
0000
0630
0720
0640
0340
0300
0300
0200
0C00
3800
ENDCHAR
STARTCHAR U+0424
ENCODING 1060
SWIDTH 1000 0
DWIDTH 10 0
BBX 13 10 -1 -2
BITMAP 
0000
03C0
07C0
0B40
1B60
1BA0
0E80
0F00
0F00
0000
ENDCHAR
STARTCHAR U+0425
ENCODING 1061
SWIDTH 1000 0
DWIDTH 10 0
BBX 13 10 -1 -2
BITMAP 
0000
0630
0340
0740
0380
0580
0580
0980
18C0
0000
ENDCHAR
STARTCHAR U+0426
ENCODING 1062
SWIDTH 1000 0
DWIDTH 10 0
BBX 13 10 -1 -2
BITMAP 
0000
0670
0620
0C40
0C40
0C40
1880
1880
1F80
0080
ENDCHAR
STARTCHAR U+0427
ENCODING 1063
SWIDTH 1000 0
DWIDTH 10 0
BBX 13 10 -1 -2
BITMAP 
0000
0630
0620
0C40
0C40
07C0
0080
0080
01C0
0000
ENDCHAR
STARTCHAR U+0428
ENCODING 1064
SWIDTH 1000 0
DWIDTH 10 0
BBX 13 10 -1 -2
BITMAP 
0000
0DB0
05A0
0B40
0B40
0B40
1680
1680
3FC0
0000
ENDCHAR
STARTCHAR U+0429
ENCODING 1065
SWIDTH 1000 0
DWIDTH 10 0
BBX 13 10 -1 -2
BITMAP 
0000
0DB0
05A0
0B40
0B40
0B40
1680
1680
3F80
0080
ENDCHAR
STARTCHAR U+042A
ENCODING 1066
SWIDTH 1000 0
DWIDTH 10 0
BBX 13 10 -1 -2
BITMAP 
0000
0780
0B00
0600
07C0
0660
0CC0
0CC0
0FC0
0000
ENDCHAR
STARTCHAR U+042B
ENCODING 1067
SWIDTH 1000 0
DWIDTH 10 0
BBX 13 10 -1 -2
BITMAP 
0000
0C30
0420
0840
0F40
09C0
1380
1380
3FC0
0000
ENDCHAR
STARTCHAR U+042C
ENCODING 1068
SWIDTH 1000 0
DWIDTH 10 0
BBX 13 10 -1 -2
BITMAP 
0000
0700
0600
0C00
0F00
0C80
1880
1880
1F80
0000
ENDCHAR
STARTCHAR U+042D
ENCODING 1069
SWIDTH 1000 0
DWIDTH 10 0
BBX 13 10 -1 -2
BITMAP 
0000
01C0
0640
0060
0360
04E0
00C0
1880
0700
0000
ENDCHAR
STARTCHAR U+042E
ENCODING 1070
SWIDTH 1000 0
DWIDTH 10 0
BBX 13 10 -1 -2
BITMAP 
0000
0C60
04B0
0B60
0B60
0F60
16C0
12C0
3180
0000
ENDCHAR
STARTCHAR U+042F
ENCODING 1071
SWIDTH 1000 0
DWIDTH 10 0
BBX 13 10 -1 -2
BITMAP 
0000
03F0
0620
0840
0C40
07C0
0C80
0880
11C0
0000
ENDCHAR
STARTCHAR U+0430
ENCODING 1072
SWIDTH 1000 0
DWIDTH 10 0
BBX 13 10 -1 -2
BITMAP 
0000
0000
0000
0000
0780
0040
0F80
1880
0F80
0000
ENDCHAR
STARTCHAR U+0431
ENCODING 1073
SWIDTH 1000 0
DWIDTH 10 0
BBX 13 10 -1 -2
BITMAP 
0000
0000
0180
0200
0700
0C80
1880
0880
0700
0000
ENDCHAR
STARTCHAR U+0432
ENCODING 1074
SWIDTH 1000 0
DWIDTH 10 0
BBX 13 10 -1 -2
BITMAP 
0000
0000
0000
0000
0780
0640
0F80
0C80
0F80
0000
ENDCHAR
STARTCHAR U+0433
ENCODING 1075
SWIDTH 1000 0
DWIDTH 10 0
BBX 13 10 -1 -2
BITMAP 
0000
0000
0000
0000
0780
0600
0C00
0C00
0E00
0000
ENDCHAR
STARTCHAR U+0434
ENCODING 1076
SWIDTH 1000 0
DWIDTH 10 0
BBX 13 10 -1 -2
BITMAP 
0000
0000
0000
0000
07C0
02C0
0580
0580
1F80
2100
ENDCHAR
STARTCHAR U+0435
ENCODING 1077
SWIDTH 1000 0
DWIDTH 10 0
BBX 13 10 -1 -2
BITMAP 
0000
0000
0000
0000
0380
0440
1F80
0800
0700
0000
ENDCHAR
STARTCHAR U+0436
ENCODING 1078
SWIDTH 1000 0
DWIDTH 10 0
BBX 13 10 -1 -2
BITMAP 
0000
0000
0000
0000
0B40
0300
0F00
1F80
1680
0000
ENDCHAR
STARTCHAR U+0437
ENCODING 1079
SWIDTH 1000 0
DWIDTH 10 0
BBX 13 10 -1 -2
BITMAP 
0000
0000
0000
0000
0780
0040
0780
0080
0F80
0000
ENDCHAR
STARTCHAR U+0438
ENCODING 1080
SWIDTH 1000 0
DWIDTH 10 0
BBX 13 10 -1 -2
BITMAP 
0000
0000
0000
0000
0C60
0DC0
1A80
1C80
18C0
0000
ENDCHAR
STARTCHAR U+0439
ENCODING 1081
SWIDTH 1000 0
DWIDTH 10 0
BBX 13 10 -1 -2
BITMAP 
0000
0000
01C0
0000
0C60
0DC0
1A80
1C80
18C0
0000
ENDCHAR
STARTCHAR U+043A
ENCODING 1082
SWIDTH 1000 0
DWIDTH 10 0
BBX 13 10 -1 -2
BITMAP 
0000
0000
0000
0000
0640
07C0
0E00
0D00
0D80
0000
ENDCHAR
STARTCHAR U+043B
ENCODING 1083
SWIDTH 1000 0
DWIDTH 10 0
BBX 13 10 -1 -2
BITMAP 
0000
0000
0000
0000
07C0
02C0
0580
0D80
1980
0000
ENDCHAR
STARTCHAR U+043C
ENCODING 1084
SWIDTH 1000 0
DWIDTH 10 0
BBX 13 10 -1 -2
BITMAP 
0000
0000
0000
0000
0C60
0CC0
1D80
1280
18C0
0000
ENDCHAR
STARTCHAR U+043D
ENCODING 1085
SWIDTH 1000 0
DWIDTH 10 0
BBX 13 10 -1 -2
BITMAP 
0000
0000
0000
0000
0C60
0C40
1F80
1880
18C0
0000
ENDCHAR
STARTCHAR U+043E
ENCODING 1086
SWIDTH 1000 0
DWIDTH 10 0
BBX 13 10 -1 -2
BITMAP 
0000
0000
0000
0000
0300
0480
1880
0880
0700
0000
ENDCHAR
STARTCHAR U+043F
ENCODING 1087
SWIDTH 1000 0
DWIDTH 10 0
BBX 13 10 -1 -2
BITMAP 
0000
0000
0000
0000
0FC0
0CC0
1980
1980
1980
0000
ENDCHAR
STARTCHAR U+0440
ENCODING 1088
SWIDTH 1000 0
DWIDTH 10 0
BBX 13 10 -1 -2
BITMAP 
0000
0000
0000
0000
0500
0680
0C80
0F80
0C00
1C00
ENDCHAR
STARTCHAR U+0441
ENCODING 1089
SWIDTH 1000 0
DWIDTH 10 0
BBX 13 10 -1 -2
BITMAP 
0000
0000
0000
0000
0380
0400
1800
0800
0700
0000
ENDCHAR
STARTCHAR U+0442
ENCODING 1090
SWIDTH 1000 0
DWIDTH 10 0
BBX 13 10 -1 -2
BITMAP 
0000
0000
0000
0000
0780
0B40
0600
0600
0600
0000
ENDCHAR
STARTCHAR U+0443
ENCODING 1091
SWIDTH 1000 0
DWIDTH 10 0
BBX 13 10 -1 -2
BITMAP 
0000
0000
0000
0000
0EC0
0440
0400
0300
0C00
3800
ENDCHAR
STARTCHAR U+0444
ENCODING 1092
SWIDTH 1000 0
DWIDTH 10 0
BBX 13 10 -1 -2
BITMAP 
0000
0080
0180
0300
0FC0
1B60
36C0
1F80
0600
1E00
ENDCHAR
STARTCHAR U+0445
ENCODING 1093
SWIDTH 1000 0
DWIDTH 10 0
BBX 13 10 -1 -2
BITMAP 
0000
0000
0000
0000
0CC0
0600
0F00
0F00
1980
0000
ENDCHAR
STARTCHAR U+0446
ENCODING 1094
SWIDTH 1000 0
DWIDTH 10 0
BBX 13 10 -1 -2
BITMAP 
0000
0000
0000
0000
0CC0
0CC0
1980
1980
1F80
0100
ENDCHAR
STARTCHAR U+0447
ENCODING 1095
SWIDTH 1000 0
DWIDTH 10 0
BBX 13 10 -1 -2
BITMAP 
0000
0000
0000
0000
0CC0
0CC0
0580
0380
0380
0000
ENDCHAR
STARTCHAR U+0448
ENCODING 1096
SWIDTH 1000 0
DWIDTH 10 0
BBX 13 10 -1 -2
BITMAP 
0000
0000
0000
0000
1B60
0B40
1680
1680
3FC0
0000
ENDCHAR
STARTCHAR U+0449
ENCODING 1097
SWIDTH 1000 0
DWIDTH 10 0
BBX 13 10 -1 -2
BITMAP 
0000
0000
0000
0000
1B60
0B40
1680
1680
3F80
0080
ENDCHAR
STARTCHAR U+044A
ENCODING 1098
SWIDTH 1000 0
DWIDTH 10 0
BBX 13 10 -1 -2
BITMAP 
0000
0000
0000
0000
0F80
0300
07C0
06C0
07C0
0000
ENDCHAR
STARTCHAR U+044B
ENCODING 1099
SWIDTH 1000 0
DWIDTH 10 0
BBX 13 10 -1 -2
BITMAP 
0000
0000
0000
0000
1CE0
0840
1C80
1680
3DC0
0000
ENDCHAR
STARTCHAR U+044C
ENCODING 1100
SWIDTH 1000 0
DWIDTH 10 0
BBX 13 10 -1 -2
BITMAP 
0000
0000
0000
0000
0E00
0C00
1F80
1880
1F80
0000
ENDCHAR
STARTCHAR U+044D
ENCODING 1101
SWIDTH 1000 0
DWIDTH 10 0
BBX 13 10 -1 -2
BITMAP 
0000
0000
0000
0000
0780
0040
0D80
1080
1F00
0000
ENDCHAR
STARTCHAR U+044E
ENCODING 1102
SWIDTH 1000 0
DWIDTH 10 0
BBX 13 10 -1 -2
BITMAP 
0000
0000
0000
0000
1C80
0980
1EC0
12C0
3980
0000
ENDCHAR
STARTCHAR U+044F
ENCODING 1103
SWIDTH 1000 0
DWIDTH 10 0
BBX 13 10 -1 -2
BITMAP 
0000
0000
0000
0000
07C0
0CC0
0980
0F80
1180
0000
ENDCHAR
STARTCHAR U+0451
ENCODING 1105
SWIDTH 1000 0
DWIDTH 10 0
BBX 13 10 -1 -2
BITMAP 
0000
0000
0140
06C0
0380
0440
1F80
0800
0700
0000
ENDCHAR
STARTCHAR U+1E3E
ENCODING 7742
SWIDTH 1000 0
DWIDTH 10 0
BBX 13 10 -1 -2
BITMAP 
0000
0040
0C30
0CC0
0CC0
0D40
1680
1480
30C0
0000
ENDCHAR
STARTCHAR U+1E3F
ENCODING 7743
SWIDTH 1000 0
DWIDTH 10 0
BBX 13 10 -1 -2
BITMAP 
0000
0000
0080
0100
0B40
0DE0
1BC0
1BC0
1BE0
0000
ENDCHAR
STARTCHAR U+1F70
ENCODING 8048
SWIDTH 1000 0
DWIDTH 10 0
BBX 13 10 -1 -2
BITMAP 
0000
0000
0000
0000
0700
0D40
1980
1980
0F80
0000
ENDCHAR
STARTCHAR U+1F71
ENCODING 8049
SWIDTH 1000 0
DWIDTH 10 0
BBX 13 10 -1 -2
BITMAP 
0000
0000
0180
0200
0700
0D40
1980
1980
0F80
0000
ENDCHAR
STARTCHAR U+1F72
ENCODING 8050
SWIDTH 1000 0
DWIDTH 10 0
BBX 13 10 -1 -2
BITMAP 
0000
0000
0000
0000
0780
0400
0E00
1800
0780
0000
ENDCHAR
STARTCHAR U+1F73
ENCODING 8051
SWIDTH 1000 0
DWIDTH 10 0
BBX 13 10 -1 -2
BITMAP 
0000
0000
0180
0200
0780
0400
0E00
1800
0780
0000
ENDCHAR
STARTCHAR U+2010
ENCODING 8208
SWIDTH 1000 0
DWIDTH 10 0
BBX 13 10 -1 -2
BITMAP 
0000
0000
0000
0000
0000
0780
0000
0000
0000
0000
ENDCHAR
STARTCHAR U+2013
ENCODING 8211
SWIDTH 1000 0
DWIDTH 10 0
BBX 13 10 -1 -2
BITMAP 
0000
0000
0000
0000
0000
0780
0000
0000
0000
0000
ENDCHAR
STARTCHAR U+2014
ENCODING 8212
SWIDTH 1000 0
DWIDTH 10 0
BBX 13 10 -1 -2
BITMAP 
0000
0000
0000
0000
0000
0FC0
0000
0000
0000
0000
ENDCHAR
STARTCHAR U+2015
ENCODING 8213
SWIDTH 1000 0
DWIDTH 10 0
BBX 13 10 -1 -2
BITMAP 
0000
0000
0000
0000
0000
1FF0
0000
0000
0000
0000
ENDCHAR
STARTCHAR U+2016
ENCODING 8214
SWIDTH 1000 0
DWIDTH 10 0
BBX 13 10 -1 -2
BITMAP 
0000
0240
0240
0480
0480
0480
0900
0900
0900
1200
ENDCHAR
STARTCHAR U+2018
ENCODING 8216
SWIDTH 1000 0
DWIDTH 10 0
BBX 13 10 -1 -2
BITMAP 
0000
0020
0020
0040
0000
0000
0000
0000
0000
0000
ENDCHAR
STARTCHAR U+2019
ENCODING 8217
SWIDTH 1000 0
DWIDTH 10 0
BBX 13 10 -1 -2
BITMAP 
0000
0600
0200
0000
0000
0000
0000
0000
0000
0000
ENDCHAR
STARTCHAR U+201C
ENCODING 8220
SWIDTH 1000 0
DWIDTH 10 0
BBX 13 10 -1 -2
BITMAP 
0000
0010
00F0
01A0
0000
0000
0000
0000
0000
0000
ENDCHAR
STARTCHAR U+201D
ENCODING 8221
SWIDTH 1000 0
DWIDTH 10 0
BBX 13 10 -1 -2
BITMAP 
0000
0580
0500
0A00
0000
0000
0000
0000
0000
0000
ENDCHAR
STARTCHAR U+2020
ENCODING 8224
SWIDTH 1000 0
DWIDTH 10 0
BBX 13 10 -1 -2
BITMAP 
0080
01C0
03E0
05C0
0100
0380
0600
0200
0200
0400
ENDCHAR
STARTCHAR U+2021
ENCODING 8225
SWIDTH 1000 0
DWIDTH 10 0
BBX 13 10 -1 -2
BITMAP 
0000
0080
03E0
05C0
0100
0100
0200
0F80
0B80
0400
ENDCHAR
STARTCHAR U+2022
ENCODING 8226
SWIDTH 1000 0
DWIDTH 10 0
BBX 13 10 -1 -2
BITMAP 
0000
0000
0080
0380
07C0
0780
0600
0000
0000
0000
ENDCHAR
STARTCHAR U+2025
ENCODING 8229
SWIDTH 1000 0
DWIDTH 10 0
BBX 13 10 -1 -2
BITMAP 
0000
0000
0000
0000
0440
0440
0000
0000
0000
0000
ENDCHAR
STARTCHAR U+2026
ENCODING 8230
SWIDTH 1000 0
DWIDTH 10 0
BBX 13 10 -1 -2
BITMAP 
0000
0000
0000
0000
1320
1320
0000
0000
0000
0000
ENDCHAR
STARTCHAR U+2030
ENCODING 8240
SWIDTH 1000 0
DWIDTH 10 0
BBX 13 10 -1 -2
BITMAP 
0000
0440
0E80
1D00
0E00
0740
0DC0
15E0
17C0
2500
ENDCHAR
STARTCHAR U+2032
ENCODING 8242
SWIDTH 1000 0
DWIDTH 10 0
BBX 13 10 -1 -2
BITMAP 
0000
0000
0600
0800
0000
0000
0000
0000
0000
0000
ENDCHAR
STARTCHAR U+2033
ENCODING 8243
SWIDTH 1000 0
DWIDTH 10 0
BBX 13 10 -1 -2
BITMAP 
0000
0400
0F00
0400
0000
0000
0000
0000
0000
0000
ENDCHAR
STARTCHAR U+2035
ENCODING 8245
SWIDTH 1000 0
DWIDTH 10 0
BBX 13 10 -1 -2
BITMAP 
0000
0180
0080
0000
0000
0000
0000
0000
0000
0000
ENDCHAR
STARTCHAR U+203B
ENCODING 8251
SWIDTH 1000 0
DWIDTH 10 0
BBX 13 10 -1 -2
BITMAP 
0000
0000
04B0
0440
0280
0B20
0500
0880
1240
0000
ENDCHAR
STARTCHAR U+203C
ENCODING 8252
SWIDTH 1000 0
DWIDTH 10 0
BBX 13 10 -1 -2
BITMAP 
0000
0240
0360
06C0
0680
0480
0000
0500
0D80
0000
ENDCHAR
STARTCHAR U+203E
ENCODING 8254
SWIDTH 1000 0
DWIDTH 10 0
BBX 13 10 -1 -2
BITMAP 
0000
0FF8
0000
0000
0000
0000
0000
0000
0000
0000
ENDCHAR
STARTCHAR U+203F
ENCODING 8255
SWIDTH 1000 0
DWIDTH 10 0
BBX 13 10 -1 -2
BITMAP 
0000
0000
0000
0000
0000
0000
0000
0000
1000
0F00
ENDCHAR
STARTCHAR U+2042
ENCODING 8258
SWIDTH 1000 0
DWIDTH 10 0
BBX 13 10 -1 -2
BITMAP 
0000
0080
01C0
0380
0500
0B40
3DE0
18C0
3DE0
2100
ENDCHAR
STARTCHAR U+2048
ENCODING 8264
SWIDTH 1000 0
DWIDTH 10 0
BBX 13 10 -1 -2
BITMAP 
0000
0330
0530
09E0
0360
0440
0000
0000
0880
0000
ENDCHAR
STARTCHAR U+2049
ENCODING 8265
SWIDTH 1000 0
DWIDTH 10 0
BBX 13 10 -1 -2
BITMAP 
0000
0460
04B0
0B60
0840
0880
0000
0000
1100
0000
ENDCHAR
STARTCHAR U+2074
ENCODING 8308
SWIDTH 1000 0
DWIDTH 10 0
BBX 13 10 -1 -2
BITMAP 
0600
0600
0600
0E00
0400
0000
0000
0000
0000
0000
ENDCHAR
STARTCHAR U+207F
ENCODING 8319
SWIDTH 1000 0
DWIDTH 10 0
BBX 13 10 -1 -2
BITMAP 
0600
0500
0500
0A00
0000
0000
0000
0000
0000
0000
ENDCHAR
STARTCHAR U+2081
ENCODING 8321
SWIDTH 1000 0
DWIDTH 10 0
BBX 13 10 -1 -2
BITMAP 
0000
0000
0000
0000
0400
0400
0800
0800
0000
0000
ENDCHAR
STARTCHAR U+2082
ENCODING 8322
SWIDTH 1000 0
DWIDTH 10 0
BBX 13 10 -1 -2
BITMAP 
0000
0000
0000
0400
0A00
0400
0800
1C00
0000
0000
ENDCHAR
STARTCHAR U+2083
ENCODING 8323
SWIDTH 1000 0
DWIDTH 10 0
BBX 13 10 -1 -2
BITMAP 
0000
0000
0000
0400
0A00
0400
0400
1C00
0000
0000
ENDCHAR
STARTCHAR U+2084
ENCODING 8324
SWIDTH 1000 0
DWIDTH 10 0
BBX 13 10 -1 -2
BITMAP 
0000
0000
0000
0400
0C00
0C00
1800
1C00
0000
0000
ENDCHAR
STARTCHAR U+20AC
ENCODING 8364
SWIDTH 1000 0
DWIDTH 10 0
BBX 13 10 -1 -2
BITMAP 
0000
01C0
0220
1FC0
0800
1F80
1800
0880
0700
0000
ENDCHAR
STARTCHAR U+2103
ENCODING 8451
SWIDTH 1000 0
DWIDTH 10 0
BBX 13 10 -1 -2
BITMAP 
0000
0460
0F18
0C10
0400
0400
0400
0420
0380
0000
ENDCHAR
STARTCHAR U+2105
ENCODING 8453
SWIDTH 1000 0
DWIDTH 10 0
BBX 13 10 -1 -2
BITMAP 
0000
0000
1000
2000
0040
0040
0040
0400
0000
0000
ENDCHAR
STARTCHAR U+2109
ENCODING 8457
SWIDTH 1000 0
DWIDTH 10 0
BBX 13 10 -1 -2
BITMAP 
04F8
0680
0680
01E0
0100
0100
0200
0200
0000
0000
ENDCHAR
STARTCHAR U+210F
ENCODING 8463
SWIDTH 1000 0
DWIDTH 10 0
BBX 13 10 -1 -2
BITMAP 
0000
0380
01C0
0600
0700
0680
0880
1980
1980
0000
ENDCHAR
STARTCHAR U+2113
ENCODING 8467
SWIDTH 1000 0
DWIDTH 10 0
BBX 13 10 -1 -2
BITMAP 
0000
0040
0040
0240
0440
0480
0400
0480
0B00
0000
ENDCHAR
STARTCHAR U+2116
ENCODING 8470
SWIDTH 1000 0
DWIDTH 10 0
BBX 13 10 -1 -2
BITMAP 
0000
0900
0D00
1A00
1A80
1B40
2640
2E60
24E0
0000
ENDCHAR
STARTCHAR U+2121
ENCODING 8481
SWIDTH 1000 0
DWIDTH 10 0
BBX 13 10 -1 -2
BITMAP 
0000
0DE0
0D20
0A40
0BC0
0A40
1480
1480
37E0
0000
ENDCHAR
STARTCHAR U+2122
ENCODING 8482
SWIDTH 1000 0
DWIDTH 10 0
BBX 13 10 -1 -2
BITMAP 
07A0
0228
0238
0460
0440
0000
0000
0000
0000
0000
ENDCHAR
STARTCHAR U+2126
ENCODING 8486
SWIDTH 1000 0
DWIDTH 10 0
BBX 13 10 -1 -2
BITMAP 
00E0
0100
0210
0200
0140
0140
0AC0
04C0
0000
0000
ENDCHAR
STARTCHAR U+2127
ENCODING 8487
SWIDTH 1000 0
DWIDTH 10 0
BBX 13 10 -1 -2
BITMAP 
0000
0770
0240
0440
0860
0860
18C0
0880
0700
0000
ENDCHAR
STARTCHAR U+212B
ENCODING 8491
SWIDTH 1000 0
DWIDTH 10 0
BBX 13 10 -1 -2
BITMAP 
0000
01C0
01C0
0100
0280
0480
0980
0F80
18C0
0000
ENDCHAR
STARTCHAR U+2135
ENCODING 8501
SWIDTH 1000 0
DWIDTH 10 0
BBX 13 10 -1 -2
BITMAP 
0000
0440
0440
0660
07C0
0F80
1180
1880
1880
0000
ENDCHAR
STARTCHAR U+2153
ENCODING 8531
SWIDTH 1000 0
DWIDTH 10 0
BBX 13 10 -1 -2
BITMAP 
0000
0200
0600
0440
0480
0300
0580
09C0
1080
0300
ENDCHAR
STARTCHAR U+2154
ENCODING 8532
SWIDTH 1000 0
DWIDTH 10 0
BBX 13 10 -1 -2
BITMAP 
0000
0600
0300
0440
0E80
0300
0580
09C0
1080
0300
ENDCHAR
STARTCHAR U+2155
ENCODING 8533
SWIDTH 1000 0
DWIDTH 10 0
BBX 13 10 -1 -2
BITMAP 
0000
0200
0600
0440
0480
0300
05C0
0980
10C0
0300
ENDCHAR
STARTCHAR U+215B
ENCODING 8539
SWIDTH 1000 0
DWIDTH 10 0
BBX 13 10 -1 -2
BITMAP 
0200
0208
0230
0440
04E0
0350
04C0
08A0
10C0
0000
ENDCHAR
STARTCHAR U+215C
ENCODING 8540
SWIDTH 1000 0
DWIDTH 10 0
BBX 13 10 -1 -2
BITMAP 
0600
0108
0130
0240
0CE0
0350
04C0
08A0
10C0
0000
ENDCHAR
STARTCHAR U+215D
ENCODING 8541
SWIDTH 1000 0
DWIDTH 10 0
BBX 13 10 -1 -2
BITMAP 
0700
0408
0730
0240
0CE0
0350
04C0
08A0
10C0
0000
ENDCHAR
STARTCHAR U+215E
ENCODING 8542
SWIDTH 1000 0
DWIDTH 10 0
BBX 13 10 -1 -2
BITMAP 
0380
0088
0130
0040
04E0
0350
04C0
08A0
10C0
0000
ENDCHAR
STARTCHAR U+2160
ENCODING 8544
SWIDTH 1000 0
DWIDTH 10 0
BBX 13 10 -1 -2
BITMAP 
0000
0180
0180
0300
0300
0300
0600
0600
0600
0000
ENDCHAR
STARTCHAR U+2161
ENCODING 8545
SWIDTH 1000 0
DWIDTH 10 0
BBX 13 10 -1 -2
BITMAP 
0000
07E0
0660
0CC0
0CC0
0CC0
1980
1980
1F80
0000
ENDCHAR
STARTCHAR U+2162
ENCODING 8546
SWIDTH 1000 0
DWIDTH 10 0
BBX 13 10 -1 -2
BITMAP 
0000
0FF0
05A0
0B40
0B40
0B40
1680
1680
3FC0
0000
ENDCHAR
STARTCHAR U+2163
ENCODING 8547
SWIDTH 1000 0
DWIDTH 10 0
BBX 13 10 -1 -2
BITMAP 
0000
0F30
0720
0F40
0B40
09C0
1300
1300
3900
0000
ENDCHAR
STARTCHAR U+2164
ENCODING 8548
SWIDTH 1000 0
DWIDTH 10 0
BBX 13 10 -1 -2
BITMAP 
0000
0630
0620
0640
0640
0600
0700
0200
0200
0000
ENDCHAR
STARTCHAR U+2165
ENCODING 8549
SWIDTH 1000 0
DWIDTH 10 0
BBX 13 10 -1 -2
BITMAP 
0000
0CF0
0660
0CC0
0D40
0740
0E80
0480
05C0
0000
ENDCHAR
STARTCHAR U+2166
ENCODING 8550
SWIDTH 1000 0
DWIDTH 10 0
BBX 13 10 -1 -2
BITMAP 
0000
0DF0
04E0
09C0
0EC0
0EC0
0D80
0980
0BC0
0000
ENDCHAR
STARTCHAR U+2167
ENCODING 8551
SWIDTH 1000 0
DWIDTH 10 0
BBX 13 10 -1 -2
BITMAP 
0000
0DF8
0DB0
1B60
0D60
0D60
1AC0
12C0
13E0
0000
ENDCHAR
STARTCHAR U+2168
ENCODING 8552
SWIDTH 1000 0
DWIDTH 10 0
BBX 13 10 -1 -2
BITMAP 
0000
0FB0
05A0
09C0
0980
0BC0
1580
1D80
3CC0
0000
ENDCHAR
STARTCHAR U+2169
ENCODING 8553
SWIDTH 1000 0
DWIDTH 10 0
BBX 13 10 -1 -2
BITMAP 
0000
0630
0340
0740
0380
0580
0580
0980
18C0
0000
ENDCHAR
STARTCHAR U+216A
ENCODING 8554
SWIDTH 1000 0
DWIDTH 10 0
BBX 13 10 -1 -2
BITMAP 
0000
0CF0
0420
0E40
0C40
1640
1C80
2680
27C0
0000
ENDCHAR
STARTCHAR U+216B
ENCODING 8555
SWIDTH 1000 0
DWIDTH 10 0
BBX 13 10 -1 -2
BITMAP 
0000
0CF0
05E0
0EC0
0CC0
16C0
1D80
2780
27C0
0000
ENDCHAR
STARTCHAR U+2170
ENCODING 8560
SWIDTH 1000 0
DWIDTH 10 0
BBX 13 10 -1 -2
BITMAP 
0000
0000
0180
0000
0700
0300
0600
0600
0600
0000
ENDCHAR
STARTCHAR U+2171
ENCODING 8561
SWIDTH 1000 0
DWIDTH 10 0
BBX 13 10 -1 -2
BITMAP 
0000
0000
0360
0000
0780
06C0
0D80
0D80
0F80
0000
ENDCHAR
STARTCHAR U+2172
ENCODING 8562
SWIDTH 1000 0
DWIDTH 10 0
BBX 13 10 -1 -2
BITMAP 
0000
0000
06A0
0000
0FE0
0D40
1A80
1A80
1FC0
0000
ENDCHAR
STARTCHAR U+2173
ENCODING 8563
SWIDTH 1000 0
DWIDTH 10 0
BBX 13 10 -1 -2
BITMAP 
0000
0000
0600
0000
0FE0
0DC0
1B80
1980
1D80
0000
ENDCHAR
STARTCHAR U+2174
ENCODING 8564
SWIDTH 1000 0
DWIDTH 10 0
BBX 13 10 -1 -2
BITMAP 
0000
0000
0000
0000
0CC0
0400
0D00
0600
0200
0000
ENDCHAR
STARTCHAR U+2175
ENCODING 8565
SWIDTH 1000 0
DWIDTH 10 0
BBX 13 10 -1 -2
BITMAP 
0000
0000
0020
0000
0FC0
0E40
0A80
0C80
05C0
0000
ENDCHAR
STARTCHAR U+2176
ENCODING 8566
SWIDTH 1000 0
DWIDTH 10 0
BBX 13 10 -1 -2
BITMAP 
0000
0000
0070
0000
1FE0
0AE0
1DC0
1DC0
0BC0
0000
ENDCHAR
STARTCHAR U+2177
ENCODING 8567
SWIDTH 1000 0
DWIDTH 10 0
BBX 13 10 -1 -2
BITMAP 
0000
0000
00B0
0000
1FF0
0B60
1EC0
1AC0
0BE0
0000
ENDCHAR
STARTCHAR U+2178
ENCODING 8568
SWIDTH 1000 0
DWIDTH 10 0
BBX 13 10 -1 -2
BITMAP 
0000
0000
0600
0000
0FE0
0F00
1B00
1F80
1EC0
0000
ENDCHAR
STARTCHAR U+2179
ENCODING 8569
SWIDTH 1000 0
DWIDTH 10 0
BBX 13 10 -1 -2
BITMAP 
0000
0000
0000
0000
0C60
0480
0700
0F80
18C0
0000
ENDCHAR
STARTCHAR U+217A
ENCODING 8570
SWIDTH 1000 0
DWIDTH 10 0
BBX 13 10 -1 -2
BITMAP 
0000
0000
0020
0000
0FC0
0740
0C80
0F80
1BC0
0000
ENDCHAR
STARTCHAR U+217B
ENCODING 8571
SWIDTH 1000 0
DWIDTH 10 0
BBX 13 10 -1 -2
BITMAP 
0000
0000
0030
0000
1FF0
0E60
18C0
1CC0
37E0
0000
ENDCHAR
STARTCHAR U+2190
ENCODING 8592
SWIDTH 1000 0
DWIDTH 10 0
BBX 13 10 -1 -2
BITMAP 
0000
0000
0000
0000
0800
1FF0
1000
0000
0000
0000
ENDCHAR
STARTCHAR U+2191
ENCODING 8593
SWIDTH 1000 0
DWIDTH 10 0
BBX 13 10 -1 -2
BITMAP 
0000
0080
01C0
0100
0100
0100
0200
0200
0200
0400
ENDCHAR
STARTCHAR U+2192
ENCODING 8594
SWIDTH 1000 0
DWIDTH 10 0
BBX 13 10 -1 -2
BITMAP 
0000
0000
0000
0000
0020
1FF0
0040
0000
0000
0000
ENDCHAR
STARTCHAR U+2193
ENCODING 8595
SWIDTH 1000 0
DWIDTH 10 0
BBX 13 10 -1 -2
BITMAP 
0000
0080
0080
0100
0100
0100
0200
0200
0700
0400
ENDCHAR
STARTCHAR U+2194
ENCODING 8596
SWIDTH 1000 0
DWIDTH 10 0
BBX 13 10 -1 -2
BITMAP 
0000
0000
0000
0000
0820
1FF0
1040
0000
0000
0000
ENDCHAR
STARTCHAR U+2195
ENCODING 8597
SWIDTH 1000 0
DWIDTH 10 0
BBX 13 10 -1 -2
BITMAP 
0040
00E0
0040
0080
0080
0080
0100
0380
0100
0000
ENDCHAR
STARTCHAR U+2196
ENCODING 8598
SWIDTH 1000 0
DWIDTH 10 0
BBX 13 10 -1 -2
BITMAP 
0000
0800
0A00
0C00
0200
0100
0100
0080
0040
0000
ENDCHAR
STARTCHAR U+2197
ENCODING 8599
SWIDTH 1000 0
DWIDTH 10 0
BBX 13 10 -1 -2
BITMAP 
0000
0010
0060
00C0
0100
0600
0800
1000
2000
0000
ENDCHAR
STARTCHAR U+2198
ENCODING 8600
SWIDTH 1000 0
DWIDTH 10 0
BBX 13 10 -1 -2
BITMAP 
0000
0800
0400
0400
0200
0100
0180
0180
0040
0000
ENDCHAR
STARTCHAR U+2199
ENCODING 8601
SWIDTH 1000 0
DWIDTH 10 0
BBX 13 10 -1 -2
BITMAP 
0000
0010
0060
0080
0100
0600
1800
1800
2000
0000
ENDCHAR
STARTCHAR U+21C4
ENCODING 8644
SWIDTH 1000 0
DWIDTH 10 0
BBX 13 10 -1 -2
BITMAP 
0000
0000
0FF8
0020
0000
0800
3000
3FE0
1000
0000
ENDCHAR
STARTCHAR U+21D2
ENCODING 8658
SWIDTH 1000 0
DWIDTH 10 0
BBX 13 10 -1 -2
BITMAP 
0000
0000
0040
1FC0
0020
1FC0
0000
0000
0000
0000
ENDCHAR
STARTCHAR U+21D4
ENCODING 8660
SWIDTH 1000 0
DWIDTH 10 0
BBX 13 10 -1 -2
BITMAP 
0000
0000
0240
0FC0
1020
0FC0
0000
0000
0000
0000
ENDCHAR
STARTCHAR U+21E6
ENCODING 8678
SWIDTH 1000 0
DWIDTH 10 0
BBX 13 10 -1 -2
BITMAP 
0000
0000
0200
0FF0
1010
1010
0FE0
0800
0000
0000
ENDCHAR
STARTCHAR U+21E7
ENCODING 8679
SWIDTH 1000 0
DWIDTH 10 0
BBX 13 10 -1 -2
BITMAP 
0000
0180
0280
0CC0
0480
0480
0900
0900
0900
1E00
ENDCHAR
STARTCHAR U+21E8
ENCODING 8680
SWIDTH 1000 0
DWIDTH 10 0
BBX 13 10 -1 -2
BITMAP 
0000
0000
0020
1FE0
1010
1020
3FC0
0080
0000
0000
ENDCHAR
STARTCHAR U+21E9
ENCODING 8681
SWIDTH 1000 0
DWIDTH 10 0
BBX 13 10 -1 -2
BITMAP 
0000
03C0
0240
0480
0480
0480
0900
1980
0A00
0C00
ENDCHAR
STARTCHAR U+2200
ENCODING 8704
SWIDTH 1000 0
DWIDTH 10 0
BBX 13 10 -1 -2
BITMAP 
0000
0410
07F0
0C40
0440
0400
0500
0200
0200
0000
ENDCHAR
STARTCHAR U+2202
ENCODING 8706
SWIDTH 1000 0
DWIDTH 10 0
BBX 13 10 -1 -2
BITMAP 
0000
0080
0140
0040
03C0
0640
1880
1900
0E00
0000
ENDCHAR
STARTCHAR U+2203
ENCODING 8707
SWIDTH 1000 0
DWIDTH 10 0
BBX 13 10 -1 -2
BITMAP 
0000
03E0
0020
0040
07C0
0040
0080
0F80
0000
0000
ENDCHAR
STARTCHAR U+2205
ENCODING 8709
SWIDTH 1000 0
DWIDTH 10 0
BBX 13 10 -1 -2
BITMAP 
0000
0000
0090
0020
00C0
0B40
0480
0F00
1000
0000
ENDCHAR
STARTCHAR U+2207
ENCODING 8711
SWIDTH 1000 0
DWIDTH 10 0
BBX 13 10 -1 -2
BITMAP 
0000
07F0
07F0
0C00
0C40
0440
0400
0700
0200
0000
ENDCHAR
STARTCHAR U+2208
ENCODING 8712
SWIDTH 1000 0
DWIDTH 10 0
BBX 13 10 -1 -2
BITMAP 
0000
0000
01E0
0000
0800
0FC0
1000
0F80
0000
0000
ENDCHAR
STARTCHAR U+2209
ENCODING 8713
SWIDTH 1000 0
DWIDTH 10 0
BBX 13 10 -1 -2
BITMAP 
0000
0000
01E0
0100
0900
0FC0
1200
0F80
0200
0000
ENDCHAR
STARTCHAR U+220B
ENCODING 8715
SWIDTH 1000 0
DWIDTH 10 0
BBX 13 10 -1 -2
BITMAP 
0000
0000
0380
0040
0040
07C0
0080
0F80
0000
0000
ENDCHAR
STARTCHAR U+220F
ENCODING 8719
SWIDTH 1000 0
DWIDTH 10 0
BBX 13 10 -1 -2
BITMAP 
07F8
0220
0220
0440
0440
0440
0880
0880
0000
0000
ENDCHAR
STARTCHAR U+2211
ENCODING 8721
SWIDTH 1000 0
DWIDTH 10 0
BBX 13 10 -1 -2
BITMAP 
03F0
0000
0000
0000
0100
0200
0400
0FC0
0000
0000
ENDCHAR
STARTCHAR U+2212
ENCODING 8722
SWIDTH 1000 0
DWIDTH 10 0
BBX 13 10 -1 -2
BITMAP 
0000
0000
0000
0000
0000
0FE0
0000
0000
0000
0000
ENDCHAR
STARTCHAR U+2213
ENCODING 8723
SWIDTH 1000 0
DWIDTH 10 0
BBX 13 10 -1 -2
BITMAP 
0000
0000
07F0
0100
0100
0100
1FC0
0200
0200
0000
ENDCHAR
STARTCHAR U+221A
ENCODING 8730
SWIDTH 1000 0
DWIDTH 10 0
BBX 13 10 -1 -2
BITMAP 
0000
00F8
0100
0100
0200
0400
3400
3800
0800
0000
ENDCHAR
STARTCHAR U+221D
ENCODING 8733
SWIDTH 1000 0
DWIDTH 10 0
BBX 13 10 -1 -2
BITMAP 
0000
0000
0620
0AA0
1100
1100
1100
0DC0
0000
0000
ENDCHAR
STARTCHAR U+221E
ENCODING 8734
SWIDTH 1000 0
DWIDTH 10 0
BBX 13 10 -1 -2
BITMAP 
0000
0000
0620
0AA0
1110
1110
1120
0DC0
0000
0000
ENDCHAR
STARTCHAR U+221F
ENCODING 8735
SWIDTH 1000 0
DWIDTH 10 0
BBX 13 10 -1 -2
BITMAP 
0000
0000
0400
0800
0800
0800
1000
1000
1FC0
0000
ENDCHAR
STARTCHAR U+2220
ENCODING 8736
SWIDTH 1000 0
DWIDTH 10 0
BBX 13 10 -1 -2
BITMAP 
0000
0000
0060
0080
0100
0600
0800
1FC0
0000
0000
ENDCHAR
STARTCHAR U+2223
ENCODING 8739
SWIDTH 1000 0
DWIDTH 10 0
BBX 13 10 -1 -2
BITMAP 
0000
0180
0180
0300
0300
0300
0600
0600
0600
0C00
ENDCHAR
STARTCHAR U+2225
ENCODING 8741
SWIDTH 1000 0
DWIDTH 10 0
BBX 13 10 -1 -2
BITMAP 
0000
0000
00B0
0140
0240
0400
0900
1200
1400
0800
ENDCHAR
STARTCHAR U+2226
ENCODING 8742
SWIDTH 1000 0
DWIDTH 10 0
BBX 13 10 -1 -2
BITMAP 
0000
0000
0190
0620
0240
0780
0900
1380
1400
0800
ENDCHAR
STARTCHAR U+2227
ENCODING 8743
SWIDTH 1000 0
DWIDTH 10 0
BBX 13 10 -1 -2
BITMAP 
0000
0000
0180
0280
0400
0840
0840
1040
0000
0000
ENDCHAR
STARTCHAR U+2228
ENCODING 8744
SWIDTH 1000 0
DWIDTH 10 0
BBX 13 10 -1 -2
BITMAP 
0000
0000
0410
0420
0440
0400
0500
0200
0000
0000
ENDCHAR
STARTCHAR U+2229
ENCODING 8745
SWIDTH 1000 0
DWIDTH 10 0
BBX 13 10 -1 -2
BITMAP 
0000
0000
0180
0040
0840
0840
1080
1080
1080
0000
ENDCHAR
STARTCHAR U+222A
ENCODING 8746
SWIDTH 1000 0
DWIDTH 10 0
BBX 13 10 -1 -2
BITMAP 
0000
0000
0420
0840
0840
0840
0880
0880
0700
0000
ENDCHAR
STARTCHAR U+222B
ENCODING 8747
SWIDTH 1000 0
DWIDTH 10 0
BBX 13 10 -1 -2
BITMAP 
0000
00C0
0100
0100
0100
0100
0100
0100
0600
0C00
ENDCHAR
STARTCHAR U+222C
ENCODING 8748
SWIDTH 1000 0
DWIDTH 10 0
BBX 13 10 -1 -2
BITMAP 
0000
0320
0440
0480
0400
0440
0080
0480
0880
3300
ENDCHAR
STARTCHAR U+222E
ENCODING 8750
SWIDTH 1000 0
DWIDTH 10 0
BBX 13 10 -1 -2
BITMAP 
0000
00C0
0100
0300
0500
0540
0200
0300
0600
0C00
ENDCHAR
STARTCHAR U+2234
ENCODING 8756
SWIDTH 1000 0
DWIDTH 10 0
BBX 13 10 -1 -2
BITMAP 
0000
0000
0000
0300
0000
0000
0000
1080
0000
0000
ENDCHAR
STARTCHAR U+2235
ENCODING 8757
SWIDTH 1000 0
DWIDTH 10 0
BBX 13 10 -1 -2
BITMAP 
0000
0000
0420
0840
0000
0000
0000
0600
0000
0000
ENDCHAR
STARTCHAR U+2236
ENCODING 8758
SWIDTH 1000 0
DWIDTH 10 0
BBX 13 10 -1 -2
BITMAP 
0000
0000
0100
0200
0000
0000
0400
0000
0000
0000
ENDCHAR
STARTCHAR U+2237
ENCODING 8759
SWIDTH 1000 0
DWIDTH 10 0
BBX 13 10 -1 -2
BITMAP 
0000
0000
0460
0000
0000
0000
1100
1000
0000
0000
ENDCHAR
STARTCHAR U+223C
ENCODING 8764
SWIDTH 1000 0
DWIDTH 10 0
BBX 13 10 -1 -2
BITMAP 
0000
0000
0000
0300
00C0
0000
0000
0000
0000
0000
ENDCHAR
STARTCHAR U+223D
ENCODING 8765
SWIDTH 1000 0
DWIDTH 10 0
BBX 13 10 -1 -2
BITMAP 
0000
0000
0620
0860
1090
1110
1220
0CC0
0000
0000
ENDCHAR
STARTCHAR U+2243
ENCODING 8771
SWIDTH 1000 0
DWIDTH 10 0
BBX 13 10 -1 -2
BITMAP 
0000
0000
0600
0900
1040
0000
0000
1FC0
0000
0000
ENDCHAR
STARTCHAR U+2245
ENCODING 8773
SWIDTH 1000 0
DWIDTH 10 0
BBX 13 10 -1 -2
BITMAP 
0000
0000
0600
0900
1040
0000
1FC0
1FC0
0000
0000
ENDCHAR
STARTCHAR U+2248
ENCODING 8776
SWIDTH 1000 0
DWIDTH 10 0
BBX 13 10 -1 -2
BITMAP 
0000
0000
0600
0900
1040
0C30
0340
0080
0000
0000
ENDCHAR
STARTCHAR U+224C
ENCODING 8780
SWIDTH 1000 0
DWIDTH 10 0
BBX 13 10 -1 -2
BITMAP 
0000
0440
0000
0220
0000
0800
3F80
3F80
0000
0000
ENDCHAR
STARTCHAR U+2252
ENCODING 8786
SWIDTH 1000 0
DWIDTH 10 0
BBX 13 10 -1 -2
BITMAP 
0000
0000
0400
0FE0
0000
0000
1FC0
0080
0000
0000
ENDCHAR
STARTCHAR U+2260
ENCODING 8800
SWIDTH 1000 0
DWIDTH 10 0
BBX 13 10 -1 -2
BITMAP 
0000
0000
0040
0FE0
0100
0100
1FC0
0400
0000
0000
ENDCHAR
STARTCHAR U+2261
ENCODING 8801
SWIDTH 1000 0
DWIDTH 10 0
BBX 13 10 -1 -2
BITMAP 
0000
0000
07F0
0000
0000
0FE0
0000
1FC0
0000
0000
ENDCHAR
STARTCHAR U+2262
ENCODING 8802
SWIDTH 1000 0
DWIDTH 10 0
BBX 13 10 -1 -2
BITMAP 
0000
0020
07F0
0080
0100
0FE0
0200
1FC0
0800
1000
ENDCHAR
STARTCHAR U+2264
ENCODING 8804
SWIDTH 1000 0
DWIDTH 10 0
BBX 13 10 -1 -2
BITMAP 
0000
0020
0180
0100
0040
0000
07C0
0000
0000
0000
ENDCHAR
STARTCHAR U+2265
ENCODING 8805
SWIDTH 1000 0
DWIDTH 10 0
BBX 13 10 -1 -2
BITMAP 
0000
0100
0160
0180
0600
0000
0F80
0000
0000
0000
ENDCHAR
STARTCHAR U+2266
ENCODING 8806
SWIDTH 1000 0
DWIDTH 10 0
BBX 13 10 -1 -2
BITMAP 
0000
0030
00C0
0C00
0300
00C0
00C0
1FC0
1FC0
0000
ENDCHAR
STARTCHAR U+2267
ENCODING 8807
SWIDTH 1000 0
DWIDTH 10 0
BBX 13 10 -1 -2
BITMAP 
0000
0400
0180
0060
0180
0600
1800
1FC0
1FC0
0000
ENDCHAR
STARTCHAR U+226A
ENCODING 8810
SWIDTH 1000 0
DWIDTH 10 0
BBX 13 10 -1 -2
BITMAP 
0000
00A0
01C0
0100
0A00
0100
0100
0080
0000
0000
ENDCHAR
STARTCHAR U+226B
ENCODING 8811
SWIDTH 1000 0
DWIDTH 10 0
BBX 13 10 -1 -2
BITMAP 
0000
0500
0380
0200
0140
0600
0800
1000
0000
0000
ENDCHAR
STARTCHAR U+226E
ENCODING 8814
SWIDTH 1000 0
DWIDTH 10 0
BBX 13 10 -1 -2
BITMAP 
0000
0240
0300
0C00
2400
1400
0800
0A00
0080
0000
ENDCHAR
STARTCHAR U+226F
ENCODING 8815
SWIDTH 1000 0
DWIDTH 10 0
BBX 13 10 -1 -2
BITMAP 
0000
0200
0100
0080
0000
01C0
0200
0C00
0000
0000
ENDCHAR
STARTCHAR U+2276
ENCODING 8822
SWIDTH 1000 0
DWIDTH 10 0
BBX 13 10 -1 -2
BITMAP 
0000
0030
0780
0300
0060
0C00
0300
03C0
1800
0000
ENDCHAR
STARTCHAR U+2277
ENCODING 8823
SWIDTH 1000 0
DWIDTH 10 0
BBX 13 10 -1 -2
BITMAP 
0000
0600
00F0
0380
0C00
0060
0600
1E00
00C0
0000
ENDCHAR
STARTCHAR U+2282
ENCODING 8834
SWIDTH 1000 0
DWIDTH 10 0
BBX 13 10 -1 -2
BITMAP 
0000
0000
01F0
0000
0800
0800
0800
07C0
0000
0000
ENDCHAR
STARTCHAR U+2283
ENCODING 8835
SWIDTH 1000 0
DWIDTH 10 0
BBX 13 10 -1 -2
BITMAP 
0000
0000
0780
0040
0020
0020
0040
1F80
0000
0000
ENDCHAR
STARTCHAR U+2284
ENCODING 8836
SWIDTH 1000 0
DWIDTH 10 0
BBX 13 10 -1 -2
BITMAP 
0000
0000
01F0
00C0
0880
0980
0A00
0FC0
0800
0000
ENDCHAR
STARTCHAR U+2285
ENCODING 8837
SWIDTH 1000 0
DWIDTH 10 0
BBX 13 10 -1 -2
BITMAP 
0000
0000
07E0
00C0
0120
0320
0440
1F80
1800
0000
ENDCHAR
STARTCHAR U+2286
ENCODING 8838
SWIDTH 1000 0
DWIDTH 10 0
BBX 13 10 -1 -2
BITMAP 
0000
0000
03F0
0400
0800
0000
07C0
1FC0
0000
0000
ENDCHAR
STARTCHAR U+2287
ENCODING 8839
SWIDTH 1000 0
DWIDTH 10 0
BBX 13 10 -1 -2
BITMAP 
0000
0000
07C0
0020
0020
00C0
1F00
1FC0
0000
0000
ENDCHAR
STARTCHAR U+228A
ENCODING 8842
SWIDTH 1000 0
DWIDTH 10 0
BBX 13 10 -1 -2
BITMAP 
0000
0000
03F0
0400
0800
0000
07C0
1FC0
0200
0400
ENDCHAR
STARTCHAR U+228B
ENCODING 8843
SWIDTH 1000 0
DWIDTH 10 0
BBX 13 10 -1 -2
BITMAP 
0000
0000
07C0
0020
0020
00C0
1F00
1FC0
0200
0400
ENDCHAR
STARTCHAR U+2295
ENCODING 8853
SWIDTH 1000 0
DWIDTH 10 0
BBX 13 10 -1 -2
BITMAP 
0000
01C0
06B0
0920
1110
1FF0
2220
1240
1B80
0E00
ENDCHAR
STARTCHAR U+2296
ENCODING 8854
SWIDTH 1000 0
DWIDTH 10 0
BBX 13 10 -1 -2
BITMAP 
0000
01C0
0630
0820
1010
1FF0
2020
1040
1980
0600
ENDCHAR
STARTCHAR U+2297
ENCODING 8855
SWIDTH 1000 0
DWIDTH 10 0
BBX 13 10 -1 -2
BITMAP 
0000
01C0
0A60
0C70
1290
1320
1520
18C0
19C0
0600
ENDCHAR
STARTCHAR U+2299
ENCODING 8857
SWIDTH 1000 0
DWIDTH 10 0
BBX 13 10 -1 -2
BITMAP 
00E0
0100
0200
0480
08C0
0000
0020
03C0
0000
0000
ENDCHAR
STARTCHAR U+22A5
ENCODING 8869
SWIDTH 1000 0
DWIDTH 10 0
BBX 13 10 -1 -2
BITMAP 
0000
0000
0080
0100
0100
0100
0200
1FC0
0000
0000
ENDCHAR
STARTCHAR U+22BF
ENCODING 8895
SWIDTH 1000 0
DWIDTH 10 0
BBX 13 10 -1 -2
BITMAP 
0000
0000
0010
0060
00A0
0320
0440
0840
1FC0
0000
ENDCHAR
STARTCHAR U+22DA
ENCODING 8922
SWIDTH 1000 0
DWIDTH 10 0
BBX 13 10 -1 -2
BITMAP 
0000
0030
0780
0300
0060
0FE0
1800
03C0
0F00
3000
ENDCHAR
STARTCHAR U+22DB
ENCODING 8923
SWIDTH 1000 0
DWIDTH 10 0
BBX 13 10 -1 -2
BITMAP 
0000
0600
00F0
0380
0C00
0FE0
00C0
1E00
0600
0180
ENDCHAR
STARTCHAR U+2305
ENCODING 8965
SWIDTH 1000 0
DWIDTH 10 0
BBX 13 10 -1 -2
BITMAP 
0000
0000
0000
0FE0
0100
0680
0880
0000
0000
0000
ENDCHAR
STARTCHAR U+2306
ENCODING 8966
SWIDTH 1000 0
DWIDTH 10 0
BBX 13 10 -1 -2
BITMAP 
0000
0000
07F0
0000
0FE0
0300
0500
0880
0000
0000
ENDCHAR
STARTCHAR U+2312
ENCODING 8978
SWIDTH 1000 0
DWIDTH 10 0
BBX 13 10 -1 -2
BITMAP 
0000
07E0
0808
0000
0000
0000
0000
0000
0000
0000
ENDCHAR
STARTCHAR U+2318
ENCODING 8984
SWIDTH 1000 0
DWIDTH 10 0
BBX 13 10 -1 -2
BITMAP 
0000
0420
0A50
0FE0
0480
0480
1F80
2940
1080
0000
ENDCHAR
STARTCHAR U+2423
ENCODING 9251
SWIDTH 1000 0
DWIDTH 10 0
BBX 13 10 -1 -2
BITMAP 
0000
0000
0000
0000
0000
0000
0000
0000
1080
3F00
ENDCHAR
STARTCHAR U+2460
ENCODING 9312
SWIDTH 1000 0
DWIDTH 10 0
BBX 13 10 -1 -2
BITMAP 
0000
03E0
0410
0B10
1110
1110
2220
2720
1080
0F00
ENDCHAR
STARTCHAR U+2461
ENCODING 9313
SWIDTH 1000 0
DWIDTH 10 0
BBX 13 10 -1 -2
BITMAP 
0000
03E0
0490
0810
1090
1310
2420
2F20
1080
0F00
ENDCHAR
STARTCHAR U+2462
ENCODING 9314
SWIDTH 1000 0
DWIDTH 10 0
BBX 13 10 -1 -2
BITMAP 
0000
03E0
0490
0810
1050
1110
20A0
2720
1000
0F00
ENDCHAR
STARTCHAR U+2463
ENCODING 9315
SWIDTH 1000 0
DWIDTH 10 0
BBX 13 10 -1 -2
BITMAP 
0000
03E0
0410
0B10
1510
1510
2F20
2220
1000
0F00
ENDCHAR
STARTCHAR U+2464
ENCODING 9316
SWIDTH 1000 0
DWIDTH 10 0
BBX 13 10 -1 -2
BITMAP 
0000
03E0
07F0
0C10
1410
1710
20A0
2720
1000
0F00
ENDCHAR
STARTCHAR U+2465
ENCODING 9317
SWIDTH 1000 0
DWIDTH 10 0
BBX 13 10 -1 -2
BITMAP 
0000
03E0
0490
0810
1410
1710
28A0
2720
1000
0F00
ENDCHAR
STARTCHAR U+2466
ENCODING 9318
SWIDTH 1000 0
DWIDTH 10 0
BBX 13 10 -1 -2
BITMAP 
0000
03E0
07F0
0CD0
1090
1110
2120
2220
1000
0F00
ENDCHAR
STARTCHAR U+2467
ENCODING 9319
SWIDTH 1000 0
DWIDTH 10 0
BBX 13 10 -1 -2
BITMAP 
0000
03E0
0490
0810
1450
1710
28A0
2720
1000
0F00
ENDCHAR
STARTCHAR U+2468
ENCODING 9320
SWIDTH 1000 0
DWIDTH 10 0
BBX 13 10 -1 -2
BITMAP 
0000
03E0
0490
0810
1450
13D0
20A0
2720
1000
0F00
ENDCHAR
STARTCHAR U+2469
ENCODING 9321
SWIDTH 1000 0
DWIDTH 10 0
BBX 13 10 -1 -2
BITMAP 
0000
07E0
0848
14D0
1550
1550
2AA0
2FA0
3000
3F00
ENDCHAR
STARTCHAR U+246A
ENCODING 9322
SWIDTH 1000 0
DWIDTH 10 0
BBX 13 10 -1 -2
BITMAP 
0000
07E0
0808
14D0
1450
1450
28A0
2DA0
30C0
3F00
ENDCHAR
STARTCHAR U+246B
ENCODING 9323
SWIDTH 1000 0
DWIDTH 10 0
BBX 13 10 -1 -2
BITMAP 
0000
07E0
08C8
1550
1450
1410
2820
2FA0
30C0
3F00
ENDCHAR
STARTCHAR U+246C
ENCODING 9324
SWIDTH 1000 0
DWIDTH 10 0
BBX 13 10 -1 -2
BITMAP 
0000
07E0
08C8
1550
1450
14D0
28A0
2FA0
3000
3F00
ENDCHAR
STARTCHAR U+246D
ENCODING 9325
SWIDTH 1000 0
DWIDTH 10 0
BBX 13 10 -1 -2
BITMAP 
0000
07E0
0808
14D0
1550
1650
2FA0
2DA0
30C0
3F00
ENDCHAR
STARTCHAR U+246E
ENCODING 9326
SWIDTH 1000 0
DWIDTH 10 0
BBX 13 10 -1 -2
BITMAP 
0000
07E0
08C8
1510
1510
15D0
28A0
2FA0
3000
3F00
ENDCHAR
STARTCHAR U+246F
ENCODING 9327
SWIDTH 1000 0
DWIDTH 10 0
BBX 13 10 -1 -2
BITMAP 
0000
07E0
0848
14D0
1510
15D0
2AA0
2FA0
3000
3F00
ENDCHAR
STARTCHAR U+2470
ENCODING 9328
SWIDTH 1000 0
DWIDTH 10 0
BBX 13 10 -1 -2
BITMAP 
0000
07E0
08F8
1550
1450
1490
2920
2D20
3000
3F00
ENDCHAR
STARTCHAR U+2471
ENCODING 9329
SWIDTH 1000 0
DWIDTH 10 0
BBX 13 10 -1 -2
BITMAP 
0000
07E0
0848
14D0
1550
15D0
2AA0
2FA0
3000
3F00
ENDCHAR
STARTCHAR U+2472
ENCODING 9330
SWIDTH 1000 0
DWIDTH 10 0
BBX 13 10 -1 -2
BITMAP 
0000
07E0
08C8
1550
1550
15D0
28A0
2FA0
3000
3F00
ENDCHAR
STARTCHAR U+2473
ENCODING 9331
SWIDTH 1000 0
DWIDTH 10 0
BBX 13 10 -1 -2
BITMAP 
0000
07E0
0978
11D0
13D0
16D0
29A0
3FA0
20C0
3F00
ENDCHAR
STARTCHAR U+2474
ENCODING 9332
SWIDTH 1000 0
DWIDTH 10 0
BBX 13 10 -1 -2
BITMAP 
0210
0408
04C0
0880
0880
0880
1100
1020
0800
0000
ENDCHAR
STARTCHAR U+2475
ENCODING 9333
SWIDTH 1000 0
DWIDTH 10 0
BBX 13 10 -1 -2
BITMAP 
0210
0408
0480
0840
0880
0B00
1400
1320
0800
0000
ENDCHAR
STARTCHAR U+2476
ENCODING 9334
SWIDTH 1000 0
DWIDTH 10 0
BBX 13 10 -1 -2
BITMAP 
0210
0408
0480
0840
0980
0840
1400
1220
0800
0000
ENDCHAR
STARTCHAR U+2477
ENCODING 9335
SWIDTH 1000 0
DWIDTH 10 0
BBX 13 10 -1 -2
BITMAP 
0210
0408
0460
09C0
0A40
0BC0
1080
1020
0800
0000
ENDCHAR
STARTCHAR U+2478
ENCODING 9336
SWIDTH 1000 0
DWIDTH 10 0
BBX 13 10 -1 -2
BITMAP 
0210
0408
05C0
0B00
0A00
0840
1400
1220
0800
0000
ENDCHAR
STARTCHAR U+2479
ENCODING 9337
SWIDTH 1000 0
DWIDTH 10 0
BBX 13 10 -1 -2
BITMAP 
0210
0408
04C0
0900
0B80
0A40
1200
1220
0800
0000
ENDCHAR
STARTCHAR U+247A
ENCODING 9338
SWIDTH 1000 0
DWIDTH 10 0
BBX 13 10 -1 -2
BITMAP 
0210
0408
04E0
0880
0880
0900
1200
1020
0800
0000
ENDCHAR
STARTCHAR U+247B
ENCODING 9339
SWIDTH 1000 0
DWIDTH 10 0
BBX 13 10 -1 -2
BITMAP 
0210
0408
0580
0A40
0980
0A40
1200
1220
0800
0000
ENDCHAR
STARTCHAR U+247C
ENCODING 9340
SWIDTH 1000 0
DWIDTH 10 0
BBX 13 10 -1 -2
BITMAP 
0210
0408
0580
0A40
09C0
0840
1400
1220
0800
0000
ENDCHAR
STARTCHAR U+247D
ENCODING 9341
SWIDTH 1000 0
DWIDTH 10 0
BBX 13 10 -1 -2
BITMAP 
0210
0408
0778
0AA0
0AA0
0AA0
14C0
10A0
0800
0000
ENDCHAR
STARTCHAR U+247E
ENCODING 9342
SWIDTH 1000 0
DWIDTH 10 0
BBX 13 10 -1 -2
BITMAP 
0210
0408
04A0
0940
0940
0940
1280
1020
0800
0000
ENDCHAR
STARTCHAR U+247F
ENCODING 9343
SWIDTH 1000 0
DWIDTH 10 0
BBX 13 10 -1 -2
BITMAP 
0210
0408
0778
0AA0
0A00
0A00
1500
11E0
0800
0000
ENDCHAR
STARTCHAR U+2480
ENCODING 9344
SWIDTH 1000 0
DWIDTH 10 0
BBX 13 10 -1 -2
BITMAP 
0210
0408
0778
0A20
0A40
0A40
1540
10A0
0800
0000
ENDCHAR
STARTCHAR U+2481
ENCODING 9345
SWIDTH 1000 0
DWIDTH 10 0
BBX 13 10 -1 -2
BITMAP 
0210
0408
0720
0AC0
0AC0
0AE0
1480
1020
0800
0000
ENDCHAR
STARTCHAR U+2482
ENCODING 9346
SWIDTH 1000 0
DWIDTH 10 0
BBX 13 10 -1 -2
BITMAP 
0210
0408
0778
0AC0
0A20
0A20
1540
10A0
0800
0000
ENDCHAR
STARTCHAR U+2483
ENCODING 9347
SWIDTH 1000 0
DWIDTH 10 0
BBX 13 10 -1 -2
BITMAP 
0000
10C0
1420
2800
2900
2A80
5080
5080
4300
0000
ENDCHAR
STARTCHAR U+2484
ENCODING 9348
SWIDTH 1000 0
DWIDTH 10 0
BBX 13 10 -1 -2
BITMAP 
0000
11C0
1420
2800
2800
2800
5200
5200
4000
0000
ENDCHAR
STARTCHAR U+2485
ENCODING 9349
SWIDTH 1000 0
DWIDTH 10 0
BBX 13 10 -1 -2
BITMAP 
0000
1080
1440
2840
2B00
2880
5080
5080
4300
0000
ENDCHAR
STARTCHAR U+2486
ENCODING 9350
SWIDTH 1000 0
DWIDTH 10 0
BBX 13 10 -1 -2
BITMAP 
0000
1080
1440
2840
28C0
2940
5080
5080
4300
0000
ENDCHAR
STARTCHAR U+2487
ENCODING 9351
SWIDTH 1000 0
DWIDTH 10 0
BBX 13 10 -1 -2
BITMAP 
0000
1640
18C0
2140
2140
3940
6280
6280
7900
0000
ENDCHAR
STARTCHAR U+2488
ENCODING 9352
SWIDTH 1000 0
DWIDTH 10 0
BBX 13 10 -1 -2
BITMAP 
0000
0200
0000
0000
0000
0000
0000
0000
0000
0000
ENDCHAR
STARTCHAR U+2489
ENCODING 9353
SWIDTH 1000 0
DWIDTH 10 0
BBX 13 10 -1 -2
BITMAP 
0000
0400
0080
0100
0000
0400
0800
1000
1200
0000
ENDCHAR
STARTCHAR U+248A
ENCODING 9354
SWIDTH 1000 0
DWIDTH 10 0
BBX 13 10 -1 -2
BITMAP 
0000
0400
0080
0000
0400
0000
0200
1200
1000
0000
ENDCHAR
STARTCHAR U+248B
ENCODING 9355
SWIDTH 1000 0
DWIDTH 10 0
BBX 13 10 -1 -2
BITMAP 
0000
0300
0300
0200
0A00
0A00
1E00
0400
0400
0800
ENDCHAR
STARTCHAR U+248C
ENCODING 9356
SWIDTH 1000 0
DWIDTH 10 0
BBX 13 10 -1 -2
BITMAP 
0000
0400
0400
0800
0C00
0A00
0200
0200
1000
0000
ENDCHAR
STARTCHAR U+248D
ENCODING 9357
SWIDTH 1000 0
DWIDTH 10 0
BBX 13 10 -1 -2
BITMAP 
0000
0400
0480
0800
0C00
0A00
1200
1200
1000
0000
ENDCHAR
STARTCHAR U+248E
ENCODING 9358
SWIDTH 1000 0
DWIDTH 10 0
BBX 13 10 -1 -2
BITMAP 
0000
0480
0100
0100
0200
0000
0000
0000
0000
0000
ENDCHAR
STARTCHAR U+248F
ENCODING 9359
SWIDTH 1000 0
DWIDTH 10 0
BBX 13 10 -1 -2
BITMAP 
0000
0400
0480
0400
0400
0800
1200
1200
1000
0000
ENDCHAR
STARTCHAR U+2490
ENCODING 9360
SWIDTH 1000 0
DWIDTH 10 0
BBX 13 10 -1 -2
BITMAP 
0000
0400
0480
0900
0900
0500
0200
1200
1000
0000
ENDCHAR
STARTCHAR U+2491
ENCODING 9361
SWIDTH 1000 0
DWIDTH 10 0
BBX 13 10 -1 -2
BITMAP 
0000
0A40
0A40
1480
1480
1480
2900
2900
2900
0000
ENDCHAR
STARTCHAR U+2492
ENCODING 9362
SWIDTH 1000 0
DWIDTH 10 0
BBX 13 10 -1 -2
BITMAP 
0000
0880
0880
1100
1100
1100
2200
2200
2200
0000
ENDCHAR
STARTCHAR U+2493
ENCODING 9363
SWIDTH 1000 0
DWIDTH 10 0
BBX 13 10 -1 -2
BITMAP 
0000
0A40
0840
1080
1000
1200
2400
2800
2900
0000
ENDCHAR
STARTCHAR U+2494
ENCODING 9364
SWIDTH 1000 0
DWIDTH 10 0
BBX 13 10 -1 -2
BITMAP 
0000
0A40
0840
1080
1100
1000
2100
2900
2900
0000
ENDCHAR
STARTCHAR U+2495
ENCODING 9365
SWIDTH 1000 0
DWIDTH 10 0
BBX 13 10 -1 -2
BITMAP 
0000
0880
0900
1000
1000
1400
2F00
2000
2000
0000
ENDCHAR
STARTCHAR U+2496
ENCODING 9366
SWIDTH 1000 0
DWIDTH 10 0
BBX 13 10 -1 -2
BITMAP 
0000
0A00
0A00
1400
1500
1500
2100
2100
2900
0000
ENDCHAR
STARTCHAR U+2497
ENCODING 9367
SWIDTH 1000 0
DWIDTH 10 0
BBX 13 10 -1 -2
BITMAP 
0000
0A40
0A40
1400
1500
1500
2900
2900
2900
0000
ENDCHAR
STARTCHAR U+2498
ENCODING 9368
SWIDTH 1000 0
DWIDTH 10 0
BBX 13 10 -1 -2
BITMAP 
0000
0A20
0800
1000
1000
1100
2200
2200
2200
0000
ENDCHAR
STARTCHAR U+2499
ENCODING 9369
SWIDTH 1000 0
DWIDTH 10 0
BBX 13 10 -1 -2
BITMAP 
0000
0A40
0A40
1280
1100
1000
2900
2900
2900
0000
ENDCHAR
STARTCHAR U+249A
ENCODING 9370
SWIDTH 1000 0
DWIDTH 10 0
BBX 13 10 -1 -2
BITMAP 
0000
0A40
0A40
1480
1480
1280
2100
2900
2900
0000
ENDCHAR
STARTCHAR U+249B
ENCODING 9371
SWIDTH 1000 0
DWIDTH 10 0
BBX 13 10 -1 -2
BITMAP 
0000
0200
0320
0640
0A40
0240
0480
0480
0800
0000
ENDCHAR
STARTCHAR U+249C
ENCODING 9372
SWIDTH 1000 0
DWIDTH 10 0
BBX 13 10 -1 -2
BITMAP 
0210
0408
0580
0A00
09C0
0A40
1200
1020
0800
0000
ENDCHAR
STARTCHAR U+249D
ENCODING 9373
SWIDTH 1000 0
DWIDTH 10 0
BBX 13 10 -1 -2
BITMAP 
0210
0408
0480
0980
0940
0980
1300
1020
0800
0000
ENDCHAR
STARTCHAR U+249E
ENCODING 9374
SWIDTH 1000 0
DWIDTH 10 0
BBX 13 10 -1 -2
BITMAP 
0210
0408
0480
0900
0A00
0A00
1200
1020
0800
0000
ENDCHAR
STARTCHAR U+249F
ENCODING 9375
SWIDTH 1000 0
DWIDTH 10 0
BBX 13 10 -1 -2
BITMAP 
0210
0408
0420
09C0
0A40
0A80
1300
1020
0800
0000
ENDCHAR
STARTCHAR U+24A0
ENCODING 9376
SWIDTH 1000 0
DWIDTH 10 0
BBX 13 10 -1 -2
BITMAP 
0210
0408
0480
0900
0BC0
0A00
1100
1020
0800
0000
ENDCHAR
STARTCHAR U+24A1
ENCODING 9377
SWIDTH 1000 0
DWIDTH 10 0
BBX 13 10 -1 -2
BITMAP 
0210
0408
04C0
0B80
0900
0900
1200
1020
0800
0000
ENDCHAR
STARTCHAR U+24A2
ENCODING 9378
SWIDTH 1000 0
DWIDTH 10 0
BBX 13 10 -1 -2
BITMAP 
0210
0408
04C0
09C0
0A40
09C0
1000
1220
0800
0000
ENDCHAR
STARTCHAR U+24A3
ENCODING 9379
SWIDTH 1000 0
DWIDTH 10 0
BBX 13 10 -1 -2
BITMAP 
0210
0408
0480
0980
0940
0940
1200
1020
0800
0000
ENDCHAR
STARTCHAR U+24A4
ENCODING 9380
SWIDTH 1000 0
DWIDTH 10 0
BBX 13 10 -1 -2
BITMAP 
0210
0408
0400
0800
0880
0880
1000
1020
0800
0000
ENDCHAR
STARTCHAR U+24A5
ENCODING 9381
SWIDTH 1000 0
DWIDTH 10 0
BBX 13 10 -1 -2
BITMAP 
0210
0408
0400
0800
0880
0880
1400
1020
0800
0000
ENDCHAR
STARTCHAR U+24A6
ENCODING 9382
SWIDTH 1000 0
DWIDTH 10 0
BBX 13 10 -1 -2
BITMAP 
0210
0408
0480
0900
0980
0940
1200
1020
0800
0000
ENDCHAR
STARTCHAR U+24A7
ENCODING 9383
SWIDTH 1000 0
DWIDTH 10 0
BBX 13 10 -1 -2
BITMAP 
0210
0408
0440
0880
0880
0880
1000
1020
0800
0000
ENDCHAR
STARTCHAR U+24A8
ENCODING 9384
SWIDTH 1000 0
DWIDTH 10 0
BBX 13 10 -1 -2
BITMAP 
0210
0408
0400
0AC0
0AC0
0AC0
1400
1020
0800
0000
ENDCHAR
STARTCHAR U+24A9
ENCODING 9385
SWIDTH 1000 0
DWIDTH 10 0
BBX 13 10 -1 -2
BITMAP 
0210
0408
04C0
0940
0940
0940
1200
1020
0800
0000
ENDCHAR
STARTCHAR U+24AA
ENCODING 9386
SWIDTH 1000 0
DWIDTH 10 0
BBX 13 10 -1 -2
BITMAP 
0210
0408
04C0
0940
0A40
0A80
1300
1020
0800
0000
ENDCHAR
STARTCHAR U+24AB
ENCODING 9387
SWIDTH 1000 0
DWIDTH 10 0
BBX 13 10 -1 -2
BITMAP 
0210
0408
04C0
0940
0940
0980
1200
1020
0800
0000
ENDCHAR
STARTCHAR U+24AC
ENCODING 9388
SWIDTH 1000 0
DWIDTH 10 0
BBX 13 10 -1 -2
BITMAP 
0210
0408
04C0
09C0
0A40
09C0
1080
1020
0800
0000
ENDCHAR
STARTCHAR U+24AD
ENCODING 9389
SWIDTH 1000 0
DWIDTH 10 0
BBX 13 10 -1 -2
BITMAP 
0210
0408
0400
0980
0900
0900
1200
1020
0800
0000
ENDCHAR
STARTCHAR U+24AE
ENCODING 9390
SWIDTH 1000 0
DWIDTH 10 0
BBX 13 10 -1 -2
BITMAP 
0210
0408
05C0
0A00
0980
0800
1600
1020
0800
0000
ENDCHAR
STARTCHAR U+24AF
ENCODING 9391
SWIDTH 1000 0
DWIDTH 10 0
BBX 13 10 -1 -2
BITMAP 
0210
0408
0480
0B80
0900
0900
1100
1020
0800
0000
ENDCHAR
STARTCHAR U+24B0
ENCODING 9392
SWIDTH 1000 0
DWIDTH 10 0
BBX 13 10 -1 -2
BITMAP 
0210
0408
0400
0A40
0A40
0A80
1300
1020
0800
0000
ENDCHAR
STARTCHAR U+24B1
ENCODING 9393
SWIDTH 1000 0
DWIDTH 10 0
BBX 13 10 -1 -2
BITMAP 
0210
0408
0400
0A40
0940
0900
1000
1020
0800
0000
ENDCHAR
STARTCHAR U+24B2
ENCODING 9394
SWIDTH 1000 0
DWIDTH 10 0
BBX 13 10 -1 -2
BITMAP 
0210
0408
0400
0AC0
0AC0
0B40
1200
1020
0800
0000
ENDCHAR
STARTCHAR U+24B3
ENCODING 9395
SWIDTH 1000 0
DWIDTH 10 0
BBX 13 10 -1 -2
BITMAP 
0210
0408
0400
0940
0880
0B40
1400
1020
0800
0000
ENDCHAR
STARTCHAR U+24B4
ENCODING 9396
SWIDTH 1000 0
DWIDTH 10 0
BBX 13 10 -1 -2
BITMAP 
0210
0408
0400
0940
0880
0880
1000
1020
0800
0000
ENDCHAR
STARTCHAR U+24B5
ENCODING 9397
SWIDTH 1000 0
DWIDTH 10 0
BBX 13 10 -1 -2
BITMAP 
0210
0408
04E0
08C0
0880
0B00
1580
1020
0800
0000
ENDCHAR
STARTCHAR U+24D0
ENCODING 9424
SWIDTH 1000 0
DWIDTH 10 0
BBX 13 10 -1 -2
BITMAP 
0000
03E0
0710
0810
1090
1F90
3120
3F20
1080
0F00
ENDCHAR
STARTCHAR U+24D1
ENCODING 9425
SWIDTH 1000 0
DWIDTH 10 0
BBX 13 10 -1 -2
BITMAP 
0000
03E0
0610
0C10
1510
1690
28A0
2FE0
1080
0F00
ENDCHAR
STARTCHAR U+24D2
ENCODING 9426
SWIDTH 1000 0
DWIDTH 10 0
BBX 13 10 -1 -2
BITMAP 
0000
03E0
0410
0B10
1410
1810
2020
2720
1000
0F00
ENDCHAR
STARTCHAR U+24D3
ENCODING 9427
SWIDTH 1000 0
DWIDTH 10 0
BBX 13 10 -1 -2
BITMAP 
0000
03E0
0430
0850
1750
19D0
31A0
3FA0
1080
0F00
ENDCHAR
STARTCHAR U+24D4
ENCODING 9428
SWIDTH 1000 0
DWIDTH 10 0
BBX 13 10 -1 -2
BITMAP 
0000
03E0
0410
0B10
1010
1F90
2020
2720
1000
0F00
ENDCHAR
STARTCHAR U+24D5
ENCODING 9429
SWIDTH 1000 0
DWIDTH 10 0
BBX 13 10 -1 -2
BITMAP 
0000
03E0
04F0
0910
1110
1790
2220
2220
1000
0F00
ENDCHAR
STARTCHAR U+24D6
ENCODING 9430
SWIDTH 1000 0
DWIDTH 10 0
BBX 13 10 -1 -2
BITMAP 
0000
03E0
0470
0890
1490
1E10
3120
3F20
1000
0F00
ENDCHAR
STARTCHAR U+24D7
ENCODING 9431
SWIDTH 1000 0
DWIDTH 10 0
BBX 13 10 -1 -2
BITMAP 
0000
03E0
0610
0C10
1510
1690
28A0
28A0
1080
0F00
ENDCHAR
STARTCHAR U+24D8
ENCODING 9432
SWIDTH 1000 0
DWIDTH 10 0
BBX 13 10 -1 -2
BITMAP 
0000
03E0
0410
0810
1310
1110
2220
2220
1000
0F00
ENDCHAR
STARTCHAR U+24D9
ENCODING 9433
SWIDTH 1000 0
DWIDTH 10 0
BBX 13 10 -1 -2
BITMAP 
0000
03E0
0410
0810
1190
1090
2120
2920
1600
1F00
ENDCHAR
STARTCHAR U+24DA
ENCODING 9434
SWIDTH 1000 0
DWIDTH 10 0
BBX 13 10 -1 -2
BITMAP 
0000
03E0
0610
0C90
1490
1510
2D20
28E0
10C0
0F00
ENDCHAR
STARTCHAR U+24DB
ENCODING 9435
SWIDTH 1000 0
DWIDTH 10 0
BBX 13 10 -1 -2
BITMAP 
0000
03E0
0410
0910
1110
1110
2220
2220
1000
0F00
ENDCHAR
STARTCHAR U+24DC
ENCODING 9436
SWIDTH 1000 0
DWIDTH 10 0
BBX 13 10 -1 -2
BITMAP 
0000
03E0
0410
1E90
1950
1950
32A0
3AE0
18C0
1F00
ENDCHAR
STARTCHAR U+24DD
ENCODING 9437
SWIDTH 1000 0
DWIDTH 10 0
BBX 13 10 -1 -2
BITMAP 
0000
03E0
0410
0910
1610
1450
28A0
3CE0
18C0
1F00
ENDCHAR
STARTCHAR U+24DE
ENCODING 9438
SWIDTH 1000 0
DWIDTH 10 0
BBX 13 10 -1 -2
BITMAP 
0000
03E0
0410
0B10
1410
1850
20A0
2720
1000
0F00
ENDCHAR
STARTCHAR U+24DF
ENCODING 9439
SWIDTH 1000 0
DWIDTH 10 0
BBX 13 10 -1 -2
BITMAP 
0000
03E0
07F0
0E50
1450
1690
2B20
3C20
1800
1F00
ENDCHAR
STARTCHAR U+24E0
ENCODING 9440
SWIDTH 1000 0
DWIDTH 10 0
BBX 13 10 -1 -2
BITMAP 
0000
03E0
0730
18D0
1850
11D0
26A0
21E0
10C0
0F00
ENDCHAR
STARTCHAR U+24E1
ENCODING 9441
SWIDTH 1000 0
DWIDTH 10 0
BBX 13 10 -1 -2
BITMAP 
0000
03E0
0410
0A90
1350
1210
2420
2420
1000
0F00
ENDCHAR
STARTCHAR U+24E2
ENCODING 9442
SWIDTH 1000 0
DWIDTH 10 0
BBX 13 10 -1 -2
BITMAP 
0000
03E0
0490
0810
1410
1310
20A0
2720
1000
0F00
ENDCHAR
STARTCHAR U+24E3
ENCODING 9443
SWIDTH 1000 0
DWIDTH 10 0
BBX 13 10 -1 -2
BITMAP 
0000
03E0
0410
0A10
1790
1210
2220
2120
1000
0F00
ENDCHAR
STARTCHAR U+24E4
ENCODING 9444
SWIDTH 1000 0
DWIDTH 10 0
BBX 13 10 -1 -2
BITMAP 
0000
03E0
0410
0810
1450
1450
25A0
23A0
1080
0F00
ENDCHAR
STARTCHAR U+24E5
ENCODING 9445
SWIDTH 1000 0
DWIDTH 10 0
BBX 13 10 -1 -2
BITMAP 
0000
03E0
0430
0CD0
1450
1490
2420
2220
1000
0F00
ENDCHAR
STARTCHAR U+24E6
ENCODING 9446
SWIDTH 1000 0
DWIDTH 10 0
BBX 13 10 -1 -2
BITMAP 
0000
03E0
0410
1D30
1950
1BD0
25A0
28A0
1080
0F00
ENDCHAR
STARTCHAR U+24E7
ENCODING 9447
SWIDTH 1000 0
DWIDTH 10 0
BBX 13 10 -1 -2
BITMAP 
0000
03E0
0430
0ED0
1450
1790
2520
3DE0
18C0
1F00
ENDCHAR
STARTCHAR U+24E8
ENCODING 9448
SWIDTH 1000 0
DWIDTH 10 0
BBX 13 10 -1 -2
BITMAP 
0000
03E0
0430
0ED0
1450
1210
2220
3C20
1000
0F00
ENDCHAR
STARTCHAR U+24E9
ENCODING 9449
SWIDTH 1000 0
DWIDTH 10 0
BBX 13 10 -1 -2
BITMAP 
0000
03E0
0410
0B90
1110
1210
24A0
3FA0
1880
1F00
ENDCHAR
STARTCHAR U+2500
ENCODING 9472
SWIDTH 1000 0
DWIDTH 10 0
BBX 13 10 -1 -2
BITMAP 
0000
0000
0000
0000
0000
3FF0
0000
0000
0000
0000
ENDCHAR
STARTCHAR U+2501
ENCODING 9473
SWIDTH 1000 0
DWIDTH 10 0
BBX 13 10 -1 -2
BITMAP 
0000
0000
0000
0000
3FF0
3FF0
0000
0000
0000
0000
ENDCHAR
STARTCHAR U+2502
ENCODING 9474
SWIDTH 1000 0
DWIDTH 10 0
BBX 13 10 -1 -2
BITMAP 
0080
0080
0080
0100
0100
0100
0200
0200
0200
0400
ENDCHAR
STARTCHAR U+2503
ENCODING 9475
SWIDTH 1000 0
DWIDTH 10 0
BBX 13 10 -1 -2
BITMAP 
0180
0180
0180
0300
0300
0300
0600
0600
0600
0C00
ENDCHAR
STARTCHAR U+2504
ENCODING 9476
SWIDTH 1000 0
DWIDTH 10 0
BBX 13 10 -1 -2
BITMAP 
0000
0000
0000
0000
1240
0000
0000
0000
0000
0000
ENDCHAR
STARTCHAR U+2505
ENCODING 9477
SWIDTH 1000 0
DWIDTH 10 0
BBX 13 10 -1 -2
BITMAP 
0000
0000
0000
0000
1240
1240
0000
0000
0000
0000
ENDCHAR
STARTCHAR U+2506
ENCODING 9478
SWIDTH 1000 0
DWIDTH 10 0
BBX 13 10 -1 -2
BITMAP 
0000
0100
0000
0000
0200
0000
0000
0400
0000
0000
ENDCHAR
STARTCHAR U+2507
ENCODING 9479
SWIDTH 1000 0
DWIDTH 10 0
BBX 13 10 -1 -2
BITMAP 
0000
0180
0000
0000
0300
0000
0000
0600
0000
0000
ENDCHAR
STARTCHAR U+2508
ENCODING 9480
SWIDTH 1000 0
DWIDTH 10 0
BBX 13 10 -1 -2
BITMAP 
0000
0000
0000
0000
35A0
0000
0000
0000
0000
0000
ENDCHAR
STARTCHAR U+2509
ENCODING 9481
SWIDTH 1000 0
DWIDTH 10 0
BBX 13 10 -1 -2
BITMAP 
0000
0000
0000
0000
35A0
35A0
0000
0000
0000
0000
ENDCHAR
STARTCHAR U+250A
ENCODING 9482
SWIDTH 1000 0
DWIDTH 10 0
BBX 13 10 -1 -2
BITMAP 
0100
0100
0000
0200
0000
0200
0400
0000
0400
0000
ENDCHAR
STARTCHAR U+250B
ENCODING 9483
SWIDTH 1000 0
DWIDTH 10 0
BBX 13 10 -1 -2
BITMAP 
0180
0180
0000
0300
0000
0300
0600
0000
0600
0000
ENDCHAR
STARTCHAR U+250C
ENCODING 9484
SWIDTH 1000 0
DWIDTH 10 0
BBX 13 10 -1 -2
BITMAP 
0000
0000
0000
0000
0000
01F0
0200
0200
0200
0400
ENDCHAR
STARTCHAR U+250D
ENCODING 9485
SWIDTH 1000 0
DWIDTH 10 0
BBX 13 10 -1 -2
BITMAP 
0000
0000
0000
00F0
00F0
0080
0100
0100
0100
0000
ENDCHAR
STARTCHAR U+250E
ENCODING 9486
SWIDTH 1000 0
DWIDTH 10 0
BBX 13 10 -1 -2
BITMAP 
0000
0000
0000
01F0
0180
0180
0300
0300
0300
0000
ENDCHAR
STARTCHAR U+250F
ENCODING 9487
SWIDTH 1000 0
DWIDTH 10 0
BBX 13 10 -1 -2
BITMAP 
0000
0000
0000
0000
03F0
03F0
0600
0600
0600
0C00
ENDCHAR
STARTCHAR U+2510
ENCODING 9488
SWIDTH 1000 0
DWIDTH 10 0
BBX 13 10 -1 -2
BITMAP 
0000
0000
0000
0000
0000
3F00
0200
0200
0200
0400
ENDCHAR
STARTCHAR U+2511
ENCODING 9489
SWIDTH 1000 0
DWIDTH 10 0
BBX 13 10 -1 -2
BITMAP 
0000
0000
0000
1F00
1F80
0080
0100
0100
0100
0000
ENDCHAR
STARTCHAR U+2512
ENCODING 9490
SWIDTH 1000 0
DWIDTH 10 0
BBX 13 10 -1 -2
BITMAP 
0000
0000
0000
1F00
0180
0180
0300
0300
0300
0000
ENDCHAR
STARTCHAR U+2513
ENCODING 9491
SWIDTH 1000 0
DWIDTH 10 0
BBX 13 10 -1 -2
BITMAP 
0000
0000
0000
0000
3F00
3F00
0600
0600
0600
0C00
ENDCHAR
STARTCHAR U+2514
ENCODING 9492
SWIDTH 1000 0
DWIDTH 10 0
BBX 13 10 -1 -2
BITMAP 
0080
0080
0080
0100
0100
01F0
0000
0000
0000
0000
ENDCHAR
STARTCHAR U+2515
ENCODING 9493
SWIDTH 1000 0
DWIDTH 10 0
BBX 13 10 -1 -2
BITMAP 
0040
0040
0040
0080
00F0
00F0
0000
0000
0000
0000
ENDCHAR
STARTCHAR U+2516
ENCODING 9494
SWIDTH 1000 0
DWIDTH 10 0
BBX 13 10 -1 -2
BITMAP 
00C0
00C0
00C0
0180
01F0
0000
0000
0000
0000
0000
ENDCHAR
STARTCHAR U+2517
ENCODING 9495
SWIDTH 1000 0
DWIDTH 10 0
BBX 13 10 -1 -2
BITMAP 
0180
0180
0180
0300
03F0
03F0
0000
0000
0000
0000
ENDCHAR
STARTCHAR U+2518
ENCODING 9496
SWIDTH 1000 0
DWIDTH 10 0
BBX 13 10 -1 -2
BITMAP 
0080
0080
0080
0100
0100
3F00
0000
0000
0000
0000
ENDCHAR
STARTCHAR U+2519
ENCODING 9497
SWIDTH 1000 0
DWIDTH 10 0
BBX 13 10 -1 -2
BITMAP 
0040
0040
0040
0080
1F80
1F80
0000
0000
0000
0000
ENDCHAR
STARTCHAR U+251A
ENCODING 9498
SWIDTH 1000 0
DWIDTH 10 0
BBX 13 10 -1 -2
BITMAP 
00C0
00C0
00C0
0180
1F80
0000
0000
0000
0000
0000
ENDCHAR
STARTCHAR U+251B
ENCODING 9499
SWIDTH 1000 0
DWIDTH 10 0
BBX 13 10 -1 -2
BITMAP 
0180
0180
0180
0300
3F00
3F00
0000
0000
0000
0000
ENDCHAR
STARTCHAR U+251C
ENCODING 9500
SWIDTH 1000 0
DWIDTH 10 0
BBX 13 10 -1 -2
BITMAP 
0080
0080
0080
0100
0100
01F0
0200
0200
0200
0400
ENDCHAR
STARTCHAR U+251D
ENCODING 9501
SWIDTH 1000 0
DWIDTH 10 0
BBX 13 10 -1 -2
BITMAP 
0080
0080
0080
0100
01F0
01F0
0200
0200
0200
0400
ENDCHAR
STARTCHAR U+251E
ENCODING 9502
SWIDTH 1000 0
DWIDTH 10 0
BBX 13 10 -1 -2
BITMAP 
00C0
00C0
00C0
0180
01F0
0080
0100
0100
0100
0200
ENDCHAR
STARTCHAR U+251F
ENCODING 9503
SWIDTH 1000 0
DWIDTH 10 0
BBX 13 10 -1 -2
BITMAP 
0040
0040
0040
0080
01F0
0180
0300
0300
0300
0600
ENDCHAR
STARTCHAR U+2520
ENCODING 9504
SWIDTH 1000 0
DWIDTH 10 0
BBX 13 10 -1 -2
BITMAP 
0180
0180
0180
0300
0300
03F0
0600
0600
0600
0C00
ENDCHAR
STARTCHAR U+2521
ENCODING 9505
SWIDTH 1000 0
DWIDTH 10 0
BBX 13 10 -1 -2
BITMAP 
00C0
00C0
00C0
0180
01F0
01F0
0100
0100
0100
0200
ENDCHAR
STARTCHAR U+2522
ENCODING 9506
SWIDTH 1000 0
DWIDTH 10 0
BBX 13 10 -1 -2
BITMAP 
0040
0040
0040
0080
01F0
01F0
0300
0300
0300
0600
ENDCHAR
STARTCHAR U+2523
ENCODING 9507
SWIDTH 1000 0
DWIDTH 10 0
BBX 13 10 -1 -2
BITMAP 
0180
0180
0180
0300
03F0
03F0
0600
0600
0600
0C00
ENDCHAR
STARTCHAR U+2524
ENCODING 9508
SWIDTH 1000 0
DWIDTH 10 0
BBX 13 10 -1 -2
BITMAP 
0080
0080
0080
0100
0100
3F00
0200
0200
0200
0400
ENDCHAR
STARTCHAR U+2525
ENCODING 9509
SWIDTH 1000 0
DWIDTH 10 0
BBX 13 10 -1 -2
BITMAP 
0080
0080
0080
0100
3F00
3F00
0200
0200
0200
0400
ENDCHAR
STARTCHAR U+2526
ENCODING 9510
SWIDTH 1000 0
DWIDTH 10 0
BBX 13 10 -1 -2
BITMAP 
00C0
00C0
00C0
0180
1F80
0080
0100
0100
0100
0200
ENDCHAR
STARTCHAR U+2527
ENCODING 9511
SWIDTH 1000 0
DWIDTH 10 0
BBX 13 10 -1 -2
BITMAP 
0040
0040
0040
0080
1F80
0180
0300
0300
0300
0600
ENDCHAR
STARTCHAR U+2528
ENCODING 9512
SWIDTH 1000 0
DWIDTH 10 0
BBX 13 10 -1 -2
BITMAP 
0180
0180
0180
0300
0300
3F00
0600
0600
0600
0C00
ENDCHAR
STARTCHAR U+2529
ENCODING 9513
SWIDTH 1000 0
DWIDTH 10 0
BBX 13 10 -1 -2
BITMAP 
00C0
00C0
00C0
0180
1F80
1F80
0100
0100
0100
0200
ENDCHAR
STARTCHAR U+252A
ENCODING 9514
SWIDTH 1000 0
DWIDTH 10 0
BBX 13 10 -1 -2
BITMAP 
0040
0040
0040
0080
1F80
1F80
0300
0300
0300
0600
ENDCHAR
STARTCHAR U+252B
ENCODING 9515
SWIDTH 1000 0
DWIDTH 10 0
BBX 13 10 -1 -2
BITMAP 
0180
0180
0180
0300
3F00
3F00
0600
0600
0600
0C00
ENDCHAR
STARTCHAR U+252C
ENCODING 9516
SWIDTH 1000 0
DWIDTH 10 0
BBX 13 10 -1 -2
BITMAP 
0000
0000
0000
0000
0000
3FF0
0200
0200
0200
0400
ENDCHAR
STARTCHAR U+252D
ENCODING 9517
SWIDTH 1000 0
DWIDTH 10 0
BBX 13 10 -1 -2
BITMAP 
0000
0000
0000
1FF0
1F80
0080
0100
0100
0100
0000
ENDCHAR
STARTCHAR U+252E
ENCODING 9518
SWIDTH 1000 0
DWIDTH 10 0
BBX 13 10 -1 -2
BITMAP 
0000
0000
0000
1FF0
00F0
0080
0100
0100
0100
0000
ENDCHAR
STARTCHAR U+252F
ENCODING 9519
SWIDTH 1000 0
DWIDTH 10 0
BBX 13 10 -1 -2
BITMAP 
0000
0000
0000
0000
3FF0
3FF0
0200
0200
0200
0400
ENDCHAR
STARTCHAR U+2530
ENCODING 9520
SWIDTH 1000 0
DWIDTH 10 0
BBX 13 10 -1 -2
BITMAP 
0000
0000
0000
0000
0000
3FF0
0600
0600
0600
0C00
ENDCHAR
STARTCHAR U+2531
ENCODING 9521
SWIDTH 1000 0
DWIDTH 10 0
BBX 13 10 -1 -2
BITMAP 
0000
0000
0000
1FF0
1F80
0180
0300
0300
0300
0000
ENDCHAR
STARTCHAR U+2532
ENCODING 9522
SWIDTH 1000 0
DWIDTH 10 0
BBX 13 10 -1 -2
BITMAP 
0000
0000
0000
1FF0
01F0
0180
0300
0300
0300
0000
ENDCHAR
STARTCHAR U+2533
ENCODING 9523
SWIDTH 1000 0
DWIDTH 10 0
BBX 13 10 -1 -2
BITMAP 
0000
0000
0000
0000
3FF0
3FF0
0600
0600
0600
0C00
ENDCHAR
STARTCHAR U+2534
ENCODING 9524
SWIDTH 1000 0
DWIDTH 10 0
BBX 13 10 -1 -2
BITMAP 
0080
0080
0080
0100
0100
3FF0
0000
0000
0000
0000
ENDCHAR
STARTCHAR U+2535
ENCODING 9525
SWIDTH 1000 0
DWIDTH 10 0
BBX 13 10 -1 -2
BITMAP 
0040
0040
0040
0080
1FF0
1F80
0000
0000
0000
0000
ENDCHAR
STARTCHAR U+2536
ENCODING 9526
SWIDTH 1000 0
DWIDTH 10 0
BBX 13 10 -1 -2
BITMAP 
0040
0040
0040
0080
1FF0
00F0
0000
0000
0000
0000
ENDCHAR
STARTCHAR U+2537
ENCODING 9527
SWIDTH 1000 0
DWIDTH 10 0
BBX 13 10 -1 -2
BITMAP 
0080
0080
0080
0100
3FF0
3FF0
0000
0000
0000
0000
ENDCHAR
STARTCHAR U+2538
ENCODING 9528
SWIDTH 1000 0
DWIDTH 10 0
BBX 13 10 -1 -2
BITMAP 
0180
0180
0180
0300
0300
3FF0
0000
0000
0000
0000
ENDCHAR
STARTCHAR U+2539
ENCODING 9529
SWIDTH 1000 0
DWIDTH 10 0
BBX 13 10 -1 -2
BITMAP 
00C0
00C0
00C0
0180
1FF0
1F80
0000
0000
0000
0000
ENDCHAR
STARTCHAR U+253A
ENCODING 9530
SWIDTH 1000 0
DWIDTH 10 0
BBX 13 10 -1 -2
BITMAP 
00C0
00C0
00C0
0180
1FF0
01F0
0000
0000
0000
0000
ENDCHAR
STARTCHAR U+253B
ENCODING 9531
SWIDTH 1000 0
DWIDTH 10 0
BBX 13 10 -1 -2
BITMAP 
0180
0180
0180
0300
3FF0
3FF0
0000
0000
0000
0000
ENDCHAR
STARTCHAR U+253C
ENCODING 9532
SWIDTH 1000 0
DWIDTH 10 0
BBX 13 10 -1 -2
BITMAP 
0080
0080
0080
0100
0100
3FF0
0200
0200
0200
0400
ENDCHAR
STARTCHAR U+253D
ENCODING 9533
SWIDTH 1000 0
DWIDTH 10 0
BBX 13 10 -1 -2
BITMAP 
0040
0040
0040
0080
1FF0
1F80
0100
0100
0100
0200
ENDCHAR
STARTCHAR U+253E
ENCODING 9534
SWIDTH 1000 0
DWIDTH 10 0
BBX 13 10 -1 -2
BITMAP 
0040
0040
0040
0080
1FF0
00F0
0100
0100
0100
0200
ENDCHAR
STARTCHAR U+253F
ENCODING 9535
SWIDTH 1000 0
DWIDTH 10 0
BBX 13 10 -1 -2
BITMAP 
0080
0080
0080
0100
3FF0
3FF0
0200
0200
0200
0400
ENDCHAR
STARTCHAR U+2540
ENCODING 9536
SWIDTH 1000 0
DWIDTH 10 0
BBX 13 10 -1 -2
BITMAP 
00C0
00C0
00C0
0180
1FF0
0080
0100
0100
0100
0200
ENDCHAR
STARTCHAR U+2541
ENCODING 9537
SWIDTH 1000 0
DWIDTH 10 0
BBX 13 10 -1 -2
BITMAP 
0040
0040
0040
0080
1FF0
0180
0300
0300
0300
0600
ENDCHAR
STARTCHAR U+2542
ENCODING 9538
SWIDTH 1000 0
DWIDTH 10 0
BBX 13 10 -1 -2
BITMAP 
0180
0180
0180
0300
0300
3FF0
0600
0600
0600
0C00
ENDCHAR
STARTCHAR U+2543
ENCODING 9539
SWIDTH 1000 0
DWIDTH 10 0
BBX 13 10 -1 -2
BITMAP 
00C0
00C0
00C0
0180
1F80
1F80
0100
0100
0100
0200
ENDCHAR
STARTCHAR U+2544
ENCODING 9540
SWIDTH 1000 0
DWIDTH 10 0
BBX 13 10 -1 -2
BITMAP 
00C0
00C0
00C0
0180
1FF0
01F0
0100
0100
0100
0200
ENDCHAR
STARTCHAR U+2545
ENCODING 9541
SWIDTH 1000 0
DWIDTH 10 0
BBX 13 10 -1 -2
BITMAP 
0040
0040
0040
0080
1FF0
1F80
0300
0300
0300
0600
ENDCHAR
STARTCHAR U+2546
ENCODING 9542
SWIDTH 1000 0
DWIDTH 10 0
BBX 13 10 -1 -2
BITMAP 
0040
0040
0040
0080
1FF0
01F0
0300
0300
0300
0600
ENDCHAR
STARTCHAR U+2547
ENCODING 9543
SWIDTH 1000 0
DWIDTH 10 0
BBX 13 10 -1 -2
BITMAP 
00C0
00C0
00C0
0180
1FF0
1FF0
0100
0100
0100
0200
ENDCHAR
STARTCHAR U+2548
ENCODING 9544
SWIDTH 1000 0
DWIDTH 10 0
BBX 13 10 -1 -2
BITMAP 
0040
0040
0040
0080
1FF0
1FF0
0300
0300
0300
0600
ENDCHAR
STARTCHAR U+2549
ENCODING 9545
SWIDTH 1000 0
DWIDTH 10 0
BBX 13 10 -1 -2
BITMAP 
00C0
00C0
00C0
0180
1FF0
1F80
0300
0300
0300
0600
ENDCHAR
STARTCHAR U+254A
ENCODING 9546
SWIDTH 1000 0
DWIDTH 10 0
BBX 13 10 -1 -2
BITMAP 
00C0
00C0
00C0
0180
1FF0
01F0
0300
0300
0300
0600
ENDCHAR
STARTCHAR U+254B
ENCODING 9547
SWIDTH 1000 0
DWIDTH 10 0
BBX 13 10 -1 -2
BITMAP 
0180
0180
0180
0300
3FF0
3FF0
0600
0600
0600
0C00
ENDCHAR
STARTCHAR U+2550
ENCODING 9552
SWIDTH 1000 0
DWIDTH 10 0
BBX 13 10 -1 -2
BITMAP 
0000
0000
1FF8
3FF0
0000
0000
0000
7FE0
0000
0000
ENDCHAR
STARTCHAR U+255E
ENCODING 9566
SWIDTH 1000 0
DWIDTH 10 0
BBX 13 10 -1 -2
BITMAP 
0000
0180
01F8
03F0
0300
0300
0600
07E0
0600
0C00
ENDCHAR
STARTCHAR U+2561
ENCODING 9569
SWIDTH 1000 0
DWIDTH 10 0
BBX 13 10 -1 -2
BITMAP 
0000
0180
1F80
3F00
0300
0300
0600
7E00
0600
0C00
ENDCHAR
STARTCHAR U+256A
ENCODING 9578
SWIDTH 1000 0
DWIDTH 10 0
BBX 13 10 -1 -2
BITMAP 
0000
0180
1FF8
3FF0
0300
0300
0600
7FE0
0600
0C00
ENDCHAR
STARTCHAR U+256D
ENCODING 9581
SWIDTH 1000 0
DWIDTH 10 0
BBX 13 10 -1 -2
BITMAP 
0000
0000
0000
0000
0000
00E0
0300
0200
0600
0C00
ENDCHAR
STARTCHAR U+256E
ENCODING 9582
SWIDTH 1000 0
DWIDTH 10 0
BBX 13 10 -1 -2
BITMAP 
0000
0000
0000
0000
0000
3800
1800
0C00
0400
0800
ENDCHAR
STARTCHAR U+256F
ENCODING 9583
SWIDTH 1000 0
DWIDTH 10 0
BBX 13 10 -1 -2
BITMAP 
0000
0100
0300
0C00
3800
0000
0000
0000
0000
0000
ENDCHAR
STARTCHAR U+2570
ENCODING 9584
SWIDTH 1000 0
DWIDTH 10 0
BBX 13 10 -1 -2
BITMAP 
0000
0180
0080
0180
0060
0000
0000
0000
0000
0000
ENDCHAR
STARTCHAR U+2571
ENCODING 9585
SWIDTH 1000 0
DWIDTH 10 0
BBX 13 10 -1 -2
BITMAP 
0000
0010
0060
0080
0100
0600
0800
1000
6000
8000
ENDCHAR
STARTCHAR U+2572
ENCODING 9586
SWIDTH 1000 0
DWIDTH 10 0
BBX 13 10 -1 -2
BITMAP 
0000
0800
0400
0400
0200
0100
0100
0080
0040
0040
ENDCHAR
STARTCHAR U+2573
ENCODING 9587
SWIDTH 1000 0
DWIDTH 10 0
BBX 13 10 -1 -2
BITMAP 
0000
0810
0460
0480
0300
0700
0900
1080
6040
8040
ENDCHAR
STARTCHAR U+2581
ENCODING 9601
SWIDTH 1000 0
DWIDTH 10 0
BBX 13 10 -1 -2
BITMAP 
0000
0000
0000
0000
0000
0000
0000
0000
0000
FFC0
ENDCHAR
STARTCHAR U+2582
ENCODING 9602
SWIDTH 1000 0
DWIDTH 10 0
BBX 13 10 -1 -2
BITMAP 
0000
0000
0000
0000
0000
0000
0000
7FE0
7FE0
FFC0
ENDCHAR
STARTCHAR U+2583
ENCODING 9603
SWIDTH 1000 0
DWIDTH 10 0
BBX 13 10 -1 -2
BITMAP 
0000
0000
0000
0000
0000
0000
7FE0
7FE0
7FE0
FFC0
ENDCHAR
STARTCHAR U+2584
ENCODING 9604
SWIDTH 1000 0
DWIDTH 10 0
BBX 13 10 -1 -2
BITMAP 
0000
0000
0000
0000
0000
3FF0
7FE0
7FE0
7FE0
FFC0
ENDCHAR
STARTCHAR U+2585
ENCODING 9605
SWIDTH 1000 0
DWIDTH 10 0
BBX 13 10 -1 -2
BITMAP 
0000
0000
0000
0000
3FF0
3FF0
7FE0
7FE0
7FE0
FFC0
ENDCHAR
STARTCHAR U+2586
ENCODING 9606
SWIDTH 1000 0
DWIDTH 10 0
BBX 13 10 -1 -2
BITMAP 
0000
0000
1FF8
3FF0
3FF0
3FF0
7FE0
7FE0
7FE0
FFC0
ENDCHAR
STARTCHAR U+2587
ENCODING 9607
SWIDTH 1000 0
DWIDTH 10 0
BBX 13 10 -1 -2
BITMAP 
0000
1FF8
1FF8
3FF0
3FF0
3FF0
7FE0
7FE0
7FE0
FFC0
ENDCHAR
STARTCHAR U+2588
ENCODING 9608
SWIDTH 1000 0
DWIDTH 10 0
BBX 13 10 -1 -2
BITMAP 
0000
1FF8
1FF8
3FF0
3FF0
3FF0
7FE0
7FE0
7FE0
FFC0
ENDCHAR
STARTCHAR U+2589
ENCODING 9609
SWIDTH 1000 0
DWIDTH 10 0
BBX 13 10 -1 -2
BITMAP 
0000
1FF0
1FF0
3FE0
3FE0
3FE0
7FC0
7FC0
7FC0
FF80
ENDCHAR
STARTCHAR U+258A
ENCODING 9610
SWIDTH 1000 0
DWIDTH 10 0
BBX 13 10 -1 -2
BITMAP 
0000
1FE0
1FE0
3FC0
3FC0
3FC0
7F80
7F80
7F80
FF00
ENDCHAR
STARTCHAR U+258B
ENCODING 9611
SWIDTH 1000 0
DWIDTH 10 0
BBX 13 10 -1 -2
BITMAP 
0000
1F80
1F80
3F00
3F00
3F00
7E00
7E00
7E00
FC00
ENDCHAR
STARTCHAR U+258C
ENCODING 9612
SWIDTH 1000 0
DWIDTH 10 0
BBX 13 10 -1 -2
BITMAP 
0000
1F00
1F00
3E00
3E00
3E00
7C00
7C00
7C00
F800
ENDCHAR
STARTCHAR U+258D
ENCODING 9613
SWIDTH 1000 0
DWIDTH 10 0
BBX 13 10 -1 -2
BITMAP 
0000
1E00
1E00
3C00
3C00
3C00
7800
7800
7800
F000
ENDCHAR
STARTCHAR U+258E
ENCODING 9614
SWIDTH 1000 0
DWIDTH 10 0
BBX 13 10 -1 -2
BITMAP 
0000
1C00
1C00
3800
3800
3800
7000
7000
7000
E000
ENDCHAR
STARTCHAR U+258F
ENCODING 9615
SWIDTH 1000 0
DWIDTH 10 0
BBX 13 10 -1 -2
BITMAP 
0000
1000
1000
2000
2000
2000
4000
4000
4000
8000
ENDCHAR
STARTCHAR U+2592
ENCODING 9618
SWIDTH 1000 0
DWIDTH 10 0
BBX 13 10 -1 -2
BITMAP 
07F8
0508
0408
0810
0A10
0810
1020
1FE0
0000
0000
ENDCHAR
STARTCHAR U+2594
ENCODING 9620
SWIDTH 1000 0
DWIDTH 10 0
BBX 13 10 -1 -2
BITMAP 
0000
0000
0000
0000
0000
0000
0000
0000
0000
0000
ENDCHAR
STARTCHAR U+2595
ENCODING 9621
SWIDTH 1000 0
DWIDTH 10 0
BBX 13 10 -1 -2
BITMAP 
0000
0008
0008
0010
0010
0010
0020
0020
0020
0040
ENDCHAR
STARTCHAR U+25A0
ENCODING 9632
SWIDTH 1000 0
DWIDTH 10 0
BBX 13 10 -1 -2
BITMAP 
0000
0FF0
0FF0
1FE0
1FE0
1FE0
3FC0
3FC0
3FC0
0000
ENDCHAR
STARTCHAR U+25A1
ENCODING 9633
SWIDTH 1000 0
DWIDTH 10 0
BBX 13 10 -1 -2
BITMAP 
0000
0FF0
0810
1020
1020
1020
2040
2040
3FC0
0000
ENDCHAR
STARTCHAR U+25A3
ENCODING 9635
SWIDTH 1000 0
DWIDTH 10 0
BBX 13 10 -1 -2
BITMAP 
07F8
0408
04C8
0BD0
0BD0
0B90
1020
1FE0
0000
0000
ENDCHAR
STARTCHAR U+25A4
ENCODING 9636
SWIDTH 1000 0
DWIDTH 10 0
BBX 13 10 -1 -2
BITMAP 
07F8
0408
07F8
0810
0810
0FF0
1020
1FE0
0000
0000
ENDCHAR
STARTCHAR U+25A5
ENCODING 9637
SWIDTH 1000 0
DWIDTH 10 0
BBX 13 10 -1 -2
BITMAP 
07F8
0528
0528
0A50
0A50
0A50
14A0
1FE0
0000
0000
ENDCHAR
STARTCHAR U+25A6
ENCODING 9638
SWIDTH 1000 0
DWIDTH 10 0
BBX 13 10 -1 -2
BITMAP 
07F8
0528
07F8
0AD0
0A50
0FF0
14A0
1FE0
0000
0000
ENDCHAR
STARTCHAR U+25A7
ENCODING 9639
SWIDTH 1000 0
DWIDTH 10 0
BBX 13 10 -1 -2
BITMAP 
07F8
0448
0528
0930
0890
0C50
1420
1FE0
0000
0000
ENDCHAR
STARTCHAR U+25A8
ENCODING 9640
SWIDTH 1000 0
DWIDTH 10 0
BBX 13 10 -1 -2
BITMAP 
07F8
0498
0568
0890
0930
0E50
1820
1FE0
0000
0000
ENDCHAR
STARTCHAR U+25A9
ENCODING 9641
SWIDTH 1000 0
DWIDTH 10 0
BBX 13 10 -1 -2
BITMAP 
07F8
04B8
0578
0890
0D30
0E50
1A20
1FE0
0000
0000
ENDCHAR
STARTCHAR U+25B1
ENCODING 9649
SWIDTH 1000 0
DWIDTH 10 0
BBX 13 10 -1 -2
BITMAP 
0000
0000
01F8
0010
0820
0840
0040
3F80
0000
0000
ENDCHAR
STARTCHAR U+25B2
ENCODING 9650
SWIDTH 1000 0
DWIDTH 10 0
BBX 13 10 -1 -2
BITMAP 
0000
0000
0080
0380
0780
07C0
1F80
1FC0
1FC0
0000
ENDCHAR
STARTCHAR U+25B3
ENCODING 9651
SWIDTH 1000 0
DWIDTH 10 0
BBX 13 10 -1 -2
BITMAP 
0000
0000
0180
0280
0400
0840
0840
1040
1FC0
0000
ENDCHAR
STARTCHAR U+25B6
ENCODING 9654
SWIDTH 1000 0
DWIDTH 10 0
BBX 13 10 -1 -2
BITMAP 
0000
0000
0600
0F00
0F80
0FE0
1F00
1C00
1000
0000
ENDCHAR
STARTCHAR U+25B7
ENCODING 9655
SWIDTH 1000 0
DWIDTH 10 0
BBX 13 10 -1 -2
BITMAP 
0000
0000
0600
0900
0880
08E0
1100
1C00
1000
0000
ENDCHAR
STARTCHAR U+25BC
ENCODING 9660
SWIDTH 1000 0
DWIDTH 10 0
BBX 13 10 -1 -2
BITMAP 
0000
0000
07F0
0FE0
0FC0
07C0
0700
0700
0200
0000
ENDCHAR
STARTCHAR U+25BD
ENCODING 9661
SWIDTH 1000 0
DWIDTH 10 0
BBX 13 10 -1 -2
BITMAP 
0000
0000
07F0
0800
0840
0440
0000
0500
0200
0000
ENDCHAR
STARTCHAR U+25C0
ENCODING 9664
SWIDTH 1000 0
DWIDTH 10 0
BBX 13 10 -1 -2
BITMAP 
0000
0000
0030
01E0
07E0
0FE0
07C0
03C0
0040
0000
ENDCHAR
STARTCHAR U+25C1
ENCODING 9665
SWIDTH 1000 0
DWIDTH 10 0
BBX 13 10 -1 -2
BITMAP 
0000
0000
0070
01A0
0620
0820
0440
03C0
0040
0000
ENDCHAR
STARTCHAR U+25C6
ENCODING 9670
SWIDTH 1000 0
DWIDTH 10 0
BBX 13 10 -1 -2
BITMAP 
0000
0080
01C0
07C0
0FE0
1FF0
1FC0
0F80
0700
0400
ENDCHAR
STARTCHAR U+25C7
ENCODING 9671
SWIDTH 1000 0
DWIDTH 10 0
BBX 13 10 -1 -2
BITMAP 
0000
0080
0140
0040
0820
1030
1040
0880
0500
0600
ENDCHAR
STARTCHAR U+25C8
ENCODING 9672
SWIDTH 1000 0
DWIDTH 10 0
BBX 13 10 -1 -2
BITMAP 
0040
00A0
01F0
03D0
0FE0
03F0
03C0
0380
0100
0000
ENDCHAR
STARTCHAR U+25C9
ENCODING 9673
SWIDTH 1000 0
DWIDTH 10 0
BBX 13 10 -1 -2
BITMAP 
0000
01C0
07F0
0BA0
1FD0
1FD0
3FA0
1740
1980
0600
ENDCHAR
STARTCHAR U+25CB
ENCODING 9675
SWIDTH 1000 0
DWIDTH 10 0
BBX 13 10 -1 -2
BITMAP 
0000
0180
0A60
0840
1020
1040
1040
1980
0600
0000
ENDCHAR
STARTCHAR U+25CE
ENCODING 9678
SWIDTH 1000 0
DWIDTH 10 0
BBX 13 10 -1 -2
BITMAP 
0000
0180
07E0
0840
1860
1860
1080
1F80
0600
0000
ENDCHAR
STARTCHAR U+25CF
ENCODING 9679
SWIDTH 1000 0
DWIDTH 10 0
BBX 13 10 -1 -2
BITMAP 
0000
0180
07E0
0FC0
1FE0
1FE0
1F80
1F80
0600
0000
ENDCHAR
STARTCHAR U+25D0
ENCODING 9680
SWIDTH 1000 0
DWIDTH 10 0
BBX 13 10 -1 -2
BITMAP 
0000
01C0
07B0
0F20
1F10
1F10
3E20
1E40
1F80
0E00
ENDCHAR
STARTCHAR U+25D1
ENCODING 9681
SWIDTH 1000 0
DWIDTH 10 0
BBX 13 10 -1 -2
BITMAP 
0000
01C0
0AF0
09E0
11F0
11F0
13E0
13C0
1B80
0E00
ENDCHAR
STARTCHAR U+25D2
ENCODING 9682
SWIDTH 1000 0
DWIDTH 10 0
BBX 13 10 -1 -2
BITMAP 
0000
01C0
0630
0820
1010
1FF0
3FE0
1FC0
1FC0
0E00
ENDCHAR
STARTCHAR U+25D3
ENCODING 9683
SWIDTH 1000 0
DWIDTH 10 0
BBX 13 10 -1 -2
BITMAP 
0000
01C0
07F0
0FE0
1FF0
1FF0
2020
1040
1980
0600
ENDCHAR
STARTCHAR U+25E2
ENCODING 9698
SWIDTH 1000 0
DWIDTH 10 0
BBX 13 10 -1 -2
BITMAP 
0000
0008
0018
0070
00F0
01F0
07E0
0FE0
3FE0
5FC0
ENDCHAR
STARTCHAR U+25E3
ENCODING 9699
SWIDTH 1000 0
DWIDTH 10 0
BBX 13 10 -1 -2
BITMAP 
0000
1000
1800
3800
3C00
3E00
7E00
7F00
7F80
FF80
ENDCHAR
STARTCHAR U+25E4
ENCODING 9700
SWIDTH 1000 0
DWIDTH 10 0
BBX 13 10 -1 -2
BITMAP 
0000
1FF0
1FE0
3F80
3F00
3E00
7800
7000
6000
8000
ENDCHAR
STARTCHAR U+25E5
ENCODING 9701
SWIDTH 1000 0
DWIDTH 10 0
BBX 13 10 -1 -2
BITMAP 
0000
0FF8
07F8
07F0
03F0
01F0
01E0
00E0
0060
0040
ENDCHAR
STARTCHAR U+25E6
ENCODING 9702
SWIDTH 1000 0
DWIDTH 10 0
BBX 13 10 -1 -2
BITMAP 
0000
0000
0180
0280
0440
0580
0600
0000
0000
0000
ENDCHAR
STARTCHAR U+25EF
ENCODING 9711
SWIDTH 1000 0
DWIDTH 10 0
BBX 13 10 -1 -2
BITMAP 
0000
03C0
0420
0820
1020
1020
1040
1080
0F00
0000
ENDCHAR
STARTCHAR U+2600
ENCODING 9728
SWIDTH 1000 0
DWIDTH 10 0
BBX 13 10 -1 -2
BITMAP 
0000
0080
0410
0300
0780
17F0
0700
0200
1240
0400
ENDCHAR
STARTCHAR U+2601
ENCODING 9729
SWIDTH 1000 0
DWIDTH 10 0
BBX 13 10 -1 -2
BITMAP 
0000
0000
0380
0FE0
1FF0
1FE0
3FE0
1BC0
0000
0000
ENDCHAR
STARTCHAR U+2602
ENCODING 9730
SWIDTH 1000 0
DWIDTH 10 0
BBX 13 10 -1 -2
BITMAP 
0000
0080
03E0
0FE0
1FF0
1510
0200
0200
0400
1800
ENDCHAR
STARTCHAR U+2603
ENCODING 9731
SWIDTH 1000 0
DWIDTH 10 0
BBX 13 10 -1 -2
BITMAP 
0000
0278
0FF8
0EE0
0EE0
1B10
0200
2020
2240
1F80
ENDCHAR
STARTCHAR U+2605
ENCODING 9733
SWIDTH 1000 0
DWIDTH 10 0
BBX 13 10 -1 -2
BITMAP 
0000
0080
0080
1FF0
0FE0
07C0
1F80
1DC0
1040
0000
ENDCHAR
STARTCHAR U+2606
ENCODING 9734
SWIDTH 1000 0
DWIDTH 10 0
BBX 13 10 -1 -2
BITMAP 
0000
0080
0080
1C70
0860
0440
0A80
1DC0
1040
0000
ENDCHAR
STARTCHAR U+2609
ENCODING 9737
SWIDTH 1000 0
DWIDTH 10 0
BBX 13 10 -1 -2
BITMAP 
0000
0240
0000
1020
0300
0300
2040
0000
0900
0000
ENDCHAR
STARTCHAR U+260E
ENCODING 9742
SWIDTH 1000 0
DWIDTH 10 0
BBX 13 10 -1 -2
BITMAP 
0000
0000
0FF8
1FF0
0FC0
0C60
38C0
3FE0
3FE0
0000
ENDCHAR
STARTCHAR U+260F
ENCODING 9743
SWIDTH 1000 0
DWIDTH 10 0
BBX 13 10 -1 -2
BITMAP 
03F0
0408
07C0
0C30
0520
0920
1020
1FE0
0000
0000
ENDCHAR
STARTCHAR U+261C
ENCODING 9756
SWIDTH 1000 0
DWIDTH 10 0
BBX 13 10 -1 -2
BITMAP 
07F0
0408
0388
0310
0410
0390
0020
03C0
0000
0000
ENDCHAR
STARTCHAR U+261E
ENCODING 9758
SWIDTH 1000 0
DWIDTH 10 0
BBX 13 10 -1 -2
BITMAP 
0000
0000
07E0
1C10
1F60
1880
3400
1C00
0000
0000
ENDCHAR
STARTCHAR U+2640
ENCODING 9792
SWIDTH 1000 0
DWIDTH 10 0
BBX 13 10 -1 -2
BITMAP 
0000
0180
0640
0840
0440
0380
0200
0F80
0200
0400
ENDCHAR
STARTCHAR U+2641
ENCODING 9793
SWIDTH 1000 0
DWIDTH 10 0
BBX 13 10 -1 -2
BITMAP 
0000
03C0
05A0
0B20
1FE0
1FE0
2640
1680
0F00
0000
ENDCHAR
STARTCHAR U+2642
ENCODING 9794
SWIDTH 1000 0
DWIDTH 10 0
BBX 13 10 -1 -2
BITMAP 
0000
0000
0070
0060
00A0
0B00
0400
2200
0C00
3000
ENDCHAR
STARTCHAR U+2660
ENCODING 9824
SWIDTH 1000 0
DWIDTH 10 0
BBX 13 10 -1 -2
BITMAP 
0000
0080
01C0
07C0
0FE0
0FE0
1FC0
0A80
0600
0000
ENDCHAR
STARTCHAR U+2661
ENCODING 9825
SWIDTH 1000 0
DWIDTH 10 0
BBX 13 10 -1 -2
BITMAP 
0000
0340
04A0
0820
0820
0040
0000
0200
0200
0000
ENDCHAR
STARTCHAR U+2662
ENCODING 9826
SWIDTH 1000 0
DWIDTH 10 0
BBX 13 10 -1 -2
BITMAP 
0000
0080
0140
0040
0820
0840
0080
0500
0200
0000
ENDCHAR
STARTCHAR U+2663
ENCODING 9827
SWIDTH 1000 0
DWIDTH 10 0
BBX 13 10 -1 -2
BITMAP 
0000
01C0
03E0
03C0
0D60
0FE0
1FC0
0A80
0600
0000
ENDCHAR
STARTCHAR U+2664
ENCODING 9828
SWIDTH 1000 0
DWIDTH 10 0
BBX 13 10 -1 -2
BITMAP 
0000
0080
0140
0040
0820
0820
0F40
0A80
0600
0000
ENDCHAR
STARTCHAR U+2665
ENCODING 9829
SWIDTH 1000 0
DWIDTH 10 0
BBX 13 10 -1 -2
BITMAP 
0000
0360
07F0
0FE0
0FE0
07C0
0700
0200
0200
0000
ENDCHAR
STARTCHAR U+2666
ENCODING 9830
SWIDTH 1000 0
DWIDTH 10 0
BBX 13 10 -1 -2
BITMAP 
0000
0080
01C0
07C0
0FE0
0FE0
0F80
0700
0200
0000
ENDCHAR
STARTCHAR U+2667
ENCODING 9831
SWIDTH 1000 0
DWIDTH 10 0
BBX 13 10 -1 -2
BITMAP 
0000
0180
0240
0440
0AA0
0820
0F40
0A80
0600
0000
ENDCHAR
STARTCHAR U+2668
ENCODING 9832
SWIDTH 1000 0
DWIDTH 10 0
BBX 13 10 -1 -2
BITMAP 
0000
0080
0420
0A40
0A40
0A60
32A0
30A0
3000
3F00
ENDCHAR
STARTCHAR U+2669
ENCODING 9833
SWIDTH 1000 0
DWIDTH 10 0
BBX 13 10 -1 -2
BITMAP 
0000
0080
0080
0100
0100
0100
0200
0E00
1E00
3800
ENDCHAR
STARTCHAR U+266A
ENCODING 9834
SWIDTH 1000 0
DWIDTH 10 0
BBX 13 10 -1 -2
BITMAP 
0000
0080
00C0
01C0
0160
0140
0280
0E00
1E00
3800
ENDCHAR
STARTCHAR U+266B
ENCODING 9835
SWIDTH 1000 0
DWIDTH 10 0
BBX 13 10 -1 -2
BITMAP 
0000
03C0
03F0
0420
0420
0420
0840
38C0
39C0
0300
ENDCHAR
STARTCHAR U+266C
ENCODING 9836
SWIDTH 1000 0
DWIDTH 10 0
BBX 13 10 -1 -2
BITMAP 
0000
03C0
03F0
0720
07E0
04E0
0840
38C0
39C0
0300
ENDCHAR
STARTCHAR U+266D
ENCODING 9837
SWIDTH 1000 0
DWIDTH 10 0
BBX 13 10 -1 -2
BITMAP 
0000
0200
0200
0400
0580
0640
0880
0900
0E00
1800
ENDCHAR
STARTCHAR U+266E
ENCODING 9838
SWIDTH 1000 0
DWIDTH 10 0
BBX 13 10 -1 -2
BITMAP 
0000
0200
0260
07C0
0740
0440
0980
0F80
0880
0100
ENDCHAR
STARTCHAR U+266F
ENCODING 9839
SWIDTH 1000 0
DWIDTH 10 0
BBX 13 10 -1 -2
BITMAP 
0000
0020
03F0
0FE0
0EC0
0440
0DC0
1FC0
0980
1000
ENDCHAR
STARTCHAR U+2713
ENCODING 10003
SWIDTH 1000 0
DWIDTH 10 0
BBX 13 10 -1 -2
BITMAP 
0000
0000
0030
0040
0080
0100
3200
0C00
0800
0000
ENDCHAR
STARTCHAR U+2756
ENCODING 10070
SWIDTH 1000 0
DWIDTH 10 0
BBX 13 10 -1 -2
BITMAP 
0000
0180
03C0
0300
0CC0
1FE0
1980
0F00
0F00
0C00
ENDCHAR
STARTCHAR U+2776
ENCODING 10102
SWIDTH 1000 0
DWIDTH 10 0
BBX 13 10 -1 -2
BITMAP 
0000
07F0
0FF8
1CF0
1EF0
1EF0
3DE0
3DE0
3FC0
3F00
ENDCHAR
STARTCHAR U+2777
ENCODING 10103
SWIDTH 1000 0
DWIDTH 10 0
BBX 13 10 -1 -2
BITMAP 
0000
07F0
0FF8
1FF0
1F70
1EF0
3BE0
33E0
3FC0
3F00
ENDCHAR
STARTCHAR U+2778
ENCODING 10104
SWIDTH 1000 0
DWIDTH 10 0
BBX 13 10 -1 -2
BITMAP 
0000
07F0
0FF8
1FF0
1FF0
1E70
3FE0
3FE0
3FC0
3F00
ENDCHAR
STARTCHAR U+2779
ENCODING 10105
SWIDTH 1000 0
DWIDTH 10 0
BBX 13 10 -1 -2
BITMAP 
0000
07F0
0FF8
1CF0
1AF0
1EF0
30E0
3DE0
3FC0
3F00
ENDCHAR
STARTCHAR U+277A
ENCODING 10106
SWIDTH 1000 0
DWIDTH 10 0
BBX 13 10 -1 -2
BITMAP 
0000
07F0
0FF8
1BF0
1BF0
1870
3FE0
3FE0
3FC0
3F00
ENDCHAR
STARTCHAR U+277B
ENCODING 10107
SWIDTH 1000 0
DWIDTH 10 0
BBX 13 10 -1 -2
BITMAP 
0000
07F0
0FF8
1FF0
1BF0
1870
37E0
3FE0
3FC0
3F00
ENDCHAR
STARTCHAR U+277C
ENCODING 10108
SWIDTH 1000 0
DWIDTH 10 0
BBX 13 10 -1 -2
BITMAP 
0000
07F0
0FF8
1B70
1F70
1F70
3DE0
3DE0
3FC0
3F00
ENDCHAR
STARTCHAR U+277D
ENCODING 10109
SWIDTH 1000 0
DWIDTH 10 0
BBX 13 10 -1 -2
BITMAP 
0000
07F0
0FF8
1FF0
1BF0
1C70
37E0
3FE0
3FC0
3F00
ENDCHAR
STARTCHAR U+277E
ENCODING 10110
SWIDTH 1000 0
DWIDTH 10 0
BBX 13 10 -1 -2
BITMAP 
0000
07F0
0FF8
1FF0
1BF0
1C70
3FE0
3FE0
3FC0
3F00
ENDCHAR
STARTCHAR U+277F
ENCODING 10111
SWIDTH 1000 0
DWIDTH 10 0
BBX 13 10 -1 -2
BITMAP 
0000
07F0
0FF8
1AF0
1AF0
1AF0
33E0
33E0
3FC0
3F00
ENDCHAR
STARTCHAR U+3000
ENCODING 12288
SWIDTH 1000 0
DWIDTH 10 0
BBX 13 10 -1 -2
BITMAP 
0000
0000
0000
0000
0000
0000
0000
0000
0000
0000
ENDCHAR
STARTCHAR U+3001
ENCODING 12289
SWIDTH 1000 0
DWIDTH 10 0
BBX 13 10 -1 -2
BITMAP 
0000
0000
0000
0000
0000
0000
0000
3000
1800
3000
ENDCHAR
STARTCHAR U+3002
ENCODING 12290
SWIDTH 1000 0
DWIDTH 10 0
BBX 13 10 -1 -2
BITMAP 
0000
0000
0000
0000
0000
0000
0000
3800
3000
2000
ENDCHAR
STARTCHAR U+3003
ENCODING 12291
SWIDTH 1000 0
DWIDTH 10 0
BBX 13 10 -1 -2
BITMAP 
0000
0000
0000
0240
0240
0400
0500
0A00
0000
0000
ENDCHAR
STARTCHAR U+3005
ENCODING 12293
SWIDTH 1000 0
DWIDTH 10 0
BBX 13 10 -1 -2
BITMAP 
0000
0100
0100
03C0
0440
0800
0400
0200
0000
0000
ENDCHAR
STARTCHAR U+3006
ENCODING 12294
SWIDTH 1000 0
DWIDTH 10 0
BBX 13 10 -1 -2
BITMAP 
0000
0010
0020
0240
0180
0A00
1400
1800
1000
0000
ENDCHAR
STARTCHAR U+3007
ENCODING 12295
SWIDTH 1000 0
DWIDTH 10 0
BBX 13 10 -1 -2
BITMAP 
0000
0000
07C0
0820
1010
1010
1020
1040
0F80
0000
ENDCHAR
STARTCHAR U+3008
ENCODING 12296
SWIDTH 1000 0
DWIDTH 10 0
BBX 13 10 -1 -2
BITMAP 
0000
0020
0040
0040
0080
0100
0100
0100
0100
0100
ENDCHAR
STARTCHAR U+3009
ENCODING 12297
SWIDTH 1000 0
DWIDTH 10 0
BBX 13 10 -1 -2
BITMAP 
0000
0000
0200
0200
0200
0100
0200
0400
0800
0000
ENDCHAR
STARTCHAR U+300A
ENCODING 12298
SWIDTH 1000 0
DWIDTH 10 0
BBX 13 10 -1 -2
BITMAP 
0000
0008
0050
0080
0140
0240
0240
0240
0140
0040
ENDCHAR
STARTCHAR U+300B
ENCODING 12299
SWIDTH 1000 0
DWIDTH 10 0
BBX 13 10 -1 -2
BITMAP 
0000
0800
0900
0900
0900
0580
0A00
1000
3400
5800
ENDCHAR
STARTCHAR U+300C
ENCODING 12300
SWIDTH 1000 0
DWIDTH 10 0
BBX 13 10 -1 -2
BITMAP 
0000
00E0
0080
0100
0100
0100
0200
0200
0000
0000
ENDCHAR
STARTCHAR U+300D
ENCODING 12301
SWIDTH 1000 0
DWIDTH 10 0
BBX 13 10 -1 -2
BITMAP 
0000
0000
0000
0100
0100
0100
0200
0200
0200
1C00
ENDCHAR
STARTCHAR U+300E
ENCODING 12302
SWIDTH 1000 0
DWIDTH 10 0
BBX 13 10 -1 -2
BITMAP 
0000
00F8
00B8
0140
0140
0140
0280
0280
0380
0000
ENDCHAR
STARTCHAR U+300F
ENCODING 12303
SWIDTH 1000 0
DWIDTH 10 0
BBX 13 10 -1 -2
BITMAP 
0000
0000
0380
0500
0500
0500
0A00
3A00
2200
7C00
ENDCHAR
STARTCHAR U+3010
ENCODING 12304
SWIDTH 1000 0
DWIDTH 10 0
BBX 13 10 -1 -2
BITMAP 
0000
00E0
00C0
0180
0100
0100
0200
0300
0300
0700
ENDCHAR
STARTCHAR U+3011
ENCODING 12305
SWIDTH 1000 0
DWIDTH 10 0
BBX 13 10 -1 -2
BITMAP 
0000
0380
0180
0300
0100
0100
0200
0600
0600
1C00
ENDCHAR
STARTCHAR U+3012
ENCODING 12306
SWIDTH 1000 0
DWIDTH 10 0
BBX 13 10 -1 -2
BITMAP 
0000
07F0
07F0
1FF0
1FF0
0100
0200
0200
0200
0400
ENDCHAR
STARTCHAR U+3013
ENCODING 12307
SWIDTH 1000 0
DWIDTH 10 0
BBX 13 10 -1 -2
BITMAP 
0000
0000
07F0
0FE0
0000
0000
1FC0
1FC0
0000
0000
ENDCHAR
STARTCHAR U+3014
ENCODING 12308
SWIDTH 1000 0
DWIDTH 10 0
BBX 13 10 -1 -2
BITMAP 
0000
0020
0080
0100
0100
0100
0200
0200
0200
0100
ENDCHAR
STARTCHAR U+3015
ENCODING 12309
SWIDTH 1000 0
DWIDTH 10 0
BBX 13 10 -1 -2
BITMAP 
0000
0200
0080
0100
0100
0100
0200
0200
0E00
1000
ENDCHAR
STARTCHAR U+3016
ENCODING 12310
SWIDTH 1000 0
DWIDTH 10 0
BBX 13 10 -1 -2
BITMAP 
00F0
00A0
00C0
0140
0180
0180
0300
0280
0280
0780
ENDCHAR
STARTCHAR U+3017
ENCODING 12311
SWIDTH 1000 0
DWIDTH 10 0
BBX 13 10 -1 -2
BITMAP 
0780
0080
0280
0300
0300
0300
0600
0A00
0200
3C00
ENDCHAR
STARTCHAR U+3018
ENCODING 12312
SWIDTH 1000 0
DWIDTH 10 0
BBX 13 10 -1 -2
BITMAP 
0030
00E0
00B0
0140
0140
0140
0280
02C0
0380
0180
ENDCHAR
STARTCHAR U+3019
ENCODING 12313
SWIDTH 1000 0
DWIDTH 10 0
BBX 13 10 -1 -2
BITMAP 
0400
0380
0680
0500
0500
0500
0A00
1A00
1E00
2000
ENDCHAR
STARTCHAR U+301C
ENCODING 12316
SWIDTH 1000 0
DWIDTH 10 0
BBX 13 10 -1 -2
BITMAP 
0000
0000
0000
0000
0C00
1360
0080
0000
0000
0000
ENDCHAR
STARTCHAR U+301D
ENCODING 12317
SWIDTH 1000 0
DWIDTH 10 0
BBX 13 10 -1 -2
BITMAP 
0000
0020
0090
0000
0000
0000
0000
0000
0000
0000
ENDCHAR
STARTCHAR U+301E
ENCODING 12318
SWIDTH 1000 0
DWIDTH 10 0
BBX 13 10 -1 -2
BITMAP 
0000
00B0
0020
0000
0000
0000
0000
0000
0000
0000
ENDCHAR
STARTCHAR U+301F
ENCODING 12319
SWIDTH 1000 0
DWIDTH 10 0
BBX 13 10 -1 -2
BITMAP 
0000
0000
0000
0000
0000
0000
0000
0400
0600
2000
ENDCHAR
STARTCHAR U+3020
ENCODING 12320
SWIDTH 1000 0
DWIDTH 10 0
BBX 13 10 -1 -2
BITMAP 
0000
07F0
07F0
0920
1D50
1FB0
3AA0
1740
1000
0F00
ENDCHAR
STARTCHAR U+3021
ENCODING 12321
SWIDTH 1000 0
DWIDTH 10 0
BBX 13 10 -1 -2
BITMAP 
0000
0180
0180
0300
0300
0300
0600
0600
0600
0400
ENDCHAR
STARTCHAR U+3022
ENCODING 12322
SWIDTH 1000 0
DWIDTH 10 0
BBX 13 10 -1 -2
BITMAP 
0000
0040
0240
0480
0480
0480
0900
0900
0100
0200
ENDCHAR
STARTCHAR U+3023
ENCODING 12323
SWIDTH 1000 0
DWIDTH 10 0
BBX 13 10 -1 -2
BITMAP 
0000
0020
0420
0B40
0B40
0B40
1680
1280
0080
0100
ENDCHAR
STARTCHAR U+3024
ENCODING 12324
SWIDTH 1000 0
DWIDTH 10 0
BBX 13 10 -1 -2
BITMAP 
0000
0800
0460
0480
0300
0700
0900
1080
2000
0000
ENDCHAR
STARTCHAR U+3025
ENCODING 12325
SWIDTH 1000 0
DWIDTH 10 0
BBX 13 10 -1 -2
BITMAP 
0000
0020
0140
0280
0300
0500
0580
0980
0D00
0000
ENDCHAR
STARTCHAR U+3026
ENCODING 12326
SWIDTH 1000 0
DWIDTH 10 0
BBX 13 10 -1 -2
BITMAP 
0000
0000
0100
0300
0300
1FE0
0000
0000
0000
0000
ENDCHAR
STARTCHAR U+3027
ENCODING 12327
SWIDTH 1000 0
DWIDTH 10 0
BBX 13 10 -1 -2
BITMAP 
0000
0000
0180
0340
1FE0
0000
1F00
1F80
0000
0000
ENDCHAR
STARTCHAR U+3028
ENCODING 12328
SWIDTH 1000 0
DWIDTH 10 0
BBX 13 10 -1 -2
BITMAP 
0000
0100
0100
1FC0
0000
0000
1F00
0000
7FC0
0000
ENDCHAR
STARTCHAR U+3029
ENCODING 12329
SWIDTH 1000 0
DWIDTH 10 0
BBX 13 10 -1 -2
BITMAP 
0000
0100
03E0
0FE0
0CC0
0780
0600
0F00
19C0
0000
ENDCHAR
STARTCHAR U+3033
ENCODING 12339
SWIDTH 1000 0
DWIDTH 10 0
BBX 13 10 -1 -2
BITMAP 
0000
0000
0000
0400
0B00
00C0
0000
0020
0000
0000
ENDCHAR
STARTCHAR U+3034
ENCODING 12340
SWIDTH 1000 0
DWIDTH 10 0
BBX 13 10 -1 -2
BITMAP 
0000
0080
0040
0480
0B00
00C0
0000
0020
0000
0000
ENDCHAR
STARTCHAR U+3035
ENCODING 12341
SWIDTH 1000 0
DWIDTH 10 0
BBX 13 10 -1 -2
BITMAP 
0000
0000
0000
00C0
0100
0E00
1000
4000
0000
0000
ENDCHAR
STARTCHAR U+3041
ENCODING 12353
SWIDTH 1000 0
DWIDTH 10 0
BBX 13 10 -1 -2
BITMAP 
0000
0000
0000
0180
0700
0280
0780
0E80
1680
1900
ENDCHAR
STARTCHAR U+3042
ENCODING 12354
SWIDTH 1000 0
DWIDTH 10 0
BBX 13 10 -1 -2
BITMAP 
0000
0000
07C0
0480
07C0
0D20
0A20
2C20
1000
0300
ENDCHAR
STARTCHAR U+3043
ENCODING 12355
SWIDTH 1000 0
DWIDTH 10 0
BBX 13 10 -1 -2
BITMAP 
0000
0000
0000
0000
0800
0840
1080
1080
0800
0000
ENDCHAR
STARTCHAR U+3044
ENCODING 12356
SWIDTH 1000 0
DWIDTH 10 0
BBX 13 10 -1 -2
BITMAP 
0000
0000
0840
0840
0820
0820
1040
1C00
0800
0000
ENDCHAR
STARTCHAR U+3045
ENCODING 12357
SWIDTH 1000 0
DWIDTH 10 0
BBX 13 10 -1 -2
BITMAP 
0000
0000
0000
0100
0000
03C0
0480
0080
0100
0600
ENDCHAR
STARTCHAR U+3046
ENCODING 12358
SWIDTH 1000 0
DWIDTH 10 0
BBX 13 10 -1 -2
BITMAP 
0000
0000
0080
0380
0C40
0040
0080
0080
0100
0600
ENDCHAR
STARTCHAR U+3047
ENCODING 12359
SWIDTH 1000 0
DWIDTH 10 0
BBX 13 10 -1 -2
BITMAP 
0000
0000
0000
0180
0000
0380
0400
0000
0200
0100
ENDCHAR
STARTCHAR U+3048
ENCODING 12360
SWIDTH 1000 0
DWIDTH 10 0
BBX 13 10 -1 -2
BITMAP 
0000
0100
0140
01C0
0640
0180
0200
0700
0100
21C0
ENDCHAR
STARTCHAR U+3049
ENCODING 12361
SWIDTH 1000 0
DWIDTH 10 0
BBX 13 10 -1 -2
BITMAP 
0000
0000
0000
0700
0C60
0440
0B80
1C80
1880
1300
ENDCHAR
STARTCHAR U+304A
ENCODING 12362
SWIDTH 1000 0
DWIDTH 10 0
BBX 13 10 -1 -2
BITMAP 
0000
0000
0330
0C30
0440
07A0
0C20
3820
18C0
1000
ENDCHAR
STARTCHAR U+304B
ENCODING 12363
SWIDTH 1000 0
DWIDTH 10 0
BBX 13 10 -1 -2
BITMAP 
0000
0200
0320
0C10
04B0
0880
1100
1100
0200
0C00
ENDCHAR
STARTCHAR U+304C
ENCODING 12364
SWIDTH 1000 0
DWIDTH 10 0
BBX 13 10 -1 -2
BITMAP 
0000
0430
0748
1DE0
0920
0920
1200
2200
0400
1800
ENDCHAR
STARTCHAR U+304D
ENCODING 12365
SWIDTH 1000 0
DWIDTH 10 0
BBX 13 10 -1 -2
BITMAP 
0000
0100
03E0
01E0
0E80
0040
0F80
1000
0C00
0200
ENDCHAR
STARTCHAR U+304E
ENCODING 12366
SWIDTH 1000 0
DWIDTH 10 0
BBX 13 10 -1 -2
BITMAP 
0000
0030
07A8
03C0
1D00
0080
1F00
1000
1800
0600
ENDCHAR
STARTCHAR U+304F
ENCODING 12367
SWIDTH 1000 0
DWIDTH 10 0
BBX 13 10 -1 -2
BITMAP 
0000
0080
00C0
0100
0600
0400
0400
0200
0200
0200
ENDCHAR
STARTCHAR U+3050
ENCODING 12368
SWIDTH 1000 0
DWIDTH 10 0
BBX 13 10 -1 -2
BITMAP 
0000
0130
01A8
0200
0400
0800
0000
0000
0200
0400
ENDCHAR
STARTCHAR U+3051
ENCODING 12369
SWIDTH 1000 0
DWIDTH 10 0
BBX 13 10 -1 -2
BITMAP 
0000
0040
0430
0BE0
0840
0840
1080
1880
1100
0200
ENDCHAR
STARTCHAR U+3052
ENCODING 12370
SWIDTH 1000 0
DWIDTH 10 0
BBX 13 10 -1 -2
BITMAP 
0000
00B0
0478
0BE0
0840
0840
1080
1880
1100
0200
ENDCHAR
STARTCHAR U+3053
ENCODING 12371
SWIDTH 1000 0
DWIDTH 10 0
BBX 13 10 -1 -2
BITMAP 
0000
0000
00E0
0080
0000
0000
0000
1000
0F80
0000
ENDCHAR
STARTCHAR U+3054
ENCODING 12372
SWIDTH 1000 0
DWIDTH 10 0
BBX 13 10 -1 -2
BITMAP 
0000
0030
01E8
0100
0000
0000
0000
1000
0F80
0000
ENDCHAR
STARTCHAR U+3055
ENCODING 12373
SWIDTH 1000 0
DWIDTH 10 0
BBX 13 10 -1 -2
BITMAP 
0000
0100
07E0
0080
0080
07C0
0800
1000
1800
0600
ENDCHAR
STARTCHAR U+3056
ENCODING 12374
SWIDTH 1000 0
DWIDTH 10 0
BBX 13 10 -1 -2
BITMAP 
0000
0030
07A8
0100
0080
07C0
0800
1000
1800
0600
ENDCHAR
STARTCHAR U+3057
ENCODING 12375
SWIDTH 1000 0
DWIDTH 10 0
BBX 13 10 -1 -2
BITMAP 
0000
0000
0200
0400
0400
0400
0800
0840
0580
0200
ENDCHAR
STARTCHAR U+3058
ENCODING 12376
SWIDTH 1000 0
DWIDTH 10 0
BBX 13 10 -1 -2
BITMAP 
0000
0460
0430
0800
0800
0800
1000
1080
0B00
0400
ENDCHAR
STARTCHAR U+3059
ENCODING 12377
SWIDTH 1000 0
DWIDTH 10 0
BBX 13 10 -1 -2
BITMAP 
0000
0100
0FF8
0100
0700
0900
0100
0700
0600
1800
ENDCHAR
STARTCHAR U+305A
ENCODING 12378
SWIDTH 1000 0
DWIDTH 10 0
BBX 13 10 -1 -2
BITMAP 
0000
0130
0FE8
0100
0700
0900
0100
0700
0600
1800
ENDCHAR
STARTCHAR U+305B
ENCODING 12379
SWIDTH 1000 0
DWIDTH 10 0
BBX 13 10 -1 -2
BITMAP 
0000
0040
0420
08F0
0F40
0840
1180
1180
0800
0700
ENDCHAR
STARTCHAR U+305C
ENCODING 12380
SWIDTH 1000 0
DWIDTH 10 0
BBX 13 10 -1 -2
BITMAP 
0000
00B0
0478
09E0
0E80
0880
1100
1300
0800
0700
ENDCHAR
STARTCHAR U+305D
ENCODING 12381
SWIDTH 1000 0
DWIDTH 10 0
BBX 13 10 -1 -2
BITMAP 
0000
00C0
0180
0220
07C0
0980
0200
0400
0200
0200
ENDCHAR
STARTCHAR U+305E
ENCODING 12382
SWIDTH 1000 0
DWIDTH 10 0
BBX 13 10 -1 -2
BITMAP 
0000
05F0
03A8
0200
0780
0B00
0400
0800
0400
0200
ENDCHAR
STARTCHAR U+305F
ENCODING 12383
SWIDTH 1000 0
DWIDTH 10 0
BBX 13 10 -1 -2
BITMAP 
0000
0000
0380
0C00
04C0
0820
0800
1000
1200
2180
ENDCHAR
STARTCHAR U+3060
ENCODING 12384
SWIDTH 1000 0
DWIDTH 10 0
BBX 13 10 -1 -2
BITMAP 
0000
0030
0328
0C00
04C0
0820
0800
1000
1200
2180
ENDCHAR
STARTCHAR U+3061
ENCODING 12385
SWIDTH 1000 0
DWIDTH 10 0
BBX 13 10 -1 -2
BITMAP 
0000
0000
07C0
0400
0580
0600
1840
0040
0180
0E00
ENDCHAR
STARTCHAR U+3062
ENCODING 12386
SWIDTH 1000 0
DWIDTH 10 0
BBX 13 10 -1 -2
BITMAP 
0000
0030
07A8
0400
0580
0600
1840
0040
0180
0E00
ENDCHAR
STARTCHAR U+3063
ENCODING 12387
SWIDTH 1000 0
DWIDTH 10 0
BBX 13 10 -1 -2
BITMAP 
0000
0000
0000
0000
0000
03C0
1480
0880
0100
0600
ENDCHAR
STARTCHAR U+3064
ENCODING 12388
SWIDTH 1000 0
DWIDTH 10 0
BBX 13 10 -1 -2
BITMAP 
0000
0000
0080
0040
0820
0020
0040
0380
0000
0000
ENDCHAR
STARTCHAR U+3065
ENCODING 12389
SWIDTH 1000 0
DWIDTH 10 0
BBX 13 10 -1 -2
BITMAP 
0000
0030
00A8
0040
0840
0040
0080
0300
0000
0000
ENDCHAR
STARTCHAR U+3066
ENCODING 12390
SWIDTH 1000 0
DWIDTH 10 0
BBX 13 10 -1 -2
BITMAP 
0000
0010
07E0
0100
0100
0200
0400
0400
0200
0100
ENDCHAR
STARTCHAR U+3067
ENCODING 12391
SWIDTH 1000 0
DWIDTH 10 0
BBX 13 10 -1 -2
BITMAP 
0000
0030
07A8
0100
0100
0200
0400
0400
0200
0100
ENDCHAR
STARTCHAR U+3068
ENCODING 12392
SWIDTH 1000 0
DWIDTH 10 0
BBX 13 10 -1 -2
BITMAP 
0000
0000
0200
0240
0380
0400
0800
1000
1000
0F00
ENDCHAR
STARTCHAR U+3069
ENCODING 12393
SWIDTH 1000 0
DWIDTH 10 0
BBX 13 10 -1 -2
BITMAP 
0000
0030
0228
0240
0380
0400
0800
1000
1000
0F00
ENDCHAR
STARTCHAR U+306A
ENCODING 12394
SWIDTH 1000 0
DWIDTH 10 0
BBX 13 10 -1 -2
BITMAP 
0000
0000
0F20
0420
0000
0840
1180
0780
09C0
0600
ENDCHAR
STARTCHAR U+306B
ENCODING 12395
SWIDTH 1000 0
DWIDTH 10 0
BBX 13 10 -1 -2
BITMAP 
0000
0400
04F0
0840
0800
0800
1000
1400
13C0
2000
ENDCHAR
STARTCHAR U+306C
ENCODING 12396
SWIDTH 1000 0
DWIDTH 10 0
BBX 13 10 -1 -2
BITMAP 
0000
0100
00C0
0F40
0920
0620
2440
27C0
1220
0100
ENDCHAR
STARTCHAR U+306D
ENCODING 12397
SWIDTH 1000 0
DWIDTH 10 0
BBX 13 10 -1 -2
BITMAP 
0000
0000
02C0
0520
0E20
0420
1840
1BC0
3A20
1100
ENDCHAR
STARTCHAR U+306E
ENCODING 12398
SWIDTH 1000 0
DWIDTH 10 0
BBX 13 10 -1 -2
BITMAP 
0000
0000
01C0
0120
0920
0A20
1440
1840
0180
0000
ENDCHAR
STARTCHAR U+306F
ENCODING 12399
SWIDTH 1000 0
DWIDTH 10 0
BBX 13 10 -1 -2
BITMAP 
0000
0040
0438
09C0
0840
0840
1180
1FC0
15A0
2200
ENDCHAR
STARTCHAR U+3070
ENCODING 12400
SWIDTH 1000 0
DWIDTH 10 0
BBX 13 10 -1 -2
BITMAP 
0000
00B0
0478
09E0
0840
0840
1180
1FC0
15A0
2200
ENDCHAR
STARTCHAR U+3071
ENCODING 12401
SWIDTH 1000 0
DWIDTH 10 0
BBX 13 10 -1 -2
BITMAP 
0000
00B0
0478
09E0
0840
0840
1180
1FC0
15A0
2200
ENDCHAR
STARTCHAR U+3072
ENCODING 12402
SWIDTH 1000 0
DWIDTH 10 0
BBX 13 10 -1 -2
BITMAP 
0000
0020
0620
0460
0050
0840
1080
1080
0B00
0C00
ENDCHAR
STARTCHAR U+3073
ENCODING 12403
SWIDTH 1000 0
DWIDTH 10 0
BBX 13 10 -1 -2
BITMAP 
0000
0070
0668
0440
0060
0850
1080
1080
0B00
0C00
ENDCHAR
STARTCHAR U+3074
ENCODING 12404
SWIDTH 1000 0
DWIDTH 10 0
BBX 13 10 -1 -2
BITMAP 
0000
0070
0678
0460
0060
0850
1080
1080
0B00
0C00
ENDCHAR
STARTCHAR U+3075
ENCODING 12405
SWIDTH 1000 0
DWIDTH 10 0
BBX 13 10 -1 -2
BITMAP 
0000
0100
01C0
0100
0200
0300
2500
1920
1600
0400
ENDCHAR
STARTCHAR U+3076
ENCODING 12406
SWIDTH 1000 0
DWIDTH 10 0
BBX 13 10 -1 -2
BITMAP 
0000
0130
01E8
0100
0200
0300
2500
1920
1600
0400
ENDCHAR
STARTCHAR U+3077
ENCODING 12407
SWIDTH 1000 0
DWIDTH 10 0
BBX 13 10 -1 -2
BITMAP 
0000
0130
01E8
0160
0200
0300
2500
1920
1600
0400
ENDCHAR
STARTCHAR U+3078
ENCODING 12408
SWIDTH 1000 0
DWIDTH 10 0
BBX 13 10 -1 -2
BITMAP 
0000
0000
0000
0600
0200
0900
1100
00C0
0000
0000
ENDCHAR
STARTCHAR U+3079
ENCODING 12409
SWIDTH 1000 0
DWIDTH 10 0
BBX 13 10 -1 -2
BITMAP 
0000
0000
0038
0650
0200
0900
1100
00C0
0000
0000
ENDCHAR
STARTCHAR U+307A
ENCODING 12410
SWIDTH 1000 0
DWIDTH 10 0
BBX 13 10 -1 -2
BITMAP 
0000
0000
0070
06A0
0240
0900
1100
00C0
0000
0000
ENDCHAR
STARTCHAR U+307B
ENCODING 12411
SWIDTH 1000 0
DWIDTH 10 0
BBX 13 10 -1 -2
BITMAP 
0000
0000
04F0
0800
0A70
09C0
1180
1FC0
15A0
2200
ENDCHAR
STARTCHAR U+307C
ENCODING 12412
SWIDTH 1000 0
DWIDTH 10 0
BBX 13 10 -1 -2
BITMAP 
0000
0030
04E8
08C0
0A70
09C0
1180
1FC0
15A0
2200
ENDCHAR
STARTCHAR U+307D
ENCODING 12413
SWIDTH 1000 0
DWIDTH 10 0
BBX 13 10 -1 -2
BITMAP 
0000
0030
04F8
08E0
0A70
09C0
1180
1FC0
15A0
2200
ENDCHAR
STARTCHAR U+307E
ENCODING 12414
SWIDTH 1000 0
DWIDTH 10 0
BBX 13 10 -1 -2
BITMAP 
0000
0100
07E0
0100
0180
0700
0200
1F00
1680
3800
ENDCHAR
STARTCHAR U+307F
ENCODING 12415
SWIDTH 1000 0
DWIDTH 10 0
BBX 13 10 -1 -2
BITMAP 
0000
0080
0180
0100
0240
0FC0
04C0
2880
1100
0200
ENDCHAR
STARTCHAR U+3080
ENCODING 12416
SWIDTH 1000 0
DWIDTH 10 0
BBX 13 10 -1 -2
BITMAP 
0000
0000
0120
0E20
0230
0E00
1400
1C40
0880
0700
ENDCHAR
STARTCHAR U+3081
ENCODING 12417
SWIDTH 1000 0
DWIDTH 10 0
BBX 13 10 -1 -2
BITMAP 
0000
0100
00C0
0F40
0920
0620
2240
2440
1000
0300
ENDCHAR
STARTCHAR U+3082
ENCODING 12418
SWIDTH 1000 0
DWIDTH 10 0
BBX 13 10 -1 -2
BITMAP 
0000
0100
0780
0200
0200
0700
0840
0840
0400
0300
ENDCHAR
STARTCHAR U+3083
ENCODING 12419
SWIDTH 1000 0
DWIDTH 10 0
BBX 13 10 -1 -2
BITMAP 
0000
0000
0000
0000
0440
05C0
1640
0C40
0400
0400
ENDCHAR
STARTCHAR U+3084
ENCODING 12420
SWIDTH 1000 0
DWIDTH 10 0
BBX 13 10 -1 -2
BITMAP 
0000
00C0
0440
05E0
1620
0A40
0480
0000
0200
0400
ENDCHAR
STARTCHAR U+3085
ENCODING 12421
SWIDTH 1000 0
DWIDTH 10 0
BBX 13 10 -1 -2
BITMAP 
0000
0000
0000
0000
09C0
0EC0
1940
13C0
0300
0400
ENDCHAR
STARTCHAR U+3086
ENCODING 12422
SWIDTH 1000 0
DWIDTH 10 0
BBX 13 10 -1 -2
BITMAP 
0000
0080
09E0
0AA0
0890
0890
1120
03C0
0300
0400
ENDCHAR
STARTCHAR U+3087
ENCODING 12423
SWIDTH 1000 0
DWIDTH 10 0
BBX 13 10 -1 -2
BITMAP 
0000
0000
0000
0200
0100
0180
0200
0600
0700
1900
ENDCHAR
STARTCHAR U+3088
ENCODING 12424
SWIDTH 1000 0
DWIDTH 10 0
BBX 13 10 -1 -2
BITMAP 
0000
0100
0130
01C0
0100
0100
0200
1F80
1640
3800
ENDCHAR
STARTCHAR U+3089
ENCODING 12425
SWIDTH 1000 0
DWIDTH 10 0
BBX 13 10 -1 -2
BITMAP 
0000
0100
03C0
0400
0000
0F80
1840
0040
0180
0600
ENDCHAR
STARTCHAR U+308A
ENCODING 12426
SWIDTH 1000 0
DWIDTH 10 0
BBX 13 10 -1 -2
BITMAP 
0000
0040
0440
0C40
0840
0840
0000
0100
0600
0800
ENDCHAR
STARTCHAR U+308B
ENCODING 12427
SWIDTH 1000 0
DWIDTH 10 0
BBX 13 10 -1 -2
BITMAP 
0000
00C0
0180
0200
0780
0800
1040
0040
0180
0E00
ENDCHAR
STARTCHAR U+308C
ENCODING 12428
SWIDTH 1000 0
DWIDTH 10 0
BBX 13 10 -1 -2
BITMAP 
0000
0000
02C0
0D40
0640
0440
1880
0880
0840
1000
ENDCHAR
STARTCHAR U+308D
ENCODING 12429
SWIDTH 1000 0
DWIDTH 10 0
BBX 13 10 -1 -2
BITMAP 
0000
00C0
0180
0200
0780
0800
1040
0040
0180
0E00
ENDCHAR
STARTCHAR U+308E
ENCODING 12430
SWIDTH 1000 0
DWIDTH 10 0
BBX 13 10 -1 -2
BITMAP 
0000
0000
0000
0400
0400
0FC0
0C80
0880
1900
1200
ENDCHAR
STARTCHAR U+308F
ENCODING 12431
SWIDTH 1000 0
DWIDTH 10 0
BBX 13 10 -1 -2
BITMAP 
0000
0000
02C0
0D20
0610
0410
1820
0820
0880
1000
ENDCHAR
STARTCHAR U+3090
ENCODING 12432
SWIDTH 1000 0
DWIDTH 10 0
BBX 13 10 -1 -2
BITMAP 
0000
00C0
0180
01C0
0620
0A20
1420
19A0
12C0
0100
ENDCHAR
STARTCHAR U+3091
ENCODING 12433
SWIDTH 1000 0
DWIDTH 10 0
BBX 13 10 -1 -2
BITMAP 
0000
0000
0080
0380
0840
0780
0900
1CC0
2320
40C0
ENDCHAR
STARTCHAR U+3092
ENCODING 12434
SWIDTH 1000 0
DWIDTH 10 0
BBX 13 10 -1 -2
BITMAP 
0000
0000
07C0
0400
0740
0880
0300
0400
0800
0700
ENDCHAR
STARTCHAR U+3093
ENCODING 12435
SWIDTH 1000 0
DWIDTH 10 0
BBX 13 10 -1 -2
BITMAP 
0000
0000
0100
0000
0400
0600
0900
1100
1100
2100
ENDCHAR
STARTCHAR U+3094
ENCODING 12436
SWIDTH 1000 0
DWIDTH 10 0
BBX 13 10 -1 -2
BITMAP 
0000
0030
0028
0300
0C00
0040
0000
0100
0600
0800
ENDCHAR
STARTCHAR U+309B
ENCODING 12443
SWIDTH 1000 0
DWIDTH 10 0
BBX 13 10 -1 -2
BITMAP 
0000
0000
0400
0000
0000
0000
0000
0000
0000
0000
ENDCHAR
STARTCHAR U+309C
ENCODING 12444
SWIDTH 1000 0
DWIDTH 10 0
BBX 13 10 -1 -2
BITMAP 
0000
0600
0700
0C00
0000
0000
0000
0000
0000
0000
ENDCHAR
STARTCHAR U+309D
ENCODING 12445
SWIDTH 1000 0
DWIDTH 10 0
BBX 13 10 -1 -2
BITMAP 
0000
0000
0000
0400
0200
0100
0100
0000
0000
0000
ENDCHAR
STARTCHAR U+309E
ENCODING 12446
SWIDTH 1000 0
DWIDTH 10 0
BBX 13 10 -1 -2
BITMAP 
0000
0020
00C0
0480
0200
0100
0100
0000
0000
0000
ENDCHAR
STARTCHAR U+30A1
ENCODING 12449
SWIDTH 1000 0
DWIDTH 10 0
BBX 13 10 -1 -2
BITMAP 
0000
0000
0000
0000
01C0
0440
0200
0200
0400
1800
ENDCHAR
STARTCHAR U+30A2
ENCODING 12450
SWIDTH 1000 0
DWIDTH 10 0
BBX 13 10 -1 -2
BITMAP 
0000
0000
07F0
0100
0140
0100
0200
0400
0000
0000
ENDCHAR
STARTCHAR U+30A3
ENCODING 12451
SWIDTH 1000 0
DWIDTH 10 0
BBX 13 10 -1 -2
BITMAP 
0000
0000
0000
0000
0000
0180
0600
0A00
0200
0400
ENDCHAR
STARTCHAR U+30A4
ENCODING 12452
SWIDTH 1000 0
DWIDTH 10 0
BBX 13 10 -1 -2
BITMAP 
0000
0020
0040
0080
0200
0D00
0100
0100
0100
0200
ENDCHAR
STARTCHAR U+30A5
ENCODING 12453
SWIDTH 1000 0
DWIDTH 10 0
BBX 13 10 -1 -2
BITMAP 
0000
0000
0000
0200
01C0
0740
0080
0080
0300
1C00
ENDCHAR
STARTCHAR U+30A6
ENCODING 12454
SWIDTH 1000 0
DWIDTH 10 0
BBX 13 10 -1 -2
BITMAP 
0000
0100
00F0
0F20
0820
0040
0040
0080
0300
1C00
ENDCHAR
STARTCHAR U+30A7
ENCODING 12455
SWIDTH 1000 0
DWIDTH 10 0
BBX 13 10 -1 -2
BITMAP 
0000
0000
0000
0000
0000
0180
0600
0200
0700
1900
ENDCHAR
STARTCHAR U+30A8
ENCODING 12456
SWIDTH 1000 0
DWIDTH 10 0
BBX 13 10 -1 -2
BITMAP 
0000
0000
00F0
0F00
0100
0100
0200
03C0
3820
0000
ENDCHAR
STARTCHAR U+30A9
ENCODING 12457
SWIDTH 1000 0
DWIDTH 10 0
BBX 13 10 -1 -2
BITMAP 
0000
0000
0000
0100
0080
07E0
0300
0500
1100
0600
ENDCHAR
STARTCHAR U+30AA
ENCODING 12458
SWIDTH 1000 0
DWIDTH 10 0
BBX 13 10 -1 -2
BITMAP 
0000
0080
0070
0F80
0180
0680
0900
3100
0300
0200
ENDCHAR
STARTCHAR U+30AB
ENCODING 12459
SWIDTH 1000 0
DWIDTH 10 0
BBX 13 10 -1 -2
BITMAP 
0000
0100
00F0
0F20
0120
0220
0440
0840
1080
0100
ENDCHAR
STARTCHAR U+30AC
ENCODING 12460
SWIDTH 1000 0
DWIDTH 10 0
BBX 13 10 -1 -2
BITMAP 
0000
0130
00F8
0F20
0120
0220
0440
0840
1080
0100
ENDCHAR
STARTCHAR U+30AD
ENCODING 12461
SWIDTH 1000 0
DWIDTH 10 0
BBX 13 10 -1 -2
BITMAP 
0000
0000
0160
0380
0D00
01E0
0700
1900
0000
0100
ENDCHAR
STARTCHAR U+30AE
ENCODING 12462
SWIDTH 1000 0
DWIDTH 10 0
BBX 13 10 -1 -2
BITMAP 
0000
0030
0148
0380
0D00
01E0
0700
1900
0000
0100
ENDCHAR
STARTCHAR U+30AF
ENCODING 12463
SWIDTH 1000 0
DWIDTH 10 0
BBX 13 10 -1 -2
BITMAP 
0000
0080
01E0
0240
0440
0040
0000
0200
0C00
1000
ENDCHAR
STARTCHAR U+30B0
ENCODING 12464
SWIDTH 1000 0
DWIDTH 10 0
BBX 13 10 -1 -2
BITMAP 
0000
00B0
01E8
0240
0440
0040
0000
0200
0C00
1000
ENDCHAR
STARTCHAR U+30B1
ENCODING 12465
SWIDTH 1000 0
DWIDTH 10 0
BBX 13 10 -1 -2
BITMAP 
0000
0000
0270
0780
0800
0040
0000
0100
0600
0800
ENDCHAR
STARTCHAR U+30B2
ENCODING 12466
SWIDTH 1000 0
DWIDTH 10 0
BBX 13 10 -1 -2
BITMAP 
0000
0030
0248
0780
0800
0040
0000
0100
0600
0800
ENDCHAR
STARTCHAR U+30B3
ENCODING 12467
SWIDTH 1000 0
DWIDTH 10 0
BBX 13 10 -1 -2
BITMAP 
0000
0000
01E0
0E40
0040
0040
0080
0380
1880
0000
ENDCHAR
STARTCHAR U+30B4
ENCODING 12468
SWIDTH 1000 0
DWIDTH 10 0
BBX 13 10 -1 -2
BITMAP 
0000
0030
01E8
0E40
0040
0040
0080
0380
1880
0000
ENDCHAR
STARTCHAR U+30B5
ENCODING 12469
SWIDTH 1000 0
DWIDTH 10 0
BBX 13 10 -1 -2
BITMAP 
0000
0040
0220
04F0
0F40
0440
0000
0100
0600
1800
ENDCHAR
STARTCHAR U+30B6
ENCODING 12470
SWIDTH 1000 0
DWIDTH 10 0
BBX 13 10 -1 -2
BITMAP 
0000
00B0
02F8
04E0
0F80
0480
0100
0100
0600
1800
ENDCHAR
STARTCHAR U+30B7
ENCODING 12471
SWIDTH 1000 0
DWIDTH 10 0
BBX 13 10 -1 -2
BITMAP 
0000
0000
0300
0000
0800
0460
0080
0100
0600
3800
ENDCHAR
STARTCHAR U+30B8
ENCODING 12472
SWIDTH 1000 0
DWIDTH 10 0
BBX 13 10 -1 -2
BITMAP 
0000
0000
0338
0050
0800
0460
0080
0100
0600
3800
ENDCHAR
STARTCHAR U+30B9
ENCODING 12473
SWIDTH 1000 0
DWIDTH 10 0
BBX 13 10 -1 -2
BITMAP 
0000
0000
03E0
0040
0040
0080
0080
0080
0080
2080
ENDCHAR
STARTCHAR U+30BA
ENCODING 12474
SWIDTH 1000 0
DWIDTH 10 0
BBX 13 10 -1 -2
BITMAP 
0000
0030
07E8
0080
0080
0100
0300
0480
0080
2080
ENDCHAR
STARTCHAR U+30BB
ENCODING 12475
SWIDTH 1000 0
DWIDTH 10 0
BBX 13 10 -1 -2
BITMAP 
0000
0400
04F0
0B60
0C40
0800
0800
0800
0780
0000
ENDCHAR
STARTCHAR U+30BC
ENCODING 12476
SWIDTH 1000 0
DWIDTH 10 0
BBX 13 10 -1 -2
BITMAP 
0000
0430
04E8
0B40
0C40
0800
0800
0800
0780
0000
ENDCHAR
STARTCHAR U+30BD
ENCODING 12477
SWIDTH 1000 0
DWIDTH 10 0
BBX 13 10 -1 -2
BITMAP 
0000
0000
0410
0420
0420
0040
0080
0100
0600
0800
ENDCHAR
STARTCHAR U+30BE
ENCODING 12478
SWIDTH 1000 0
DWIDTH 10 0
BBX 13 10 -1 -2
BITMAP 
0000
0030
0428
0440
0440
0000
0100
0200
0C00
1000
ENDCHAR
STARTCHAR U+30BF
ENCODING 12479
SWIDTH 1000 0
DWIDTH 10 0
BBX 13 10 -1 -2
BITMAP 
0000
0080
01F0
0220
0700
00C0
0080
0100
0E00
1000
ENDCHAR
STARTCHAR U+30C0
ENCODING 12480
SWIDTH 1000 0
DWIDTH 10 0
BBX 13 10 -1 -2
BITMAP 
0000
0130
01E8
00C0
0640
0100
0100
0200
0400
2000
ENDCHAR
STARTCHAR U+30C1
ENCODING 12481
SWIDTH 1000 0
DWIDTH 10 0
BBX 13 10 -1 -2
BITMAP 
0000
0020
03C0
0100
11F0
0E80
0000
0200
0C00
1000
ENDCHAR
STARTCHAR U+30C2
ENCODING 12482
SWIDTH 1000 0
DWIDTH 10 0
BBX 13 10 -1 -2
BITMAP 
0000
0030
03A8
0100
11F0
0E80
0000
0200
0C00
1000
ENDCHAR
STARTCHAR U+30C3
ENCODING 12483
SWIDTH 1000 0
DWIDTH 10 0
BBX 13 10 -1 -2
BITMAP 
0000
0000
0000
0000
0200
0240
0A80
0080
0300
0400
ENDCHAR
STARTCHAR U+30C4
ENCODING 12484
SWIDTH 1000 0
DWIDTH 10 0
BBX 13 10 -1 -2
BITMAP 
0000
0000
0110
0120
0920
0040
0080
0100
0600
0800
ENDCHAR
STARTCHAR U+30C5
ENCODING 12485
SWIDTH 1000 0
DWIDTH 10 0
BBX 13 10 -1 -2
BITMAP 
0000
0030
0128
0140
0940
0040
0080
0100
0600
0800
ENDCHAR
STARTCHAR U+30C6
ENCODING 12486
SWIDTH 1000 0
DWIDTH 10 0
BBX 13 10 -1 -2
BITMAP 
0000
0000
03E0
0000
10F0
0F00
0000
0200
0C00
1000
ENDCHAR
STARTCHAR U+30C7
ENCODING 12487
SWIDTH 1000 0
DWIDTH 10 0
BBX 13 10 -1 -2
BITMAP 
0000
0030
03A8
0000
10F0
0F00
0000
0200
0C00
1000
ENDCHAR
STARTCHAR U+30C8
ENCODING 12488
SWIDTH 1000 0
DWIDTH 10 0
BBX 13 10 -1 -2
BITMAP 
0000
0000
0100
0200
0380
0220
0400
0400
0400
0800
ENDCHAR
STARTCHAR U+30C9
ENCODING 12489
SWIDTH 1000 0
DWIDTH 10 0
BBX 13 10 -1 -2
BITMAP 
0000
0030
0128
0200
0380
0220
0400
0400
0400
0800
ENDCHAR
STARTCHAR U+30CA
ENCODING 12490
SWIDTH 1000 0
DWIDTH 10 0
BBX 13 10 -1 -2
BITMAP 
0000
0100
0100
01F0
0F00
0100
0200
0400
0000
0000
ENDCHAR
STARTCHAR U+30CB
ENCODING 12491
SWIDTH 1000 0
DWIDTH 10 0
BBX 13 10 -1 -2
BITMAP 
0000
0000
00E0
0700
0000
0000
0000
3FE0
0000
0000
ENDCHAR
STARTCHAR U+30CC
ENCODING 12492
SWIDTH 1000 0
DWIDTH 10 0
BBX 13 10 -1 -2
BITMAP 
0000
0000
03E0
0040
0640
0100
0100
0480
1040
0000
ENDCHAR
STARTCHAR U+30CD
ENCODING 12493
SWIDTH 1000 0
DWIDTH 10 0
BBX 13 10 -1 -2
BITMAP 
0000
0100
01E0
0EC0
0080
0140
0E00
1200
0200
0400
ENDCHAR
STARTCHAR U+30CE
ENCODING 12494
SWIDTH 1000 0
DWIDTH 10 0
BBX 13 10 -1 -2
BITMAP 
0000
0000
0020
0040
0040
0000
0000
0000
0800
0000
ENDCHAR
STARTCHAR U+30CF
ENCODING 12495
SWIDTH 1000 0
DWIDTH 10 0
BBX 13 10 -1 -2
BITMAP 
0000
0000
0000
0000
0440
0800
0840
1040
1040
0000
ENDCHAR
STARTCHAR U+30D0
ENCODING 12496
SWIDTH 1000 0
DWIDTH 10 0
BBX 13 10 -1 -2
BITMAP 
0000
0030
0028
0040
0440
0800
0840
1040
1040
0000
ENDCHAR
STARTCHAR U+30D1
ENCODING 12497
SWIDTH 1000 0
DWIDTH 10 0
BBX 13 10 -1 -2
BITMAP 
0000
0030
0078
00E0
0440
0800
0840
1040
1040
0000
ENDCHAR
STARTCHAR U+30D2
ENCODING 12498
SWIDTH 1000 0
DWIDTH 10 0
BBX 13 10 -1 -2
BITMAP 
0000
0400
0400
09C0
0E00
0800
0800
0800
07C0
0000
ENDCHAR
STARTCHAR U+30D3
ENCODING 12499
SWIDTH 1000 0
DWIDTH 10 0
BBX 13 10 -1 -2
BITMAP 
0000
0430
0448
0980
0E00
0800
0800
0800
07C0
0000
ENDCHAR
STARTCHAR U+30D4
ENCODING 12500
SWIDTH 1000 0
DWIDTH 10 0
BBX 13 10 -1 -2
BITMAP 
0000
0430
0438
09E0
0E00
0800
0800
0800
07C0
0000
ENDCHAR
STARTCHAR U+30D5
ENCODING 12501
SWIDTH 1000 0
DWIDTH 10 0
BBX 13 10 -1 -2
BITMAP 
0000
0000
07F0
0020
0000
0040
0000
0200
0800
0000
ENDCHAR
STARTCHAR U+30D6
ENCODING 12502
SWIDTH 1000 0
DWIDTH 10 0
BBX 13 10 -1 -2
BITMAP 
0000
0030
0FE8
0080
0080
0100
0200
0000
0800
0000
ENDCHAR
STARTCHAR U+30D7
ENCODING 12503
SWIDTH 1000 0
DWIDTH 10 0
BBX 13 10 -1 -2
BITMAP 
0000
0030
0FF8
00E0
0080
0100
0200
0000
0800
0000
ENDCHAR
STARTCHAR U+30D8
ENCODING 12504
SWIDTH 1000 0
DWIDTH 10 0
BBX 13 10 -1 -2
BITMAP 
0000
0000
0000
0200
0500
1880
2080
0060
0000
0000
ENDCHAR
STARTCHAR U+30D9
ENCODING 12505
SWIDTH 1000 0
DWIDTH 10 0
BBX 13 10 -1 -2
BITMAP 
0000
0000
0070
0260
0500
1880
2080
0060
0000
0000
ENDCHAR
STARTCHAR U+30DA
ENCODING 12506
SWIDTH 1000 0
DWIDTH 10 0
BBX 13 10 -1 -2
BITMAP 
0000
0000
0038
0250
0560
1880
2080
0060
0000
0000
ENDCHAR
STARTCHAR U+30DB
ENCODING 12507
SWIDTH 1000 0
DWIDTH 10 0
BBX 13 10 -1 -2
BITMAP 
0000
0100
00F0
0F00
0100
0540
0A00
1240
0600
0400
ENDCHAR
STARTCHAR U+30DC
ENCODING 12508
SWIDTH 1000 0
DWIDTH 10 0
BBX 13 10 -1 -2
BITMAP 
0000
0130
00E8
0F00
0100
0540
0A00
1240
0600
0400
ENDCHAR
STARTCHAR U+30DD
ENCODING 12509
SWIDTH 1000 0
DWIDTH 10 0
BBX 13 10 -1 -2
BITMAP 
0000
0130
00F8
0F60
0100
0540
0A00
1240
0600
0400
ENDCHAR
STARTCHAR U+30DE
ENCODING 12510
SWIDTH 1000 0
DWIDTH 10 0
BBX 13 10 -1 -2
BITMAP 
0000
0000
01F0
0E60
0040
0480
0300
0100
0080
0000
ENDCHAR
STARTCHAR U+30DF
ENCODING 12511
SWIDTH 1000 0
DWIDTH 10 0
BBX 13 10 -1 -2
BITMAP 
0000
0100
00E0
0000
0600
0100
0100
0800
0600
0100
ENDCHAR
STARTCHAR U+30E0
ENCODING 12512
SWIDTH 1000 0
DWIDTH 10 0
BBX 13 10 -1 -2
BITMAP 
0000
0100
0080
0100
0200
0440
0880
0FC0
1040
0000
ENDCHAR
STARTCHAR U+30E1
ENCODING 12513
SWIDTH 1000 0
DWIDTH 10 0
BBX 13 10 -1 -2
BITMAP 
0000
0000
0020
0040
0640
0180
01C0
0040
0040
2000
ENDCHAR
STARTCHAR U+30E2
ENCODING 12514
SWIDTH 1000 0
DWIDTH 10 0
BBX 13 10 -1 -2
BITMAP 
0000
0000
07E0
0200
0200
0BE0
0C00
0400
03C0
0000
ENDCHAR
STARTCHAR U+30E3
ENCODING 12515
SWIDTH 1000 0
DWIDTH 10 0
BBX 13 10 -1 -2
BITMAP 
0000
0000
0000
0000
0200
01E0
0E40
0200
0200
0200
ENDCHAR
STARTCHAR U+30E4
ENCODING 12516
SWIDTH 1000 0
DWIDTH 10 0
BBX 13 10 -1 -2
BITMAP 
0000
0000
0178
03A0
0A00
0200
0200
0200
0200
0200
ENDCHAR
STARTCHAR U+30E5
ENCODING 12517
SWIDTH 1000 0
DWIDTH 10 0
BBX 13 10 -1 -2
BITMAP 
0000
0000
0000
0000
0380
0480
0100
0300
0C80
0000
ENDCHAR
STARTCHAR U+30E6
ENCODING 12518
SWIDTH 1000 0
DWIDTH 10 0
BBX 13 10 -1 -2
BITMAP 
0000
0000
01C0
06C0
0040
0040
0180
3FE0
0000
0000
ENDCHAR
STARTCHAR U+30E7
ENCODING 12519
SWIDTH 1000 0
DWIDTH 10 0
BBX 13 10 -1 -2
BITMAP 
0000
0000
0000
00C0
0740
0040
0180
0480
0380
1C80
ENDCHAR
STARTCHAR U+30E8
ENCODING 12520
SWIDTH 1000 0
DWIDTH 10 0
BBX 13 10 -1 -2
BITMAP 
0000
0000
07E0
0040
01C0
0640
0080
0380
0C40
0000
ENDCHAR
STARTCHAR U+30E9
ENCODING 12521
SWIDTH 1000 0
DWIDTH 10 0
BBX 13 10 -1 -2
BITMAP 
0000
0000
03E0
0000
00E0
0740
0080
0100
0600
1800
ENDCHAR
STARTCHAR U+30EA
ENCODING 12522
SWIDTH 1000 0
DWIDTH 10 0
BBX 13 10 -1 -2
BITMAP 
0000
0020
0220
0440
0440
0440
0080
0080
0100
0600
ENDCHAR
STARTCHAR U+30EB
ENCODING 12523
SWIDTH 1000 0
DWIDTH 10 0
BBX 13 10 -1 -2
BITMAP 
0000
0080
0280
0480
0480
08A0
0940
1180
3100
0000
ENDCHAR
STARTCHAR U+30EC
ENCODING 12524
SWIDTH 1000 0
DWIDTH 10 0
BBX 13 10 -1 -2
BITMAP 
0000
0000
0200
0400
0400
0460
0880
0B00
0C00
0000
ENDCHAR
STARTCHAR U+30ED
ENCODING 12525
SWIDTH 1000 0
DWIDTH 10 0
BBX 13 10 -1 -2
BITMAP 
0000
0000
01E0
0E40
0840
0840
1080
1F80
0000
0000
ENDCHAR
STARTCHAR U+30EE
ENCODING 12526
SWIDTH 1000 0
DWIDTH 10 0
BBX 13 10 -1 -2
BITMAP 
0000
0000
0000
00C0
0F40
0080
0880
0100
0200
0400
ENDCHAR
STARTCHAR U+30EF
ENCODING 12527
SWIDTH 1000 0
DWIDTH 10 0
BBX 13 10 -1 -2
BITMAP 
0000
0000
07F0
0C20
0400
0440
0000
0200
0400
0000
ENDCHAR
STARTCHAR U+30F0
ENCODING 12528
SWIDTH 1000 0
DWIDTH 10 0
BBX 13 10 -1 -2
BITMAP 
0000
0080
01F0
0E80
0880
0880
0B80
1D00
0100
0200
ENDCHAR
STARTCHAR U+30F1
ENCODING 12529
SWIDTH 1000 0
DWIDTH 10 0
BBX 13 10 -1 -2
BITMAP 
0000
0000
01F0
0E60
0240
0200
0200
3FE0
0000
0000
ENDCHAR
STARTCHAR U+30F2
ENCODING 12530
SWIDTH 1000 0
DWIDTH 10 0
BBX 13 10 -1 -2
BITMAP 
0000
0000
07F0
0020
00E0
0740
0080
0300
0400
0000
ENDCHAR
STARTCHAR U+30F3
ENCODING 12531
SWIDTH 1000 0
DWIDTH 10 0
BBX 13 10 -1 -2
BITMAP 
0000
0000
0400
0200
0020
0040
0000
0200
0C00
0000
ENDCHAR
STARTCHAR U+30F4
ENCODING 12532
SWIDTH 1000 0
DWIDTH 10 0
BBX 13 10 -1 -2
BITMAP 
0000
0130
00E8
0F40
0840
0040
0080
0100
0600
1800
ENDCHAR
STARTCHAR U+30F5
ENCODING 12533
SWIDTH 1000 0
DWIDTH 10 0
BBX 13 10 -1 -2
BITMAP 
0000
0000
0000
0200
0100
01C0
0280
0480
0080
0100
ENDCHAR
STARTCHAR U+30F6
ENCODING 12534
SWIDTH 1000 0
DWIDTH 10 0
BBX 13 10 -1 -2
BITMAP 
0000
0000
0000
0000
0400
0DC0
1200
0100
0600
0800
ENDCHAR
STARTCHAR U+30F7
ENCODING 12535
SWIDTH 1000 0
DWIDTH 10 0
BBX 13 10 -1 -2
BITMAP 
0000
0030
0FE8
0880
0880
0100
0200
0000
0000
0000
ENDCHAR
STARTCHAR U+30F8
ENCODING 12536
SWIDTH 1000 0
DWIDTH 10 0
BBX 13 10 -1 -2
BITMAP 
0000
00B0
01E8
0E80
0880
0880
0B80
1D00
0100
0200
ENDCHAR
STARTCHAR U+30F9
ENCODING 12537
SWIDTH 1000 0
DWIDTH 10 0
BBX 13 10 -1 -2
BITMAP 
0000
0030
01E8
0E40
0240
0200
0200
3FE0
0000
0000
ENDCHAR
STARTCHAR U+30FA
ENCODING 12538
SWIDTH 1000 0
DWIDTH 10 0
BBX 13 10 -1 -2
BITMAP 
0000
0030
0FE8
0080
0380
0C80
0000
0000
0800
0000
ENDCHAR
STARTCHAR U+30FB
ENCODING 12539
SWIDTH 1000 0
DWIDTH 10 0
BBX 13 10 -1 -2
BITMAP 
0000
0000
0000
0000
0300
0300
0000
0000
0000
0000
ENDCHAR
STARTCHAR U+30FC
ENCODING 12540
SWIDTH 1000 0
DWIDTH 10 0
BBX 13 10 -1 -2
BITMAP 
0000
0000
0000
0000
0000
11E0
0E00
0000
0000
0000
ENDCHAR
STARTCHAR U+30FD
ENCODING 12541
SWIDTH 1000 0
DWIDTH 10 0
BBX 13 10 -1 -2
BITMAP 
0000
0000
0000
0400
0300
0080
0000
0000
0000
0000
ENDCHAR
STARTCHAR U+30FE
ENCODING 12542
SWIDTH 1000 0
DWIDTH 10 0
BBX 13 10 -1 -2
BITMAP 
0000
0020
00C0
0480
0300
0080
0000
0000
0000
0000
ENDCHAR
STARTCHAR U+3105
ENCODING 12549
SWIDTH 1000 0
DWIDTH 10 0
BBX 13 10 -1 -2
BITMAP 
0000
0400
07E0
0040
0040
0040
0080
0080
0000
0000
ENDCHAR
STARTCHAR U+3106
ENCODING 12550
SWIDTH 1000 0
DWIDTH 10 0
BBX 13 10 -1 -2
BITMAP 
0000
0200
07E0
0040
0040
0000
0000
0400
0800
0000
ENDCHAR
STARTCHAR U+3107
ENCODING 12551
SWIDTH 1000 0
DWIDTH 10 0
BBX 13 10 -1 -2
BITMAP 
0000
0000
07E0
0840
1040
1040
2080
0000
0000
0000
ENDCHAR
STARTCHAR U+3108
ENCODING 12552
SWIDTH 1000 0
DWIDTH 10 0
BBX 13 10 -1 -2
BITMAP 
0000
07E0
0400
0800
0800
0800
1000
1000
0F80
0000
ENDCHAR
STARTCHAR U+3109
ENCODING 12553
SWIDTH 1000 0
DWIDTH 10 0
BBX 13 10 -1 -2
BITMAP 
0000
0200
07E0
0240
0240
0240
0080
0080
0000
0000
ENDCHAR
STARTCHAR U+310A
ENCODING 12554
SWIDTH 1000 0
DWIDTH 10 0
BBX 13 10 -1 -2
BITMAP 
0000
0100
0100
1FC0
0200
0000
0000
1F00
0000
0000
ENDCHAR
STARTCHAR U+310B
ENCODING 12555
SWIDTH 1000 0
DWIDTH 10 0
BBX 13 10 -1 -2
BITMAP 
0000
0780
0100
0200
0040
0040
0080
0080
0000
0000
ENDCHAR
STARTCHAR U+310C
ENCODING 12556
SWIDTH 1000 0
DWIDTH 10 0
BBX 13 10 -1 -2
BITMAP 
0000
0100
0500
0FC0
0240
0240
0080
0880
0100
0200
ENDCHAR
STARTCHAR U+310D
ENCODING 12557
SWIDTH 1000 0
DWIDTH 10 0
BBX 13 10 -1 -2
BITMAP 
0000
0000
0000
0400
0900
0800
0200
0800
0100
0000
ENDCHAR
STARTCHAR U+310E
ENCODING 12558
SWIDTH 1000 0
DWIDTH 10 0
BBX 13 10 -1 -2
BITMAP 
0000
0FE0
0000
0000
0F00
0080
0080
0080
0100
0000
ENDCHAR
STARTCHAR U+310F
ENCODING 12559
SWIDTH 1000 0
DWIDTH 10 0
BBX 13 10 -1 -2
BITMAP 
0000
07E0
0400
0800
0800
0800
0000
2000
0000
0000
ENDCHAR
STARTCHAR U+3110
ENCODING 12560
SWIDTH 1000 0
DWIDTH 10 0
BBX 13 10 -1 -2
BITMAP 
0000
0040
0240
0480
0480
0880
0900
0100
0100
0200
ENDCHAR
STARTCHAR U+3111
ENCODING 12561
SWIDTH 1000 0
DWIDTH 10 0
BBX 13 10 -1 -2
BITMAP 
0000
0080
0000
0200
0000
0000
0400
0200
0000
0000
ENDCHAR
STARTCHAR U+3112
ENCODING 12562
SWIDTH 1000 0
DWIDTH 10 0
BBX 13 10 -1 -2
BITMAP 
0000
0FE0
0100
0200
0200
0200
0400
0400
0400
0000
ENDCHAR
STARTCHAR U+3113
ENCODING 12563
SWIDTH 1000 0
DWIDTH 10 0
BBX 13 10 -1 -2
BITMAP 
0000
0100
0520
0A40
0A40
0A40
0400
0400
3F80
0000
ENDCHAR
STARTCHAR U+3114
ENCODING 12564
SWIDTH 1000 0
DWIDTH 10 0
BBX 13 10 -1 -2
BITMAP 
0000
0000
0100
0000
0800
0200
0400
0400
0400
0800
ENDCHAR
STARTCHAR U+3115
ENCODING 12565
SWIDTH 1000 0
DWIDTH 10 0
BBX 13 10 -1 -2
BITMAP 
0000
07E0
0020
0040
0800
0800
1000
0000
6000
8000
ENDCHAR
STARTCHAR U+3116
ENCODING 12566
SWIDTH 1000 0
DWIDTH 10 0
BBX 13 10 -1 -2
BITMAP 
0000
03C0
0440
0880
0A80
0880
1100
1100
0F00
0000
ENDCHAR
STARTCHAR U+3117
ENCODING 12567
SWIDTH 1000 0
DWIDTH 10 0
BBX 13 10 -1 -2
BITMAP 
0000
0780
0240
0440
0440
0480
0B00
0800
0800
1000
ENDCHAR
STARTCHAR U+3118
ENCODING 12568
SWIDTH 1000 0
DWIDTH 10 0
BBX 13 10 -1 -2
BITMAP 
0000
0000
0FE0
0400
0400
07C0
0000
0100
0000
0800
ENDCHAR
STARTCHAR U+3119
ENCODING 12569
SWIDTH 1000 0
DWIDTH 10 0
BBX 13 10 -1 -2
BITMAP 
0000
0100
0100
0000
0000
0400
0000
1F00
0000
0000
ENDCHAR
STARTCHAR U+311A
ENCODING 12570
SWIDTH 1000 0
DWIDTH 10 0
BBX 13 10 -1 -2
BITMAP 
0000
0000
0000
0000
0200
0200
0400
0400
0400
0800
ENDCHAR
STARTCHAR U+311B
ENCODING 12571
SWIDTH 1000 0
DWIDTH 10 0
BBX 13 10 -1 -2
BITMAP 
0000
0FE0
0100
0200
0800
1000
2000
0080
0F00
0000
ENDCHAR
STARTCHAR U+311C
ENCODING 12572
SWIDTH 1000 0
DWIDTH 10 0
BBX 13 10 -1 -2
BITMAP 
0000
0100
0FE0
0200
0600
0000
2000
2000
0000
0000
ENDCHAR
STARTCHAR U+311D
ENCODING 12573
SWIDTH 1000 0
DWIDTH 10 0
BBX 13 10 -1 -2
BITMAP 
0000
0000
0400
1FC0
0800
0800
1200
1000
0F00
0000
ENDCHAR
STARTCHAR U+311E
ENCODING 12574
SWIDTH 1000 0
DWIDTH 10 0
BBX 13 10 -1 -2
BITMAP 
0000
0FE0
0500
0A00
0240
0240
0080
0080
0000
0000
ENDCHAR
STARTCHAR U+311F
ENCODING 12575
SWIDTH 1000 0
DWIDTH 10 0
BBX 13 10 -1 -2
BITMAP 
0000
0600
0200
0400
0000
0000
0400
0200
0000
0000
ENDCHAR
STARTCHAR U+3120
ENCODING 12576
SWIDTH 1000 0
DWIDTH 10 0
BBX 13 10 -1 -2
BITMAP 
0000
0000
0240
0000
0F00
0200
0000
1F00
0000
0000
ENDCHAR
STARTCHAR U+3121
ENCODING 12577
SWIDTH 1000 0
DWIDTH 10 0
BBX 13 10 -1 -2
BITMAP 
0000
0000
07E0
0080
0000
0000
0200
0400
0000
0000
ENDCHAR
STARTCHAR U+3122
ENCODING 12578
SWIDTH 1000 0
DWIDTH 10 0
BBX 13 10 -1 -2
BITMAP 
0000
0440
0440
0800
0FC0
0040
0080
0080
0000
0000
ENDCHAR
STARTCHAR U+3123
ENCODING 12579
SWIDTH 1000 0
DWIDTH 10 0
BBX 13 10 -1 -2
BITMAP 
0000
0400
0400
0800
0800
0FC0
0080
0080
0000
0000
ENDCHAR
STARTCHAR U+3124
ENCODING 12580
SWIDTH 1000 0
DWIDTH 10 0
BBX 13 10 -1 -2
BITMAP 
0000
0000
0000
1FC0
0100
0100
0A00
0200
0200
0000
ENDCHAR
STARTCHAR U+3125
ENCODING 12581
SWIDTH 1000 0
DWIDTH 10 0
BBX 13 10 -1 -2
BITMAP 
0000
0000
0100
0000
0000
0000
0000
3F80
0000
0000
ENDCHAR
STARTCHAR U+3126
ENCODING 12582
SWIDTH 1000 0
DWIDTH 10 0
BBX 13 10 -1 -2
BITMAP 
0000
0000
0280
0500
0500
0500
0A00
1200
0240
0000
ENDCHAR
STARTCHAR U+3127
ENCODING 12583
SWIDTH 1000 0
DWIDTH 10 0
BBX 13 10 -1 -2
BITMAP 
0000
0100
0100
0200
0200
0200
0400
0400
0400
0800
ENDCHAR
STARTCHAR U+3128
ENCODING 12584
SWIDTH 1000 0
DWIDTH 10 0
BBX 13 10 -1 -2
BITMAP 
0000
0020
0000
0080
0200
0100
0000
0000
1000
0000
ENDCHAR
STARTCHAR U+3129
ENCODING 12585
SWIDTH 1000 0
DWIDTH 10 0
BBX 13 10 -1 -2
BITMAP 
0000
0000
0020
0840
0840
0040
2180
1C80
0000
0000
ENDCHAR
STARTCHAR U+3131
ENCODING 12593
SWIDTH 1000 0
DWIDTH 10 0
BBX 13 10 -1 -2
BITMAP 
0000
0000
01E0
0040
0040
0040
0000
0000
0000
0000
ENDCHAR
STARTCHAR U+3132
ENCODING 12594
SWIDTH 1000 0
DWIDTH 10 0
BBX 13 10 -1 -2
BITMAP 
0000
0000
03F0
0120
0120
0120
0200
0000
0000
0000
ENDCHAR
STARTCHAR U+3133
ENCODING 12595
SWIDTH 1000 0
DWIDTH 10 0
BBX 13 10 -1 -2
BITMAP 
0000
0000
03A0
0140
0160
0120
0220
0000
0000
0000
ENDCHAR
STARTCHAR U+3134
ENCODING 12596
SWIDTH 1000 0
DWIDTH 10 0
BBX 13 10 -1 -2
BITMAP 
0000
0000
0200
0400
0400
0400
0380
0000
0000
0000
ENDCHAR
STARTCHAR U+3135
ENCODING 12597
SWIDTH 1000 0
DWIDTH 10 0
BBX 13 10 -1 -2
BITMAP 
0000
0000
04F0
0840
0840
0980
0600
0000
0000
0000
ENDCHAR
STARTCHAR U+3136
ENCODING 12598
SWIDTH 1000 0
DWIDTH 10 0
BBX 13 10 -1 -2
BITMAP 
0000
0000
0460
0BF0
08C0
0B20
1C80
0000
0000
0000
ENDCHAR
STARTCHAR U+3137
ENCODING 12599
SWIDTH 1000 0
DWIDTH 10 0
BBX 13 10 -1 -2
BITMAP 
0000
0000
03E0
0400
0400
0400
0380
0000
0000
0000
ENDCHAR
STARTCHAR U+3138
ENCODING 12600
SWIDTH 1000 0
DWIDTH 10 0
BBX 13 10 -1 -2
BITMAP 
0000
0000
07F0
0880
0880
0880
07C0
0000
0000
0000
ENDCHAR
STARTCHAR U+3139
ENCODING 12601
SWIDTH 1000 0
DWIDTH 10 0
BBX 13 10 -1 -2
BITMAP 
0000
0000
02E0
03C0
0400
0400
0380
0000
0000
0000
ENDCHAR
STARTCHAR U+313A
ENCODING 12602
SWIDTH 1000 0
DWIDTH 10 0
BBX 13 10 -1 -2
BITMAP 
0000
0000
05F8
0790
0810
0810
0620
0000
0000
0000
ENDCHAR
STARTCHAR U+313B
ENCODING 12603
SWIDTH 1000 0
DWIDTH 10 0
BBX 13 10 -1 -2
BITMAP 
0000
0000
05B8
0750
0850
0850
07E0
0000
0000
0000
ENDCHAR
STARTCHAR U+313C
ENCODING 12604
SWIDTH 1000 0
DWIDTH 10 0
BBX 13 10 -1 -2
BITMAP 
0000
0000
05A8
0770
0850
0850
07E0
0000
0000
0000
ENDCHAR
STARTCHAR U+313D
ENCODING 12605
SWIDTH 1000 0
DWIDTH 10 0
BBX 13 10 -1 -2
BITMAP 
0000
0000
05A0
0740
0860
0820
0620
0000
0000
0000
ENDCHAR
STARTCHAR U+313E
ENCODING 12606
SWIDTH 1000 0
DWIDTH 10 0
BBX 13 10 -1 -2
BITMAP 
0000
0000
05B8
0770
0840
0840
07E0
0000
0000
0000
ENDCHAR
STARTCHAR U+313F
ENCODING 12607
SWIDTH 1000 0
DWIDTH 10 0
BBX 13 10 -1 -2
BITMAP 
0000
0000
05F8
0700
0860
0860
07E0
0000
0000
0000
ENDCHAR
STARTCHAR U+3140
ENCODING 12608
SWIDTH 1000 0
DWIDTH 10 0
BBX 13 10 -1 -2
BITMAP 
0000
0000
0730
0FF0
0860
08B0
1C40
0000
0000
0000
ENDCHAR
STARTCHAR U+3141
ENCODING 12609
SWIDTH 1000 0
DWIDTH 10 0
BBX 13 10 -1 -2
BITMAP 
0000
0000
03E0
0440
0440
0440
0380
0000
0000
0000
ENDCHAR
STARTCHAR U+3142
ENCODING 12610
SWIDTH 1000 0
DWIDTH 10 0
BBX 13 10 -1 -2
BITMAP 
0000
0000
0220
07C0
0440
0440
0380
0000
0000
0000
ENDCHAR
STARTCHAR U+3143
ENCODING 12611
SWIDTH 1000 0
DWIDTH 10 0
BBX 13 10 -1 -2
BITMAP 
0000
0000
04A8
0F70
0950
0950
06E0
0000
0000
0000
ENDCHAR
STARTCHAR U+3144
ENCODING 12612
SWIDTH 1000 0
DWIDTH 10 0
BBX 13 10 -1 -2
BITMAP 
0000
0000
04A0
0F40
0960
0920
0620
0000
0000
0000
ENDCHAR
STARTCHAR U+3145
ENCODING 12613
SWIDTH 1000 0
DWIDTH 10 0
BBX 13 10 -1 -2
BITMAP 
0000
0000
0040
0080
0100
0200
0000
0000
0000
0000
ENDCHAR
STARTCHAR U+3146
ENCODING 12614
SWIDTH 1000 0
DWIDTH 10 0
BBX 13 10 -1 -2
BITMAP 
0000
0000
0120
0240
0560
0520
0020
0000
0000
0000
ENDCHAR
STARTCHAR U+3147
ENCODING 12615
SWIDTH 1000 0
DWIDTH 10 0
BBX 13 10 -1 -2
BITMAP 
0000
0000
01E0
0240
0440
0480
0300
0000
0000
0000
ENDCHAR
STARTCHAR U+3148
ENCODING 12616
SWIDTH 1000 0
DWIDTH 10 0
BBX 13 10 -1 -2
BITMAP 
0000
0000
01F0
0080
0100
0200
0000
0000
0000
0000
ENDCHAR
STARTCHAR U+3149
ENCODING 12617
SWIDTH 1000 0
DWIDTH 10 0
BBX 13 10 -1 -2
BITMAP 
0000
0000
03F8
0240
0560
0520
0020
0000
0000
0000
ENDCHAR
STARTCHAR U+314A
ENCODING 12618
SWIDTH 1000 0
DWIDTH 10 0
BBX 13 10 -1 -2
BITMAP 
0000
0000
00C0
03E0
0080
0340
0440
0000
0000
0000
ENDCHAR
STARTCHAR U+314B
ENCODING 12619
SWIDTH 1000 0
DWIDTH 10 0
BBX 13 10 -1 -2
BITMAP 
0000
0000
01E0
0040
07C0
0040
0000
0000
0000
0000
ENDCHAR
STARTCHAR U+314C
ENCODING 12620
SWIDTH 1000 0
DWIDTH 10 0
BBX 13 10 -1 -2
BITMAP 
0000
0000
03E0
07C0
0400
0400
0380
0000
0000
0000
ENDCHAR
STARTCHAR U+314D
ENCODING 12621
SWIDTH 1000 0
DWIDTH 10 0
BBX 13 10 -1 -2
BITMAP 
0000
0000
01E0
0200
0240
0240
0FC0
0000
0000
0000
ENDCHAR
STARTCHAR U+314E
ENCODING 12622
SWIDTH 1000 0
DWIDTH 10 0
BBX 13 10 -1 -2
BITMAP 
0000
00C0
01F0
01C0
0240
0280
0300
0000
0000
0000
ENDCHAR
STARTCHAR U+314F
ENCODING 12623
SWIDTH 1000 0
DWIDTH 10 0
BBX 13 10 -1 -2
BITMAP 
0040
0040
0040
0080
00E0
0080
0100
0100
0100
0000
ENDCHAR
STARTCHAR U+3150
ENCODING 12624
SWIDTH 1000 0
DWIDTH 10 0
BBX 13 10 -1 -2
BITMAP 
0020
0120
0120
0240
03C0
0240
0480
0480
0080
0000
ENDCHAR
STARTCHAR U+3151
ENCODING 12625
SWIDTH 1000 0
DWIDTH 10 0
BBX 13 10 -1 -2
BITMAP 
0040
0040
0070
0080
0080
00E0
0100
0100
0100
0000
ENDCHAR
STARTCHAR U+3152
ENCODING 12626
SWIDTH 1000 0
DWIDTH 10 0
BBX 13 10 -1 -2
BITMAP 
0020
0120
01E0
02C0
0240
03C0
0480
0480
0080
0000
ENDCHAR
STARTCHAR U+3153
ENCODING 12627
SWIDTH 1000 0
DWIDTH 10 0
BBX 13 10 -1 -2
BITMAP 
0020
0020
0020
0040
03C0
0040
0080
0080
0080
0000
ENDCHAR
STARTCHAR U+3154
ENCODING 12628
SWIDTH 1000 0
DWIDTH 10 0
BBX 13 10 -1 -2
BITMAP 
0020
00A0
00A0
0140
0740
0140
0280
0280
0080
0000
ENDCHAR
STARTCHAR U+3155
ENCODING 12629
SWIDTH 1000 0
DWIDTH 10 0
BBX 13 10 -1 -2
BITMAP 
0040
0040
00C0
0080
0080
0380
0100
0100
0100
0000
ENDCHAR
STARTCHAR U+3156
ENCODING 12630
SWIDTH 1000 0
DWIDTH 10 0
BBX 13 10 -1 -2
BITMAP 
00A0
00A0
01A0
0140
0140
0740
0280
0280
0280
0000
ENDCHAR
STARTCHAR U+3157
ENCODING 12631
SWIDTH 1000 0
DWIDTH 10 0
BBX 13 10 -1 -2
BITMAP 
0000
0000
0000
0000
0080
0080
1FE0
0000
0000
0000
ENDCHAR
STARTCHAR U+3158
ENCODING 12632
SWIDTH 1000 0
DWIDTH 10 0
BBX 13 10 -1 -2
BITMAP 
0010
0010
0010
0220
0220
0230
0440
1F40
0040
0000
ENDCHAR
STARTCHAR U+3159
ENCODING 12633
SWIDTH 1000 0
DWIDTH 10 0
BBX 13 10 -1 -2
BITMAP 
0008
0028
0028
0050
0470
0450
08A0
1CA0
0020
0000
ENDCHAR
STARTCHAR U+315A
ENCODING 12634
SWIDTH 1000 0
DWIDTH 10 0
BBX 13 10 -1 -2
BITMAP 
0010
0010
0010
0220
0220
0220
0440
1F40
0040
0000
ENDCHAR
STARTCHAR U+315B
ENCODING 12635
SWIDTH 1000 0
DWIDTH 10 0
BBX 13 10 -1 -2
BITMAP 
0000
0000
0000
0200
0240
0240
1FE0
0000
0000
0000
ENDCHAR
STARTCHAR U+315C
ENCODING 12636
SWIDTH 1000 0
DWIDTH 10 0
BBX 13 10 -1 -2
BITMAP 
0000
0000
0000
0FF0
0080
0080
0100
0100
0000
0000
ENDCHAR
STARTCHAR U+315D
ENCODING 12637
SWIDTH 1000 0
DWIDTH 10 0
BBX 13 10 -1 -2
BITMAP 
0010
0010
0010
0020
0FA0
0220
04C0
0440
0040
0000
ENDCHAR
STARTCHAR U+315E
ENCODING 12638
SWIDTH 1000 0
DWIDTH 10 0
BBX 13 10 -1 -2
BITMAP 
0008
0028
0028
0050
0F50
0450
0BA0
00A0
0020
0000
ENDCHAR
STARTCHAR U+315F
ENCODING 12639
SWIDTH 1000 0
DWIDTH 10 0
BBX 13 10 -1 -2
BITMAP 
0010
0010
0010
0020
0FA0
0220
0440
0440
0040
0000
ENDCHAR
STARTCHAR U+3160
ENCODING 12640
SWIDTH 1000 0
DWIDTH 10 0
BBX 13 10 -1 -2
BITMAP 
0000
0000
0000
0FF0
0440
0440
0880
0880
0000
0000
ENDCHAR
STARTCHAR U+3161
ENCODING 12641
SWIDTH 1000 0
DWIDTH 10 0
BBX 13 10 -1 -2
BITMAP 
0000
0000
0000
0FF0
0000
0000
0000
0000
0000
0000
ENDCHAR
STARTCHAR U+3162
ENCODING 12642
SWIDTH 1000 0
DWIDTH 10 0
BBX 13 10 -1 -2
BITMAP 
0010
0010
0010
0020
0020
0020
1F40
0040
0040
0000
ENDCHAR
STARTCHAR U+3163
ENCODING 12643
SWIDTH 1000 0
DWIDTH 10 0
BBX 13 10 -1 -2
BITMAP 
0040
0040
0040
0080
0080
0080
0100
0100
0100
0000
ENDCHAR
STARTCHAR U+3164
ENCODING 12644
SWIDTH 1000 0
DWIDTH 10 0
BBX 13 10 -1 -2
BITMAP 
0000
0000
0000
0000
0000
0000
0000
0000
0000
0000
ENDCHAR
STARTCHAR U+3165
ENCODING 12645
SWIDTH 1000 0
DWIDTH 10 0
BBX 13 10 -1 -2
BITMAP 
0000
0000
0440
0880
0880
0880
07C0
0000
0000
0000
ENDCHAR
STARTCHAR U+3166
ENCODING 12646
SWIDTH 1000 0
DWIDTH 10 0
BBX 13 10 -1 -2
BITMAP 
0000
0000
0470
0880
0880
0880
07C0
0000
0000
0000
ENDCHAR
STARTCHAR U+3167
ENCODING 12647
SWIDTH 1000 0
DWIDTH 10 0
BBX 13 10 -1 -2
BITMAP 
0000
0000
0420
0840
0860
0820
0620
0000
0000
0000
ENDCHAR
STARTCHAR U+3168
ENCODING 12648
SWIDTH 1000 0
DWIDTH 10 0
BBX 13 10 -1 -2
BITMAP 
0000
0000
0420
0860
0860
0990
06E0
0000
0000
0000
ENDCHAR
STARTCHAR U+3169
ENCODING 12649
SWIDTH 1000 0
DWIDTH 10 0
BBX 13 10 -1 -2
BITMAP 
0000
0000
07D0
0C90
0890
08D0
1820
0000
0000
0000
ENDCHAR
STARTCHAR U+316A
ENCODING 12650
SWIDTH 1000 0
DWIDTH 10 0
BBX 13 10 -1 -2
BITMAP 
0000
0000
05B8
0740
0840
0840
06E0
0000
0000
0000
ENDCHAR
STARTCHAR U+316B
ENCODING 12651
SWIDTH 1000 0
DWIDTH 10 0
BBX 13 10 -1 -2
BITMAP 
0000
0000
06A8
0DD0
0950
09E0
1B00
0000
0000
0000
ENDCHAR
STARTCHAR U+316C
ENCODING 12652
SWIDTH 1000 0
DWIDTH 10 0
BBX 13 10 -1 -2
BITMAP 
0000
0000
05A0
0760
0860
0990
06E0
0000
0000
0000
ENDCHAR
STARTCHAR U+316D
ENCODING 12653
SWIDTH 1000 0
DWIDTH 10 0
BBX 13 10 -1 -2
BITMAP 
0000
0000
05B8
0720
0850
0860
0640
0000
0000
0000
ENDCHAR
STARTCHAR U+316E
ENCODING 12654
SWIDTH 1000 0
DWIDTH 10 0
BBX 13 10 -1 -2
BITMAP 
0000
0000
07A8
0970
0950
0950
06E0
0000
0000
0000
ENDCHAR
STARTCHAR U+316F
ENCODING 12655
SWIDTH 1000 0
DWIDTH 10 0
BBX 13 10 -1 -2
BITMAP 
0000
0000
07A0
0940
0960
0920
0620
0000
0000
0000
ENDCHAR
STARTCHAR U+3170
ENCODING 12656
SWIDTH 1000 0
DWIDTH 10 0
BBX 13 10 -1 -2
BITMAP 
0000
0000
07A0
0960
0960
0990
07E0
0000
0000
0000
ENDCHAR
STARTCHAR U+3171
ENCODING 12657
SWIDTH 1000 0
DWIDTH 10 0
BBX 13 10 -1 -2
BITMAP 
03E0
0220
03E0
0100
0380
0480
0080
0300
0000
0000
ENDCHAR
STARTCHAR U+3172
ENCODING 12658
SWIDTH 1000 0
DWIDTH 10 0
BBX 13 10 -1 -2
BITMAP 
0000
0000
04B8
0F10
0910
0910
0620
0000
0000
0000
ENDCHAR
STARTCHAR U+3173
ENCODING 12659
SWIDTH 1000 0
DWIDTH 10 0
BBX 13 10 -1 -2
BITMAP 
0000
0000
04B8
0F40
0940
0940
06E0
0000
0000
0000
ENDCHAR
STARTCHAR U+3174
ENCODING 12660
SWIDTH 1000 0
DWIDTH 10 0
BBX 13 10 -1 -2
BITMAP 
0000
0000
0698
0C90
0D10
0E50
1C20
0000
0000
0000
ENDCHAR
STARTCHAR U+3175
ENCODING 12661
SWIDTH 1000 0
DWIDTH 10 0
BBX 13 10 -1 -2
BITMAP 
0000
0000
0698
0CA0
0D20
0E60
1C60
0000
0000
0000
ENDCHAR
STARTCHAR U+3176
ENCODING 12662
SWIDTH 1000 0
DWIDTH 10 0
BBX 13 10 -1 -2
BITMAP 
0000
0000
04F8
0F40
0960
0920
0620
0000
0000
0000
ENDCHAR
STARTCHAR U+3177
ENCODING 12663
SWIDTH 1000 0
DWIDTH 10 0
BBX 13 10 -1 -2
BITMAP 
0000
0000
04B8
0F70
0940
0940
06E0
0000
0000
0000
ENDCHAR
STARTCHAR U+3178
ENCODING 12664
SWIDTH 1000 0
DWIDTH 10 0
BBX 13 10 -1 -2
BITMAP 
0120
01E0
01E0
0080
0180
0280
0280
0100
0000
0000
ENDCHAR
STARTCHAR U+3179
ENCODING 12665
SWIDTH 1000 0
DWIDTH 10 0
BBX 13 10 -1 -2
BITMAP 
02B0
03B0
03F0
0080
0180
0280
0280
0100
0000
0000
ENDCHAR
STARTCHAR U+317A
ENCODING 12666
SWIDTH 1000 0
DWIDTH 10 0
BBX 13 10 -1 -2
BITMAP 
0000
0000
0170
0220
0520
0520
0000
0000
0000
0000
ENDCHAR
STARTCHAR U+317B
ENCODING 12667
SWIDTH 1000 0
DWIDTH 10 0
BBX 13 10 -1 -2
BITMAP 
0000
0000
0120
0240
0540
0540
01E0
0000
0000
0000
ENDCHAR
STARTCHAR U+317C
ENCODING 12668
SWIDTH 1000 0
DWIDTH 10 0
BBX 13 10 -1 -2
BITMAP 
0000
0000
0138
0240
0540
0540
01E0
0000
0000
0000
ENDCHAR
STARTCHAR U+317D
ENCODING 12669
SWIDTH 1000 0
DWIDTH 10 0
BBX 13 10 -1 -2
BITMAP 
0000
0000
0128
0270
0550
0550
01E0
0000
0000
0000
ENDCHAR
STARTCHAR U+317E
ENCODING 12670
SWIDTH 1000 0
DWIDTH 10 0
BBX 13 10 -1 -2
BITMAP 
0000
0000
0478
0840
0860
0820
0620
0000
0000
0000
ENDCHAR
STARTCHAR U+317F
ENCODING 12671
SWIDTH 1000 0
DWIDTH 10 0
BBX 13 10 -1 -2
BITMAP 
0000
0000
00C0
0100
0240
0420
03C0
0000
0000
0000
ENDCHAR
STARTCHAR U+3180
ENCODING 12672
SWIDTH 1000 0
DWIDTH 10 0
BBX 13 10 -1 -2
BITMAP 
0000
0000
0230
0150
0950
0250
0460
0000
0000
0000
ENDCHAR
STARTCHAR U+3181
ENCODING 12673
SWIDTH 1000 0
DWIDTH 10 0
BBX 13 10 -1 -2
BITMAP 
0000
0000
00C0
0020
0420
0440
0380
0000
0000
0000
ENDCHAR
STARTCHAR U+3182
ENCODING 12674
SWIDTH 1000 0
DWIDTH 10 0
BBX 13 10 -1 -2
BITMAP 
0000
0000
0320
0540
0960
0A20
0C20
0000
0000
0000
ENDCHAR
STARTCHAR U+3183
ENCODING 12675
SWIDTH 1000 0
DWIDTH 10 0
BBX 13 10 -1 -2
BITMAP 
0000
0000
0620
0A60
0A60
0C90
09E0
0000
0000
0000
ENDCHAR
STARTCHAR U+3184
ENCODING 12676
SWIDTH 1000 0
DWIDTH 10 0
BBX 13 10 -1 -2
BITMAP 
03E0
0120
03F0
0100
0380
0480
0080
0300
0000
0000
ENDCHAR
STARTCHAR U+3185
ENCODING 12677
SWIDTH 1000 0
DWIDTH 10 0
BBX 13 10 -1 -2
BITMAP 
0000
0110
07F8
0660
0150
0250
0460
0000
0000
0000
ENDCHAR
STARTCHAR U+3186
ENCODING 12678
SWIDTH 1000 0
DWIDTH 10 0
BBX 13 10 -1 -2
BITMAP 
0000
0000
01F0
0180
0240
0280
0300
0000
0000
0000
ENDCHAR
STARTCHAR U+3187
ENCODING 12679
SWIDTH 1000 0
DWIDTH 10 0
BBX 13 10 -1 -2
BITMAP 
0010
0010
0010
0020
04B0
04A0
1FE0
0040
0040
0000
ENDCHAR
STARTCHAR U+3188
ENCODING 12680
SWIDTH 1000 0
DWIDTH 10 0
BBX 13 10 -1 -2
BITMAP 
0008
0028
0028
0270
0A50
0A50
1FE0
00A0
0020
0000
ENDCHAR
STARTCHAR U+3189
ENCODING 12681
SWIDTH 1000 0
DWIDTH 10 0
BBX 13 10 -1 -2
BITMAP 
0010
0010
0010
0020
04A0
04A0
1FC0
0040
0040
0000
ENDCHAR
STARTCHAR U+318A
ENCODING 12682
SWIDTH 1000 0
DWIDTH 10 0
BBX 13 10 -1 -2
BITMAP 
0010
0010
0010
0FA0
0520
0560
0A40
0AC0
0040
0000
ENDCHAR
STARTCHAR U+318B
ENCODING 12683
SWIDTH 1000 0
DWIDTH 10 0
BBX 13 10 -1 -2
BITMAP 
0028
0028
0028
0F50
0A50
0AD0
14A0
15A0
00A0
0000
ENDCHAR
STARTCHAR U+318C
ENCODING 12684
SWIDTH 1000 0
DWIDTH 10 0
BBX 13 10 -1 -2
BITMAP 
0010
0010
0010
0FE0
04A0
04A0
0940
0940
0040
0000
ENDCHAR
STARTCHAR U+318D
ENCODING 12685
SWIDTH 1000 0
DWIDTH 10 0
BBX 13 10 -1 -2
BITMAP 
0000
0000
0000
0000
0080
0000
0000
0000
0000
0000
ENDCHAR
STARTCHAR U+318E
ENCODING 12686
SWIDTH 1000 0
DWIDTH 10 0
BBX 13 10 -1 -2
BITMAP 
0010
0010
0010
0020
0220
0220
0040
0040
0040
0000
ENDCHAR
STARTCHAR U+3200
ENCODING 12800
SWIDTH 1000 0
DWIDTH 10 0
BBX 13 10 -1 -2
BITMAP 
0210
0408
04E0
0840
0840
0840
1000
1020
0800
0000
ENDCHAR
STARTCHAR U+3201
ENCODING 12801
SWIDTH 1000 0
DWIDTH 10 0
BBX 13 10 -1 -2
BITMAP 
0210
0408
0400
0A00
0A00
0A00
1780
1020
0800
0000
ENDCHAR
STARTCHAR U+3202
ENCODING 12802
SWIDTH 1000 0
DWIDTH 10 0
BBX 13 10 -1 -2
BITMAP 
0210
0408
04E0
0900
0A00
0A00
1780
1020
0800
0000
ENDCHAR
STARTCHAR U+3203
ENCODING 12803
SWIDTH 1000 0
DWIDTH 10 0
BBX 13 10 -1 -2
BITMAP 
0210
0408
04E0
0840
0BC0
0A00
1780
1020
0800
0000
ENDCHAR
STARTCHAR U+3204
ENCODING 12804
SWIDTH 1000 0
DWIDTH 10 0
BBX 13 10 -1 -2
BITMAP 
0210
0408
04E0
0940
0A40
0A40
1780
1020
0800
0000
ENDCHAR
STARTCHAR U+3205
ENCODING 12805
SWIDTH 1000 0
DWIDTH 10 0
BBX 13 10 -1 -2
BITMAP 
0210
0408
0400
0A40
0BC0
0A40
1780
1020
0800
0000
ENDCHAR
STARTCHAR U+3206
ENCODING 12806
SWIDTH 1000 0
DWIDTH 10 0
BBX 13 10 -1 -2
BITMAP 
0210
0408
0400
0880
0880
0940
1600
1020
0800
0000
ENDCHAR
STARTCHAR U+3207
ENCODING 12807
SWIDTH 1000 0
DWIDTH 10 0
BBX 13 10 -1 -2
BITMAP 
0210
0408
04C0
0940
0A40
0A80
1300
1020
0800
0000
ENDCHAR
STARTCHAR U+3208
ENCODING 12808
SWIDTH 1000 0
DWIDTH 10 0
BBX 13 10 -1 -2
BITMAP 
0210
0408
04E0
0880
0880
0940
1600
1020
0800
0000
ENDCHAR
STARTCHAR U+3209
ENCODING 12809
SWIDTH 1000 0
DWIDTH 10 0
BBX 13 10 -1 -2
BITMAP 
0210
0408
04C0
0BC0
0880
0B40
1400
1020
0800
0000
ENDCHAR
STARTCHAR U+320A
ENCODING 12810
SWIDTH 1000 0
DWIDTH 10 0
BBX 13 10 -1 -2
BITMAP 
0210
0408
04E0
0840
0BC0
0840
1000
1020
0800
0000
ENDCHAR
STARTCHAR U+320B
ENCODING 12811
SWIDTH 1000 0
DWIDTH 10 0
BBX 13 10 -1 -2
BITMAP 
0210
0408
04E0
0900
0BC0
0A00
1780
1020
0800
0000
ENDCHAR
STARTCHAR U+320C
ENCODING 12812
SWIDTH 1000 0
DWIDTH 10 0
BBX 13 10 -1 -2
BITMAP 
0210
0408
04E0
09C0
0940
0940
1780
1020
0800
0000
ENDCHAR
STARTCHAR U+320D
ENCODING 12813
SWIDTH 1000 0
DWIDTH 10 0
BBX 13 10 -1 -2
BITMAP 
0210
0408
04C0
0BE0
0940
0A40
1280
1120
0800
0000
ENDCHAR
STARTCHAR U+320E
ENCODING 12814
SWIDTH 1000 0
DWIDTH 10 0
BBX 13 10 -1 -2
BITMAP 
0210
0408
04E0
08C0
08E0
0940
1680
1020
0800
0000
ENDCHAR
STARTCHAR U+320F
ENCODING 12815
SWIDTH 1000 0
DWIDTH 10 0
BBX 13 10 -1 -2
BITMAP 
0210
0408
0520
0A40
0A60
0A40
1680
1020
0800
0000
ENDCHAR
STARTCHAR U+3210
ENCODING 12816
SWIDTH 1000 0
DWIDTH 10 0
BBX 13 10 -1 -2
BITMAP 
0210
0408
05A0
0A40
0A60
0A40
1680
1020
0800
0000
ENDCHAR
STARTCHAR U+3211
ENCODING 12817
SWIDTH 1000 0
DWIDTH 10 0
BBX 13 10 -1 -2
BITMAP 
0210
0608
07E0
0BC0
0C60
0C40
1E80
1020
0800
0000
ENDCHAR
STARTCHAR U+3212
ENCODING 12818
SWIDTH 1000 0
DWIDTH 10 0
BBX 13 10 -1 -2
BITMAP 
0210
0408
05E0
0AC0
0AE0
0BC0
1680
1020
0800
0000
ENDCHAR
STARTCHAR U+3213
ENCODING 12819
SWIDTH 1000 0
DWIDTH 10 0
BBX 13 10 -1 -2
BITMAP 
0210
0408
0560
0BC0
0AE0
0BC0
1680
1020
0800
0000
ENDCHAR
STARTCHAR U+3214
ENCODING 12820
SWIDTH 1000 0
DWIDTH 10 0
BBX 13 10 -1 -2
BITMAP 
0210
0408
04A0
0940
0960
0AC0
1C80
1020
0800
0000
ENDCHAR
STARTCHAR U+3215
ENCODING 12821
SWIDTH 1000 0
DWIDTH 10 0
BBX 13 10 -1 -2
BITMAP 
0210
0408
04A0
09C0
0AE0
0BC0
1280
1020
0800
0000
ENDCHAR
STARTCHAR U+3216
ENCODING 12822
SWIDTH 1000 0
DWIDTH 10 0
BBX 13 10 -1 -2
BITMAP 
0210
0408
04A0
08C0
0AE0
0CC0
1880
1020
0800
0000
ENDCHAR
STARTCHAR U+3217
ENCODING 12823
SWIDTH 1000 0
DWIDTH 10 0
BBX 13 10 -1 -2
BITMAP 
0210
0408
0420
0B40
0960
0F40
1880
1020
0800
0000
ENDCHAR
STARTCHAR U+3218
ENCODING 12824
SWIDTH 1000 0
DWIDTH 10 0
BBX 13 10 -1 -2
BITMAP 
0210
0408
04E0
0BC0
08E0
0B40
1480
1020
0800
0000
ENDCHAR
STARTCHAR U+3219
ENCODING 12825
SWIDTH 1000 0
DWIDTH 10 0
BBX 13 10 -1 -2
BITMAP 
0210
0608
07A0
0F40
0C60
0C40
1E80
1020
0800
0000
ENDCHAR
STARTCHAR U+321A
ENCODING 12826
SWIDTH 1000 0
DWIDTH 10 0
BBX 13 10 -1 -2
BITMAP 
0210
0608
07A0
0A40
0AE0
0AC0
1F80
1020
0800
0000
ENDCHAR
STARTCHAR U+321B
ENCODING 12827
SWIDTH 1000 0
DWIDTH 10 0
BBX 13 10 -1 -2
BITMAP 
0210
0408
0420
0B40
0B60
0DC0
1280
1020
0800
0000
ENDCHAR
STARTCHAR U+321C
ENCODING 12828
SWIDTH 1000 0
DWIDTH 10 0
BBX 13 10 -1 -2
BITMAP 
0210
0408
04E0
0B40
0800
0FE0
1100
1120
0800
0000
ENDCHAR
STARTCHAR U+3220
ENCODING 12832
SWIDTH 1000 0
DWIDTH 10 0
BBX 13 10 -1 -2
BITMAP 
0000
0000
1000
2000
2FC0
2000
4000
4000
0000
0000
ENDCHAR
STARTCHAR U+3221
ENCODING 12833
SWIDTH 1000 0
DWIDTH 10 0
BBX 13 10 -1 -2
BITMAP 
0000
0000
17C0
2000
2000
2000
5F80
4000
0000
0000
ENDCHAR
STARTCHAR U+3222
ENCODING 12834
SWIDTH 1000 0
DWIDTH 10 0
BBX 13 10 -1 -2
BITMAP 
0000
0040
17C0
2000
2780
2000
4000
5F80
0000
0000
ENDCHAR
STARTCHAR U+3223
ENCODING 12835
SWIDTH 1000 0
DWIDTH 10 0
BBX 13 10 -1 -2
BITMAP 
0000
0000
1FE0
3440
3440
3440
7F80
4000
0000
0000
ENDCHAR
STARTCHAR U+3224
ENCODING 12836
SWIDTH 1000 0
DWIDTH 10 0
BBX 13 10 -1 -2
BITMAP 
0000
0040
17C0
2000
2F80
2480
4900
5F80
0000
0000
ENDCHAR
STARTCHAR U+3225
ENCODING 12837
SWIDTH 1000 0
DWIDTH 10 0
BBX 13 10 -1 -2
BITMAP 
0000
0000
1100
2040
2000
2000
4800
5080
0000
0000
ENDCHAR
STARTCHAR U+3226
ENCODING 12838
SWIDTH 1000 0
DWIDTH 10 0
BBX 13 10 -1 -2
BITMAP 
0000
0000
1000
2040
2300
2C00
4000
4100
0300
0000
ENDCHAR
STARTCHAR U+3227
ENCODING 12839
SWIDTH 1000 0
DWIDTH 10 0
BBX 13 10 -1 -2
BITMAP 
0000
0000
1280
2500
2500
2800
4080
4000
0000
0000
ENDCHAR
STARTCHAR U+3228
ENCODING 12840
SWIDTH 1000 0
DWIDTH 10 0
BBX 13 10 -1 -2
BITMAP 
0000
0000
1000
2F80
2000
2000
4800
5180
0000
0000
ENDCHAR
STARTCHAR U+3229
ENCODING 12841
SWIDTH 1000 0
DWIDTH 10 0
BBX 13 10 -1 -2
BITMAP 
0000
0000
1100
2240
2200
2200
4400
4400
0000
0000
ENDCHAR
STARTCHAR U+3231
ENCODING 12849
SWIDTH 1000 0
DWIDTH 10 0
BBX 13 10 -1 -2
BITMAP 
0000
0000
0FF8
14D0
1750
1FF0
39A0
2BE0
2CC0
1180
ENDCHAR
STARTCHAR U+3232
ENCODING 12850
SWIDTH 1000 0
DWIDTH 10 0
BBX 13 10 -1 -2
BITMAP 
0000
0100
0FF8
1210
17D0
1450
3FA0
2FA0
30E0
2180
ENDCHAR
STARTCHAR U+3239
ENCODING 12857
SWIDTH 1000 0
DWIDTH 10 0
BBX 13 10 -1 -2
BITMAP 
0000
0040
0A68
11F0
1890
1890
30A0
30A0
30C0
2080
ENDCHAR
STARTCHAR U+3260
ENCODING 12896
SWIDTH 1000 0
DWIDTH 10 0
BBX 13 10 -1 -2
BITMAP 
01E0
0200
04E0
0840
0840
0840
0800
0820
0780
0000
ENDCHAR
STARTCHAR U+3261
ENCODING 12897
SWIDTH 1000 0
DWIDTH 10 0
BBX 13 10 -1 -2
BITMAP 
01E0
0200
0400
0A00
0A00
0A00
0F80
0820
0780
0000
ENDCHAR
STARTCHAR U+3262
ENCODING 12898
SWIDTH 1000 0
DWIDTH 10 0
BBX 13 10 -1 -2
BITMAP 
01E0
0200
04E0
0900
0A00
0A00
0F80
0820
0780
0000
ENDCHAR
STARTCHAR U+3263
ENCODING 12899
SWIDTH 1000 0
DWIDTH 10 0
BBX 13 10 -1 -2
BITMAP 
01E0
0200
04E0
0840
0BC0
0A00
0F80
0820
0780
0000
ENDCHAR
STARTCHAR U+3264
ENCODING 12900
SWIDTH 1000 0
DWIDTH 10 0
BBX 13 10 -1 -2
BITMAP 
01E0
0200
04E0
0940
0A40
0A40
0F80
0820
0780
0000
ENDCHAR
STARTCHAR U+3265
ENCODING 12901
SWIDTH 1000 0
DWIDTH 10 0
BBX 13 10 -1 -2
BITMAP 
01E0
0200
0400
0A40
0BC0
0A40
0F80
0820
0780
0000
ENDCHAR
STARTCHAR U+3266
ENCODING 12902
SWIDTH 1000 0
DWIDTH 10 0
BBX 13 10 -1 -2
BITMAP 
01E0
0200
0400
0880
0880
0940
0E00
0820
0780
0000
ENDCHAR
STARTCHAR U+3267
ENCODING 12903
SWIDTH 1000 0
DWIDTH 10 0
BBX 13 10 -1 -2
BITMAP 
01E0
0200
04C0
0940
0A40
0A80
0B00
0820
0780
0000
ENDCHAR
STARTCHAR U+3268
ENCODING 12904
SWIDTH 1000 0
DWIDTH 10 0
BBX 13 10 -1 -2
BITMAP 
01E0
0200
04E0
0880
0880
0940
0E00
0820
0780
0000
ENDCHAR
STARTCHAR U+3269
ENCODING 12905
SWIDTH 1000 0
DWIDTH 10 0
BBX 13 10 -1 -2
BITMAP 
01E0
0200
04C0
0BC0
0880
0B40
0C00
0820
0780
0000
ENDCHAR
STARTCHAR U+326A
ENCODING 12906
SWIDTH 1000 0
DWIDTH 10 0
BBX 13 10 -1 -2
BITMAP 
01E0
0200
04E0
0840
0BC0
0840
0800
0820
0780
0000
ENDCHAR
STARTCHAR U+326B
ENCODING 12907
SWIDTH 1000 0
DWIDTH 10 0
BBX 13 10 -1 -2
BITMAP 
01E0
0200
04E0
0900
0BC0
0A00
0F80
0820
0780
0000
ENDCHAR
STARTCHAR U+326C
ENCODING 12908
SWIDTH 1000 0
DWIDTH 10 0
BBX 13 10 -1 -2
BITMAP 
01E0
0200
04E0
09C0
0940
0940
0F80
0820
0780
0000
ENDCHAR
STARTCHAR U+326D
ENCODING 12909
SWIDTH 1000 0
DWIDTH 10 0
BBX 13 10 -1 -2
BITMAP 
01E0
0200
04C0
0BE0
0940
0A40
0A80
0B20
0780
0000
ENDCHAR
STARTCHAR U+326E
ENCODING 12910
SWIDTH 1000 0
DWIDTH 10 0
BBX 13 10 -1 -2
BITMAP 
01E0
0210
04E0
08C0
08E0
0940
0E40
0860
0780
0000
ENDCHAR
STARTCHAR U+326F
ENCODING 12911
SWIDTH 1000 0
DWIDTH 10 0
BBX 13 10 -1 -2
BITMAP 
01E0
0210
0620
0A40
0A60
0A40
0E40
0860
0780
0000
ENDCHAR
STARTCHAR U+3270
ENCODING 12912
SWIDTH 1000 0
DWIDTH 10 0
BBX 13 10 -1 -2
BITMAP 
01E0
0210
07A0
0A40
0A60
0A40
0E40
0860
0780
0000
ENDCHAR
STARTCHAR U+3271
ENCODING 12913
SWIDTH 1000 0
DWIDTH 10 0
BBX 13 10 -1 -2
BITMAP 
01E0
0210
04E0
09C0
0A60
0A40
0E40
0860
0780
0000
ENDCHAR
STARTCHAR U+3272
ENCODING 12914
SWIDTH 1000 0
DWIDTH 10 0
BBX 13 10 -1 -2
BITMAP 
01E0
0210
07E0
0AC0
0AE0
0BC0
0E40
0860
0780
0000
ENDCHAR
STARTCHAR U+3273
ENCODING 12915
SWIDTH 1000 0
DWIDTH 10 0
BBX 13 10 -1 -2
BITMAP 
01E0
0210
0660
0BC0
0AE0
0BC0
0E40
0860
0780
0000
ENDCHAR
STARTCHAR U+3274
ENCODING 12916
SWIDTH 1000 0
DWIDTH 10 0
BBX 13 10 -1 -2
BITMAP 
01E0
0210
04A0
0940
0960
0AC0
1C40
0860
0780
0000
ENDCHAR
STARTCHAR U+3275
ENCODING 12917
SWIDTH 1000 0
DWIDTH 10 0
BBX 13 10 -1 -2
BITMAP 
01E0
0210
04A0
09C0
0AE0
0BC0
0A40
0860
0780
0000
ENDCHAR
STARTCHAR U+3276
ENCODING 12918
SWIDTH 1000 0
DWIDTH 10 0
BBX 13 10 -1 -2
BITMAP 
01E0
0210
04A0
08C0
0AE0
0CC0
1440
0860
0780
0000
ENDCHAR
STARTCHAR U+3277
ENCODING 12919
SWIDTH 1000 0
DWIDTH 10 0
BBX 13 10 -1 -2
BITMAP 
01E0
0210
0420
0B40
0960
0F40
1840
0860
0780
0000
ENDCHAR
STARTCHAR U+3278
ENCODING 12920
SWIDTH 1000 0
DWIDTH 10 0
BBX 13 10 -1 -2
BITMAP 
01E0
0210
04E0
0BC0
08E0
0B40
0C40
0860
0780
0000
ENDCHAR
STARTCHAR U+3279
ENCODING 12921
SWIDTH 1000 0
DWIDTH 10 0
BBX 13 10 -1 -2
BITMAP 
01E0
0210
06A0
0B40
0A60
0A40
0E40
0860
0780
0000
ENDCHAR
STARTCHAR U+327A
ENCODING 12922
SWIDTH 1000 0
DWIDTH 10 0
BBX 13 10 -1 -2
BITMAP 
01E0
0210
07A0
0A40
0AE0
0AC0
1F40
0860
0780
0000
ENDCHAR
STARTCHAR U+327B
ENCODING 12923
SWIDTH 1000 0
DWIDTH 10 0
BBX 13 10 -1 -2
BITMAP 
01E0
0210
0420
0B40
0B60
0DC0
1640
0860
0780
0000
ENDCHAR
STARTCHAR U+327F
ENCODING 12927
SWIDTH 1000 0
DWIDTH 10 0
BBX 13 10 -1 -2
BITMAP 
01E0
0200
0400
0940
0D80
0170
1200
0820
0780
0000
ENDCHAR
STARTCHAR U+32A3
ENCODING 12963
SWIDTH 1000 0
DWIDTH 10 0
BBX 13 10 -1 -2
BITMAP 
0000
0240
0000
17A0
0100
0580
2A40
1F80
0900
0000
ENDCHAR
STARTCHAR U+32A4
ENCODING 12964
SWIDTH 1000 0
DWIDTH 10 0
BBX 13 10 -1 -2
BITMAP 
0000
03E0
0490
0910
11D0
1110
2220
3FE0
18C0
1F00
ENDCHAR
STARTCHAR U+32A5
ENCODING 12965
SWIDTH 1000 0
DWIDTH 10 0
BBX 13 10 -1 -2
BITMAP 
0000
03E0
04B0
1FD0
1950
1950
3F60
3220
1200
0F00
ENDCHAR
STARTCHAR U+32A6
ENCODING 12966
SWIDTH 1000 0
DWIDTH 10 0
BBX 13 10 -1 -2
BITMAP 
0000
03E0
07F0
0910
1190
1150
2220
2220
1200
0F00
ENDCHAR
STARTCHAR U+32A7
ENCODING 12967
SWIDTH 1000 0
DWIDTH 10 0
BBX 13 10 -1 -2
BITMAP 
0000
03E0
0510
0FF0
1210
1FD0
3120
3FE0
10C0
0F00
ENDCHAR
STARTCHAR U+32A8
ENCODING 12968
SWIDTH 1000 0
DWIDTH 10 0
BBX 13 10 -1 -2
BITMAP 
0000
03E0
0510
0FF0
1410
1FD0
34A0
37E0
10C0
0F00
ENDCHAR
STARTCHAR U+32D0
ENCODING 13008
SWIDTH 1000 0
DWIDTH 10 0
BBX 13 10 -1 -2
BITMAP 
0000
03E0
05F0
0E70
1150
1190
2220
2420
1800
1F00
ENDCHAR
STARTCHAR U+32D1
ENCODING 13009
SWIDTH 1000 0
DWIDTH 10 0
BBX 13 10 -1 -2
BITMAP 
0000
03E0
0470
0890
1110
1410
2220
2220
1200
0F00
ENDCHAR
STARTCHAR U+32D2
ENCODING 13010
SWIDTH 1000 0
DWIDTH 10 0
BBX 13 10 -1 -2
BITMAP 
0000
03E0
0430
09D0
1650
1450
20A0
2120
1600
0B00
ENDCHAR
STARTCHAR U+32D3
ENCODING 13011
SWIDTH 1000 0
DWIDTH 10 0
BBX 13 10 -1 -2
BITMAP 
0000
03E0
0430
08D0
1710
1110
2220
3FE0
1800
1F00
ENDCHAR
STARTCHAR U+32D4
ENCODING 13012
SWIDTH 1000 0
DWIDTH 10 0
BBX 13 10 -1 -2
BITMAP 
0000
03E0
04B0
08D0
1790
1390
2520
3B20
1100
0F00
ENDCHAR
STARTCHAR U+32D5
ENCODING 13013
SWIDTH 1000 0
DWIDTH 10 0
BBX 13 10 -1 -2
BITMAP 
0000
03E0
0430
09D0
1750
1250
24A0
38E0
1380
0D00
ENDCHAR
STARTCHAR U+32D6
ENCODING 13014
SWIDTH 1000 0
DWIDTH 10 0
BBX 13 10 -1 -2
BITMAP 
0000
03E0
0710
0990
1310
15D0
2320
3D20
1100
0F00
ENDCHAR
STARTCHAR U+32D7
ENCODING 13015
SWIDTH 1000 0
DWIDTH 10 0
BBX 13 10 -1 -2
BITMAP 
0000
03E0
0410
0990
1250
1410
2120
2220
1C00
1F00
ENDCHAR
STARTCHAR U+32D8
ENCODING 13016
SWIDTH 1000 0
DWIDTH 10 0
BBX 13 10 -1 -2
BITMAP 
0000
03E0
0730
0A50
1790
1090
2020
2220
1C00
1700
ENDCHAR
STARTCHAR U+32D9
ENCODING 13017
SWIDTH 1000 0
DWIDTH 10 0
BBX 13 10 -1 -2
BITMAP 
0000
03E0
0430
09D0
1650
1050
21A0
27A0
1080
0F00
ENDCHAR
STARTCHAR U+32DA
ENCODING 13018
SWIDTH 1000 0
DWIDTH 10 0
BBX 13 10 -1 -2
BITMAP 
0000
03E0
0670
0A50
12F0
1750
2420
2120
1600
0B00
ENDCHAR
STARTCHAR U+32DB
ENCODING 13019
SWIDTH 1000 0
DWIDTH 10 0
BBX 13 10 -1 -2
BITMAP 
0000
03E0
0410
0A10
1130
1450
24A0
2120
1600
1F00
ENDCHAR
STARTCHAR U+32DC
ENCODING 13020
SWIDTH 1000 0
DWIDTH 10 0
BBX 13 10 -1 -2
BITMAP 
0000
03E0
05F0
0ED0
1050
1090
22A0
24E0
10C0
0F00
ENDCHAR
STARTCHAR U+32DD
ENCODING 13021
SWIDTH 1000 0
DWIDTH 10 0
BBX 13 10 -1 -2
BITMAP 
0000
03E0
0430
0DD0
1650
1490
2020
2320
1080
0F00
ENDCHAR
STARTCHAR U+32DE
ENCODING 13022
SWIDTH 1000 0
DWIDTH 10 0
BBX 13 10 -1 -2
BITMAP 
0000
03E0
0410
0810
1250
1250
2020
2220
1C00
1700
ENDCHAR
STARTCHAR U+32DF
ENCODING 13023
SWIDTH 1000 0
DWIDTH 10 0
BBX 13 10 -1 -2
BITMAP 
0000
03E0
0410
0990
1250
1510
2020
2020
1800
1F00
ENDCHAR
STARTCHAR U+32E0
ENCODING 13024
SWIDTH 1000 0
DWIDTH 10 0
BBX 13 10 -1 -2
BITMAP 
0000
03E0
04F0
0B10
11F0
1710
2120
2220
1C00
1700
ENDCHAR
STARTCHAR U+32E1
ENCODING 13025
SWIDTH 1000 0
DWIDTH 10 0
BBX 13 10 -1 -2
BITMAP 
0000
03E0
0430
0950
1550
1450
20A0
2120
1600
0B00
ENDCHAR
STARTCHAR U+32E2
ENCODING 13026
SWIDTH 1000 0
DWIDTH 10 0
BBX 13 10 -1 -2
BITMAP 
0000
03E0
06F0
0B10
10F0
1610
2120
2220
1C00
1700
ENDCHAR
STARTCHAR U+32E3
ENCODING 13027
SWIDTH 1000 0
DWIDTH 10 0
BBX 13 10 -1 -2
BITMAP 
0000
03E0
0710
0A10
1390
1250
2420
2420
1400
1F00
ENDCHAR
STARTCHAR U+32E5
ENCODING 13029
SWIDTH 1000 0
DWIDTH 10 0
BBX 13 10 -1 -2
BITMAP 
0000
03E0
0410
0990
1610
1010
2020
3FE0
1800
1F00
ENDCHAR
STARTCHAR U+32E9
ENCODING 13033
SWIDTH 1000 0
DWIDTH 10 0
BBX 13 10 -1 -2
BITMAP 
0000
03E0
0410
0810
1410
1850
2860
3020
1000
0F00
ENDCHAR
STARTCHAR U+32EC
ENCODING 13036
SWIDTH 1000 0
DWIDTH 10 0
BBX 13 10 -1 -2
BITMAP 
0000
03E0
0410
0A10
1510
1890
20A0
2060
1000
0F00
ENDCHAR
STARTCHAR U+32ED
ENCODING 13037
SWIDTH 1000 0
DWIDTH 10 0
BBX 13 10 -1 -2
BITMAP 
0000
03E0
0430
09D0
1710
1950
2A60
3220
1200
0F00
ENDCHAR
STARTCHAR U+32FA
ENCODING 13050
SWIDTH 1000 0
DWIDTH 10 0
BBX 13 10 -1 -2
BITMAP 
0000
03E0
0430
19D0
1E50
1850
3960
3C20
1000
0F00
ENDCHAR
STARTCHAR U+3303
ENCODING 13059
SWIDTH 1000 0
DWIDTH 10 0
BBX 13 10 -1 -2
BITMAP 
0000
0F80
0400
0CE0
0800
1000
0800
1900
3E00
5800
ENDCHAR
STARTCHAR U+330D
ENCODING 13069
SWIDTH 1000 0
DWIDTH 10 0
BBX 13 10 -1 -2
BITMAP 
0000
0C00
0F70
0AA0
1CE0
0000
2800
2BE0
0800
0000
ENDCHAR
STARTCHAR U+3314
ENCODING 13076
SWIDTH 1000 0
DWIDTH 10 0
BBX 13 10 -1 -2
BITMAP 
0000
0600
0F00
0700
1C00
04E0
0140
0140
01C0
0000
ENDCHAR
STARTCHAR U+3318
ENCODING 13080
SWIDTH 1000 0
DWIDTH 10 0
BBX 13 10 -1 -2
BITMAP 
0000
02B0
0EF0
1410
0020
0840
1000
1000
1200
6400
ENDCHAR
STARTCHAR U+3322
ENCODING 13090
SWIDTH 1000 0
DWIDTH 10 0
BBX 13 10 -1 -2
BITMAP 
0000
0400
0F40
1810
0820
0640
0400
3C00
0800
0000
ENDCHAR
STARTCHAR U+3323
ENCODING 13091
SWIDTH 1000 0
DWIDTH 10 0
BBX 13 10 -1 -2
BITMAP 
0000
0400
0F40
1810
0820
0E40
1000
1C00
1000
2000
ENDCHAR
STARTCHAR U+3326
ENCODING 13094
SWIDTH 1000 0
DWIDTH 10 0
BBX 13 10 -1 -2
BITMAP 
0000
0680
0600
0A00
0800
0140
0280
02A0
0480
0900
ENDCHAR
STARTCHAR U+3327
ENCODING 13095
SWIDTH 1000 0
DWIDTH 10 0
BBX 13 10 -1 -2
BITMAP 
0000
0400
0600
0A00
0800
0100
0100
0020
0000
0300
ENDCHAR
STARTCHAR U+332B
ENCODING 13099
SWIDTH 1000 0
DWIDTH 10 0
BBX 13 10 -1 -2
BITMAP 
0000
0080
0780
0A60
1200
0040
3CC0
38E0
2380
1500
ENDCHAR
STARTCHAR U+3336
ENCODING 13110
SWIDTH 1000 0
DWIDTH 10 0
BBX 13 10 -1 -2
BITMAP 
0000
0438
0648
0A00
0120
0C40
3980
3FA0
1BC0
6500
ENDCHAR
STARTCHAR U+333B
ENCODING 13115
SWIDTH 1000 0
DWIDTH 10 0
BBX 13 10 -1 -2
BITMAP 
0000
0100
0F30
1400
0300
0140
2200
2000
0000
2000
ENDCHAR
STARTCHAR U+3349
ENCODING 13129
SWIDTH 1000 0
DWIDTH 10 0
BBX 13 10 -1 -2
BITMAP 
0000
0000
0700
0800
06A0
08A0
0540
0040
0000
0100
ENDCHAR
STARTCHAR U+334A
ENCODING 13130
SWIDTH 1000 0
DWIDTH 10 0
BBX 13 10 -1 -2
BITMAP 
0000
0C50
0E50
0C00
1840
0E40
1280
3180
31C0
5300
ENDCHAR
STARTCHAR U+334D
ENCODING 13133
SWIDTH 1000 0
DWIDTH 10 0
BBX 13 10 -1 -2
BITMAP 
0000
0100
0770
0400
1A00
0800
1080
1A80
1480
2900
ENDCHAR
STARTCHAR U+3351
ENCODING 13137
SWIDTH 1000 0
DWIDTH 10 0
BBX 13 10 -1 -2
BITMAP 
0000
0A00
0A00
04D0
0020
0840
1280
1E80
1480
2900
ENDCHAR
STARTCHAR U+3357
ENCODING 13143
SWIDTH 1000 0
DWIDTH 10 0
BBX 13 10 -1 -2
BITMAP 
0000
0F00
0900
00D0
0020
0840
1000
1C00
1000
2000
ENDCHAR
STARTCHAR U+337B
ENCODING 13179
SWIDTH 1000 0
DWIDTH 10 0
BBX 13 10 -1 -2
BITMAP 
0000
0FA0
0430
1BF0
0D40
1F50
13A0
12E0
14A0
2B40
ENDCHAR
STARTCHAR U+337C
ENCODING 13180
SWIDTH 1000 0
DWIDTH 10 0
BBX 13 10 -1 -2
BITMAP 
0000
0720
0DF8
1BD0
1AD0
1CD0
3FA0
37A0
3DE0
2B40
ENDCHAR
STARTCHAR U+337D
ENCODING 13181
SWIDTH 1000 0
DWIDTH 10 0
BBX 13 10 -1 -2
BITMAP 
0000
04F8
0420
1E40
08C0
08F0
1180
1580
2780
47C0
ENDCHAR
STARTCHAR U+337E
ENCODING 13182
SWIDTH 1000 0
DWIDTH 10 0
BBX 13 10 -1 -2
BITMAP 
0000
0720
0DB0
1E50
1B70
1A90
3C00
35E0
17E0
3D40
ENDCHAR
STARTCHAR U+3380
ENCODING 13184
SWIDTH 1000 0
DWIDTH 10 0
BBX 13 10 -1 -2
BITMAP 
0020
0020
0630
0A60
0A60
0CE0
1920
1000
0000
0000
ENDCHAR
STARTCHAR U+3381
ENCODING 13185
SWIDTH 1000 0
DWIDTH 10 0
BBX 13 10 -1 -2
BITMAP 
0020
0020
0630
0A60
0A60
0AA0
1520
0000
0000
0000
ENDCHAR
STARTCHAR U+3382
ENCODING 13186
SWIDTH 1000 0
DWIDTH 10 0
BBX 13 10 -1 -2
BITMAP 
0010
0010
0030
04D0
0150
0B70
1D80
1000
0000
0000
ENDCHAR
STARTCHAR U+3383
ENCODING 13187
SWIDTH 1000 0
DWIDTH 10 0
BBX 13 10 -1 -2
BITMAP 
0010
0010
0418
0D30
0D50
0D70
1A80
0000
0000
0000
ENDCHAR
STARTCHAR U+3384
ENCODING 13188
SWIDTH 1000 0
DWIDTH 10 0
BBX 13 10 -1 -2
BITMAP 
0410
0410
0418
0A30
0C50
0C70
1480
0000
0000
0000
ENDCHAR
STARTCHAR U+3388
ENCODING 13192
SWIDTH 1000 0
DWIDTH 10 0
BBX 13 10 -1 -2
BITMAP 
0000
0000
0240
0740
08C0
0940
0E80
0900
0000
0000
ENDCHAR
STARTCHAR U+3389
ENCODING 13193
SWIDTH 1000 0
DWIDTH 10 0
BBX 13 10 -1 -2
BITMAP 
0400
0400
0480
0960
0A60
0A60
1CC0
0200
0000
0000
ENDCHAR
STARTCHAR U+338A
ENCODING 13194
SWIDTH 1000 0
DWIDTH 10 0
BBX 13 10 -1 -2
BITMAP 
0078
0040
0640
0AE0
0A80
0C80
1900
1000
0000
0000
ENDCHAR
STARTCHAR U+338B
ENCODING 13195
SWIDTH 1000 0
DWIDTH 10 0
BBX 13 10 -1 -2
BITMAP 
0078
0040
0640
0AE0
0A80
0A80
1500
0000
0000
0000
ENDCHAR
STARTCHAR U+338C
ENCODING 13196
SWIDTH 1000 0
DWIDTH 10 0
BBX 13 10 -1 -2
BITMAP 
0038
0020
0020
04F0
0140
0A40
1C80
1000
0000
0000
ENDCHAR
STARTCHAR U+338D
ENCODING 13197
SWIDTH 1000 0
DWIDTH 10 0
BBX 13 10 -1 -2
BITMAP 
0000
0000
0018
0530
0250
0E50
1AE0
10E0
0000
0000
ENDCHAR
STARTCHAR U+338E
ENCODING 13198
SWIDTH 1000 0
DWIDTH 10 0
BBX 13 10 -1 -2
BITMAP 
0000
0000
0000
0010
1470
1CA0
3540
35C0
3760
0780
ENDCHAR
STARTCHAR U+338F
ENCODING 13199
SWIDTH 1000 0
DWIDTH 10 0
BBX 13 10 -1 -2
BITMAP 
0000
0C00
0C00
0810
0F70
0FA0
1940
1DC0
1760
0780
ENDCHAR
STARTCHAR U+3390
ENCODING 13200
SWIDTH 1000 0
DWIDTH 10 0
BBX 13 10 -1 -2
BITMAP 
0480
0480
04B8
0F10
0920
0940
1280
00E0
0000
0000
ENDCHAR
STARTCHAR U+3391
ENCODING 13201
SWIDTH 1000 0
DWIDTH 10 0
BBX 13 10 -1 -2
BITMAP 
04A0
04A0
04A8
0DC0
0950
0960
1AC0
0020
0000
0000
ENDCHAR
STARTCHAR U+3392
ENCODING 13202
SWIDTH 1000 0
DWIDTH 10 0
BBX 13 10 -1 -2
BITMAP 
04A0
04A0
07B8
0DE0
0D50
0D60
12C0
0060
0000
0000
ENDCHAR
STARTCHAR U+3393
ENCODING 13203
SWIDTH 1000 0
DWIDTH 10 0
BBX 13 10 -1 -2
BITMAP 
0660
0560
0478
0AE0
0AD0
0AE0
0DC0
0460
0000
0000
ENDCHAR
STARTCHAR U+3394
ENCODING 13204
SWIDTH 1000 0
DWIDTH 10 0
BBX 13 10 -1 -2
BITMAP 
07E0
0260
0278
04E0
04D0
04E0
09C0
0060
0000
0000
ENDCHAR
STARTCHAR U+3395
ENCODING 13205
SWIDTH 1000 0
DWIDTH 10 0
BBX 13 10 -1 -2
BITMAP 
0010
0028
0028
04D0
0160
0940
1EA0
1100
0000
0000
ENDCHAR
STARTCHAR U+3396
ENCODING 13206
SWIDTH 1000 0
DWIDTH 10 0
BBX 13 10 -1 -2
BITMAP 
0010
0028
0428
0D50
0D60
0D40
1AA0
0000
0000
0000
ENDCHAR
STARTCHAR U+3397
ENCODING 13207
SWIDTH 1000 0
DWIDTH 10 0
BBX 13 10 -1 -2
BITMAP 
0090
00A8
01A8
0150
0960
0940
02A0
0600
0000
0000
ENDCHAR
STARTCHAR U+3398
ENCODING 13208
SWIDTH 1000 0
DWIDTH 10 0
BBX 13 10 -1 -2
BITMAP 
0410
0428
0428
0A50
0C60
0C40
1400
0200
0000
0000
ENDCHAR
STARTCHAR U+3399
ENCODING 13209
SWIDTH 1000 0
DWIDTH 10 0
BBX 13 10 -1 -2
BITMAP 
0100
0200
0340
04D0
04D0
04D0
09A0
0000
0000
0000
ENDCHAR
STARTCHAR U+339A
ENCODING 13210
SWIDTH 1000 0
DWIDTH 10 0
BBX 13 10 -1 -2
BITMAP 
0000
0000
0640
0AD0
0AD0
0AD0
15A0
0000
0000
0000
ENDCHAR
STARTCHAR U+339B
ENCODING 13211
SWIDTH 1000 0
DWIDTH 10 0
BBX 13 10 -1 -2
BITMAP 
0000
0000
0020
0560
0260
0E60
1AC0
1000
0000
0000
ENDCHAR
STARTCHAR U+339C
ENCODING 13212
SWIDTH 1000 0
DWIDTH 10 0
BBX 13 10 -1 -2
BITMAP 
0000
0000
0000
0000
14A0
1CD0
35A0
35A0
35A0
0000
ENDCHAR
STARTCHAR U+339D
ENCODING 13213
SWIDTH 1000 0
DWIDTH 10 0
BBX 13 10 -1 -2
BITMAP 
0000
0000
0000
0000
0AA0
16E0
21A0
21A0
19A0
0000
ENDCHAR
STARTCHAR U+339E
ENCODING 13214
SWIDTH 1000 0
DWIDTH 10 0
BBX 13 10 -1 -2
BITMAP 
0000
0C00
0C00
0800
0FA0
0EE0
19A0
1DA0
15A0
0000
ENDCHAR
STARTCHAR U+339F
ENCODING 13215
SWIDTH 1000 0
DWIDTH 10 0
BBX 13 10 -1 -2
BITMAP 
0008
0000
0400
0D70
0D60
0D60
1AC0
0000
0000
0000
ENDCHAR
STARTCHAR U+33A0
ENCODING 13216
SWIDTH 1000 0
DWIDTH 10 0
BBX 13 10 -1 -2
BITMAP 
0008
0000
0280
0770
0960
0960
0EC0
0800
0000
0000
ENDCHAR
STARTCHAR U+33A1
ENCODING 13217
SWIDTH 1000 0
DWIDTH 10 0
BBX 13 10 -1 -2
BITMAP 
0000
0030
0038
0040
16F0
1B40
1680
1680
36C0
0000
ENDCHAR
STARTCHAR U+33A2
ENCODING 13218
SWIDTH 1000 0
DWIDTH 10 0
BBX 13 10 -1 -2
BITMAP 
0408
0400
0480
0970
0960
0960
12C0
0000
0000
0000
ENDCHAR
STARTCHAR U+33A3
ENCODING 13219
SWIDTH 1000 0
DWIDTH 10 0
BBX 13 10 -1 -2
BITMAP 
0008
0000
0400
0D70
0D60
0D60
1AC0
0000
0000
0000
ENDCHAR
STARTCHAR U+33A4
ENCODING 13220
SWIDTH 1000 0
DWIDTH 10 0
BBX 13 10 -1 -2
BITMAP 
0008
0000
0280
0770
0960
0960
0EC0
0800
0000
0000
ENDCHAR
STARTCHAR U+33A5
ENCODING 13221
SWIDTH 1000 0
DWIDTH 10 0
BBX 13 10 -1 -2
BITMAP 
0010
0008
0788
0A00
0A40
0A40
1480
0000
0000
0000
ENDCHAR
STARTCHAR U+33A6
ENCODING 13222
SWIDTH 1000 0
DWIDTH 10 0
BBX 13 10 -1 -2
BITMAP 
0408
0400
0480
0970
0960
0D60
16C0
0000
0000
0000
ENDCHAR
STARTCHAR U+33A7
ENCODING 13223
SWIDTH 1000 0
DWIDTH 10 0
BBX 13 10 -1 -2
BITMAP 
0020
0020
0438
0D60
0D60
0D50
1A80
0020
0000
0000
ENDCHAR
STARTCHAR U+33A8
ENCODING 13224
SWIDTH 1000 0
DWIDTH 10 0
BBX 13 10 -1 -2
BITMAP 
0028
0000
0478
0CD0
0D40
0D60
1AA0
0040
0000
0000
ENDCHAR
STARTCHAR U+33A9
ENCODING 13225
SWIDTH 1000 0
DWIDTH 10 0
BBX 13 10 -1 -2
BITMAP 
0700
0480
0490
0930
0E70
0850
1060
0040
0000
0000
ENDCHAR
STARTCHAR U+33AA
ENCODING 13226
SWIDTH 1000 0
DWIDTH 10 0
BBX 13 10 -1 -2
BITMAP 
04C0
04A0
04B0
0D50
09B0
0950
1A20
0020
0000
0000
ENDCHAR
STARTCHAR U+33AB
ENCODING 13227
SWIDTH 1000 0
DWIDTH 10 0
BBX 13 10 -1 -2
BITMAP 
04A0
04B0
07B8
0D60
0D50
0D60
1280
0000
0000
0000
ENDCHAR
STARTCHAR U+33AC
ENCODING 13228
SWIDTH 1000 0
DWIDTH 10 0
BBX 13 10 -1 -2
BITMAP 
0660
0560
0478
0AE0
0AD0
0AA0
0D00
0400
0000
0000
ENDCHAR
STARTCHAR U+33AD
ENCODING 13229
SWIDTH 1000 0
DWIDTH 10 0
BBX 13 10 -1 -2
BITMAP 
0000
0000
0180
0A00
09E0
0A60
12C0
0200
0000
0000
ENDCHAR
STARTCHAR U+33AE
ENCODING 13230
SWIDTH 1000 0
DWIDTH 10 0
BBX 13 10 -1 -2
BITMAP 
0710
04B0
05B0
0BE0
0030
0380
1C60
0060
0040
0000
ENDCHAR
STARTCHAR U+33AF
ENCODING 13231
SWIDTH 1000 0
DWIDTH 10 0
BBX 13 10 -1 -2
BITMAP 
0710
04B0
05B8
0BE0
00D0
0E00
11A0
0180
0180
0000
ENDCHAR
STARTCHAR U+33B0
ENCODING 13232
SWIDTH 1000 0
DWIDTH 10 0
BBX 13 10 -1 -2
BITMAP 
0000
0000
0330
0550
0940
0A60
1CA0
1040
0000
0000
ENDCHAR
STARTCHAR U+33B1
ENCODING 13233
SWIDTH 1000 0
DWIDTH 10 0
BBX 13 10 -1 -2
BITMAP 
0000
0000
0330
0550
0940
0960
12A0
0040
0000
0000
ENDCHAR
STARTCHAR U+33B2
ENCODING 13234
SWIDTH 1000 0
DWIDTH 10 0
BBX 13 10 -1 -2
BITMAP 
0000
0000
0008
0480
0120
0A10
1C00
1020
0000
0000
ENDCHAR
STARTCHAR U+33B3
ENCODING 13235
SWIDTH 1000 0
DWIDTH 10 0
BBX 13 10 -1 -2
BITMAP 
0000
0000
0410
0D30
0D40
0D60
1AA0
0040
0000
0000
ENDCHAR
STARTCHAR U+33B4
ENCODING 13236
SWIDTH 1000 0
DWIDTH 10 0
BBX 13 10 -1 -2
BITMAP 
0048
0048
03D0
0550
0960
0A40
1C80
1000
0000
0000
ENDCHAR
STARTCHAR U+33B5
ENCODING 13237
SWIDTH 1000 0
DWIDTH 10 0
BBX 13 10 -1 -2
BITMAP 
0048
0048
0650
0A50
0A60
0A40
1480
0000
0000
0000
ENDCHAR
STARTCHAR U+33B6
ENCODING 13238
SWIDTH 1000 0
DWIDTH 10 0
BBX 13 10 -1 -2
BITMAP 
0020
0020
0060
04D0
0150
0A60
1C40
1000
0000
0000
ENDCHAR
STARTCHAR U+33B7
ENCODING 13239
SWIDTH 1000 0
DWIDTH 10 0
BBX 13 10 -1 -2
BITMAP 
0048
0048
0450
0CD0
0D60
0D40
1A80
0000
0000
0000
ENDCHAR
STARTCHAR U+33B8
ENCODING 13240
SWIDTH 1000 0
DWIDTH 10 0
BBX 13 10 -1 -2
BITMAP 
0448
0448
0450
0850
0860
0840
1080
0000
0000
0000
ENDCHAR
STARTCHAR U+33B9
ENCODING 13241
SWIDTH 1000 0
DWIDTH 10 0
BBX 13 10 -1 -2
BITMAP 
04A0
04A0
07A0
0D50
0D50
0D60
1240
0000
0000
0000
ENDCHAR
STARTCHAR U+33BA
ENCODING 13242
SWIDTH 1000 0
DWIDTH 10 0
BBX 13 10 -1 -2
BITMAP 
0068
0068
0668
0AD0
0AD0
0C60
18C0
1000
0000
0000
ENDCHAR
STARTCHAR U+33BB
ENCODING 13243
SWIDTH 1000 0
DWIDTH 10 0
BBX 13 10 -1 -2
BITMAP 
0068
0068
0668
0AD0
0AD0
0A60
14C0
0000
0000
0000
ENDCHAR
STARTCHAR U+33BC
ENCODING 13244
SWIDTH 1000 0
DWIDTH 10 0
BBX 13 10 -1 -2
BITMAP 
0030
0030
0030
0560
0260
0E60
1AA0
1000
0000
0000
ENDCHAR
STARTCHAR U+33BD
ENCODING 13245
SWIDTH 1000 0
DWIDTH 10 0
BBX 13 10 -1 -2
BITMAP 
0030
0030
0430
0D60
0D60
0D60
1AA0
0000
0000
0000
ENDCHAR
STARTCHAR U+33BE
ENCODING 13246
SWIDTH 1000 0
DWIDTH 10 0
BBX 13 10 -1 -2
BITMAP 
0468
0468
0468
08D0
08D0
0860
10C0
0000
0000
0000
ENDCHAR
STARTCHAR U+33BF
ENCODING 13247
SWIDTH 1000 0
DWIDTH 10 0
BBX 13 10 -1 -2
BITMAP 
04B0
04B0
07B0
0D60
0D60
0D60
12A0
0000
0000
0000
ENDCHAR
STARTCHAR U+33C0
ENCODING 13248
SWIDTH 1000 0
DWIDTH 10 0
BBX 13 10 -1 -2
BITMAP 
0430
0448
0450
0890
0820
0860
10C0
0120
0000
0000
ENDCHAR
STARTCHAR U+33C1
ENCODING 13249
SWIDTH 1000 0
DWIDTH 10 0
BBX 13 10 -1 -2
BITMAP 
04B8
04A0
07A0
0D40
0D50
0D50
12A0
0080
0000
0000
ENDCHAR
STARTCHAR U+33C2
ENCODING 13250
SWIDTH 1000 0
DWIDTH 10 0
BBX 13 10 -1 -2
BITMAP 
0000
0000
0240
06D0
0ED0
0AD0
0DA0
0600
0000
0000
ENDCHAR
STARTCHAR U+33C3
ENCODING 13251
SWIDTH 1000 0
DWIDTH 10 0
BBX 13 10 -1 -2
BITMAP 
0700
0480
0518
0E30
0950
0950
1A60
0C20
0000
0000
ENDCHAR
STARTCHAR U+33C4
ENCODING 13252
SWIDTH 1000 0
DWIDTH 10 0
BBX 13 10 -1 -2
BITMAP 
0000
0000
0000
0000
0A50
16B0
2520
2100
18C0
0000
ENDCHAR
STARTCHAR U+33C5
ENCODING 13253
SWIDTH 1000 0
DWIDTH 10 0
BBX 13 10 -1 -2
BITMAP 
0010
0010
0270
06A0
08A0
08A0
0CC0
0840
0000
0000
ENDCHAR
STARTCHAR U+33C6
ENCODING 13254
SWIDTH 1000 0
DWIDTH 10 0
BBX 13 10 -1 -2
BITMAP 
0480
06C0
07C0
0A90
0EE0
02E0
05C0
09E0
0020
0000
ENDCHAR
STARTCHAR U+33C7
ENCODING 13255
SWIDTH 1000 0
DWIDTH 10 0
BBX 13 10 -1 -2
BITMAP 
0600
0500
0420
0860
08A0
0AA0
0D40
0880
0000
0000
ENDCHAR
STARTCHAR U+33C8
ENCODING 13256
SWIDTH 1000 0
DWIDTH 10 0
BBX 13 10 -1 -2
BITMAP 
00B0
00A8
01B0
0160
0950
0950
02A0
04C0
0000
0000
ENDCHAR
STARTCHAR U+33C9
ENCODING 13257
SWIDTH 1000 0
DWIDTH 10 0
BBX 13 10 -1 -2
BITMAP 
0600
0500
0400
0A90
0A20
0A60
0C80
0980
0000
0000
ENDCHAR
STARTCHAR U+33CA
ENCODING 13258
SWIDTH 1000 0
DWIDTH 10 0
BBX 13 10 -1 -2
BITMAP 
0400
0400
0710
0D30
0970
0950
1260
0040
0000
0000
ENDCHAR
STARTCHAR U+33CB
ENCODING 13259
SWIDTH 1000 0
DWIDTH 10 0
BBX 13 10 -1 -2
BITMAP 
0000
0CE0
04E8
09B0
0FA0
09C0
1300
1300
3300
0000
ENDCHAR
ENDFONT
